<svg version="1.1" xmlns="http://www.w3.org/2000/svg" viewBox="0 0 10020 680.046875" width="10020" height="680.046875">
  <!-- svg-source:excalidraw -->
  
  <defs>
    <style>
      @font-face {
        font-family: "Virgil";
        src: url("https://excalidraw.com/Virgil.woff2");
      }
      @font-face {
        font-family: "Cascadia";
        src: url("https://excalidraw.com/Cascadia.woff2");
      }
    </style>
  </defs>
  <rect x="0" y="0" width="10020" height="680.046875" fill="#fff0"></rect><g stroke-linecap="round" transform="translate(10 10) rotate(0 5000 0.5)"><path d="M-0.52 -0.26 C3022.65 -30.2, 6044.59 -29.2, 9999.32 0.22 M0.38 -0.31 C3948.03 -0.44, 7895.41 0.2, 9999.95 0.08 M10000.08 -0.06 C10000.09 0.27, 10000.05 0.48, 10000.09 0.92 M9999.97 0.01 C9999.95 0.33, 9999.98 0.72, 10000 0.99 M10000.22 1.51 C7095.77 35.76, 4193.15 34.95, -0.25 0.75 M10000.01 1.13 C7827.97 2.74, 5656.23 3.35, -0.33 0.84 M-0.04 1.01 C0 0.63, -0.06 0.15, 0.05 -0.03 M-0.04 0.95 C-0.04 0.73, -0.03 0.59, -0.05 -0.02" stroke="transparent" stroke-width="1" fill="none"></path></g><g transform="translate(795 565.046875) rotate(0 -42 45.5)" stroke="none"><path fill="#1864ab" d="M 0,1.56 Q 0,1.56 -5.17,1.52 -10.34,1.49 -16.79,2.04 -23.24,2.58 -27.71,3.10 -32.19,3.61 -38.05,4.96 -43.91,6.31 -50.12,8.31 -56.32,10.30 -62.13,12.30 -67.95,14.30 -71.81,15.99 -75.67,17.68 -81.25,21.51 -86.83,25.34 -92.34,30.38 -97.85,35.43 -101.88,40.40 -105.91,45.37 -108.51,48.66 -111.11,51.94 -113.00,55.81 -114.90,59.68 -115.99,63.28 -117.07,66.88 -116.95,70.24 -116.83,73.61 -114.84,77.77 -112.84,81.93 -110.60,85.13 -108.36,88.32 -103.53,91.29 -98.70,94.25 -92.10,96.67 -85.49,99.09 -78.99,100.41 -72.49,101.72 -67.76,101.99 -63.04,102.27 -57.05,101.81 -51.07,101.36 -43.69,99.74 -36.32,98.12 -27.48,94.87 -18.64,91.61 -9.73,87.37 -0.82,83.12 4.68,80.17 10.19,77.22 14.78,73.99 19.36,70.76 22.70,68.01 26.04,65.26 28.47,57.42 30.90,49.57 31.70,45.07 32.49,40.56 32.26,37.33 32.02,34.10 31.08,30.78 30.15,27.45 28.61,23.46 27.07,19.46 25.55,15.43 24.02,11.41 22.25,7.74 20.47,4.07 19.41,1.61 18.35,-0.85 16.57,-2.87 14.79,-4.90 12.89,-6.64 11.00,-8.37 8.84,-9.63 6.69,-10.88 4.98,-11.35 3.28,-11.81 0.92,-12.04 -1.43,-12.26 -4.10,-12.09 -6.78,-11.91 -9.28,-11.28 -11.79,-10.65 -13.10,-9.01 -14.42,-7.36 -14.49,-7.12 -14.57,-6.89 -14.71,-6.70 -14.86,-6.50 -15.06,-6.36 -15.26,-6.22 -15.49,-6.16 -15.73,-6.09 -15.97,-6.10 -16.21,-6.11 -16.44,-6.20 -16.67,-6.28 -16.86,-6.44 -17.04,-6.60 -17.17,-6.80 -17.30,-7.01 -17.35,-7.25 -17.41,-7.49 -17.39,-7.73 -17.36,-7.97 -17.26,-8.19 -17.16,-8.42 -17.00,-8.59 -16.83,-8.77 -16.62,-8.89 -16.40,-9.01 -16.16,-9.05 -15.92,-9.09 -15.68,-9.05 -15.44,-9.02 -15.22,-8.91 -15.01,-8.79 -14.84,-8.62 -14.67,-8.44 -14.56,-8.22 -14.46,-8.00 -14.43,-7.76 -14.40,-7.52 -14.45,-7.28 -14.50,-7.04 -14.62,-6.83 -14.75,-6.62 -14.93,-6.46 -15.11,-6.30 -15.34,-6.21 -15.57,-6.12 -15.81,-6.10 -16.05,-6.08 -16.29,-6.15 -16.52,-6.21 -16.73,-6.34 -16.93,-6.48 -17.08,-6.67 -17.23,-6.86 -17.31,-7.09 -17.39,-7.32 -17.39,-7.57 -17.39,-7.81 -17.39,-7.81 -17.39,-7.81 -14.92,-10.54 -12.45,-13.27 -9.71,-13.95 -6.97,-14.63 -4.07,-14.82 -1.17,-15.01 1.46,-14.76 4.11,-14.50 6.06,-13.83 8.01,-13.15 10.38,-11.73 12.76,-10.32 14.77,-8.47 16.78,-6.62 18.76,-4.27 20.75,-1.92 21.79,0.50 22.84,2.93 24.66,6.70 26.48,10.48 28.00,14.50 29.52,18.52 31.10,22.63 32.68,26.75 33.66,30.33 34.64,33.91 34.86,37.46 35.08,41.01 34.24,45.69 33.40,50.37 30.62,58.73 27.85,67.09 24.36,70.00 20.87,72.91 16.15,76.22 11.43,79.53 5.87,82.51 0.30,85.49 -8.71,89.78 -17.73,94.08 -26.74,97.38 -35.75,100.69 -43.31,102.33 -50.87,103.98 -57.03,104.43 -63.19,104.89 -68.10,104.59 -73.01,104.30 -79.70,102.93 -86.39,101.56 -93.24,99.02 -100.09,96.48 -105.27,93.19 -110.46,89.89 -112.84,86.47 -115.22,83.05 -117.33,78.41 -119.44,73.77 -119.52,69.96 -119.60,66.15 -118.43,62.34 -117.27,58.52 -115.23,54.42 -113.19,50.31 -110.58,47.01 -107.97,43.70 -103.81,38.59 -99.64,33.47 -93.99,28.31 -88.34,23.14 -82.55,19.19 -76.75,15.23 -72.79,13.49 -68.83,11.75 -62.99,9.73 -57.16,7.71 -50.85,5.66 -44.54,3.61 -38.53,2.21 -32.52,0.81 -28.01,0.26 -23.50,-0.28 -16.92,-0.89 -10.35,-1.49 -5.17,-1.52 0,-1.56 0.18,-1.53 0.37,-1.51 0.54,-1.45 0.72,-1.38 0.88,-1.27 1.03,-1.16 1.16,-1.02 1.28,-0.88 1.37,-0.72 1.46,-0.55 1.50,-0.37 1.55,-0.18 1.55,0.00 1.55,0.18 1.50,0.37 1.46,0.55 1.37,0.72 1.28,0.88 1.16,1.02 1.03,1.16 0.88,1.27 0.72,1.38 0.54,1.45 0.37,1.51 0.18,1.53 -0.00,1.56 -0.00,1.56 L 0,1.56 Z"></path></g><g transform="translate(895 544.046875) rotate(0 -28 61.5)" stroke="none"><path fill="#1864ab" d="M 0.20,1.54 Q 0.20,1.54 -4.11,2.08 -8.42,2.63 -13.95,3.70 -19.48,4.78 -24.05,6.35 -28.63,7.93 -33.99,10.58 -39.35,13.24 -44.53,15.82 -49.72,18.39 -53.86,21.17 -58.01,23.94 -61.72,27.64 -65.43,31.35 -67.88,34.07 -70.34,36.80 -72.75,41.02 -75.16,45.25 -77.04,50.16 -78.92,55.07 -80.29,60.01 -81.67,64.95 -82.24,68.17 -82.82,71.38 -82.50,75.76 -82.17,80.14 -79.51,85.58 -76.85,91.02 -71.77,96.44 -66.70,101.86 -60.85,106.16 -55.00,110.46 -49.14,113.11 -43.28,115.77 -39.35,117.20 -35.43,118.62 -30.68,119.50 -25.93,120.37 -21.06,120.74 -16.19,121.12 -12.73,120.99 -9.27,120.87 -4.46,119.69 0.34,118.51 5.42,115.20 10.49,111.90 14.36,108.24 18.22,104.58 20.66,100.26 23.09,95.94 24.43,92.96 25.77,89.97 26.30,86.26 26.84,82.55 26.50,77.58 26.17,72.62 24.89,66.23 23.61,59.83 22.22,55.42 20.83,51.01 18.26,46.05 15.69,41.09 12.89,36.69 10.08,32.29 7.23,29.35 4.38,26.40 2.05,24.60 -0.26,22.79 -1.84,21.77 -3.43,20.75 -4.91,20.12 -6.39,19.49 -7.47,18.94 -8.54,18.38 -10.97,17.80 -13.40,17.21 -13.68,17.07 -13.96,16.93 -14.19,16.71 -14.42,16.49 -14.56,16.21 -14.70,15.93 -14.75,15.62 -14.79,15.30 -14.74,14.99 -14.68,14.68 -14.53,14.41 -14.37,14.13 -14.14,13.92 -13.91,13.70 -13.62,13.57 -13.33,13.45 -13.02,13.42 -12.70,13.39 -12.39,13.46 -12.09,13.54 -11.82,13.70 -11.55,13.87 -11.35,14.12 -11.15,14.36 -11.04,14.66 -10.93,14.95 -10.91,15.27 -10.90,15.58 -10.99,15.89 -11.08,16.19 -11.26,16.45 -11.45,16.70 -11.70,16.89 -11.96,17.08 -12.26,17.17 -12.56,17.27 -12.87,17.26 -13.19,17.26 -13.49,17.15 -13.79,17.05 -14.03,16.85 -14.28,16.66 -14.45,16.39 -14.63,16.13 -14.71,15.82 -14.79,15.51 -14.76,15.20 -14.74,14.88 -14.62,14.59 -14.50,14.30 -14.29,14.06 -14.08,13.83 -13.80,13.67 -13.53,13.51 -13.22,13.45 -12.91,13.39 -12.60,13.43 -12.28,13.46 -12.29,13.46 -12.29,13.46 -8.66,15.09 -5.04,16.71 -3.45,17.57 -1.85,18.43 -0.25,19.58 1.34,20.72 3.81,22.65 6.27,24.58 9.28,27.72 12.29,30.87 15.16,35.38 18.02,39.88 20.68,45.05 23.33,50.22 24.76,54.77 26.19,59.32 27.49,65.88 28.79,72.45 29.11,77.69 29.43,82.92 28.80,86.97 28.17,91.03 26.77,94.13 25.37,97.24 22.71,101.85 20.05,106.46 15.98,110.28 11.92,114.10 6.46,117.57 1.01,121.04 -4.08,122.27 -9.17,123.49 -12.78,123.61 -16.39,123.74 -21.40,123.35 -26.41,122.95 -31.36,122.02 -36.32,121.09 -40.35,119.63 -44.37,118.16 -50.46,115.37 -56.55,112.58 -62.58,108.12 -68.62,103.65 -73.91,97.92 -79.20,92.19 -81.99,86.29 -84.78,80.39 -85.10,75.66 -85.42,70.93 -84.81,67.59 -84.21,64.25 -82.80,59.18 -81.39,54.12 -79.43,49.02 -77.46,43.93 -74.89,39.48 -72.32,35.03 -69.82,32.24 -67.32,29.45 -63.42,25.57 -59.52,21.70 -55.23,18.83 -50.94,15.95 -45.76,13.36 -40.58,10.76 -35.07,8.02 -29.56,5.27 -24.80,3.61 -20.04,1.94 -14.43,0.80 -8.82,-0.33 -4.51,-0.93 -0.20,-1.54 -0.01,-1.55 0.17,-1.55 0.35,-1.50 0.53,-1.46 0.70,-1.38 0.87,-1.29 1.01,-1.17 1.15,-1.04 1.26,-0.89 1.37,-0.74 1.44,-0.56 1.51,-0.39 1.53,-0.20 1.56,-0.01 1.54,0.16 1.52,0.35 1.45,0.53 1.39,0.70 1.28,0.86 1.18,1.02 1.04,1.14 0.90,1.27 0.73,1.36 0.57,1.45 0.38,1.50 0.20,1.54 0.20,1.54 L 0.20,1.54 Z"></path></g><g transform="translate(778 561.046875) rotate(0 49.5 -19.5)" stroke="none"><path fill="#1864ab" d="M -1.96,0.32 Q -1.96,0.32 -2.25,-1.40 -2.53,-3.14 -2.43,-4.73 -2.33,-6.32 -2.30,-7.68 -2.27,-9.03 -1.95,-10.24 -1.64,-11.45 -1.23,-12.51 -0.83,-13.56 0.38,-15.44 1.60,-17.32 3.34,-19.58 5.08,-21.83 7.03,-23.94 8.97,-26.05 9.98,-27.47 10.99,-28.88 12.41,-30.22 13.83,-31.56 15.25,-32.90 16.68,-34.23 18.21,-35.45 19.74,-36.66 20.96,-37.55 22.19,-38.43 23.46,-39.54 24.74,-40.66 26.33,-41.59 27.92,-42.52 29.26,-43.72 30.60,-44.92 32.16,-45.79 33.73,-46.66 35.49,-47.52 37.25,-48.39 39.59,-49.34 41.92,-50.29 43.04,-51.01 44.16,-51.73 45.47,-52.20 46.79,-52.67 47.88,-52.83 48.97,-53.00 50.78,-52.07 52.58,-51.14 53.77,-50.15 54.95,-49.17 57.27,-47.28 59.60,-45.39 62.54,-43.42 65.48,-41.45 68.52,-39.09 71.56,-36.73 73.66,-35.16 75.76,-33.58 78.70,-31.14 81.64,-28.70 84.33,-26.20 87.03,-23.70 89.35,-21.17 91.66,-18.63 93.54,-16.07 95.41,-13.51 96.52,-11.50 97.62,-9.50 98.40,-7.44 99.18,-5.39 99.85,-3.69 100.51,-2.00 100.88,-0.30 101.24,1.39 101.42,3.00 101.61,4.60 101.53,6.86 101.44,9.12 101.33,10.46 101.22,11.81 101.13,12.15 101.05,12.50 100.86,12.80 100.66,13.10 100.38,13.32 100.11,13.55 99.77,13.67 99.44,13.79 99.08,13.80 98.73,13.81 98.38,13.70 98.04,13.60 97.76,13.39 97.47,13.18 97.26,12.89 97.05,12.60 96.95,12.26 96.84,11.92 96.85,11.57 96.86,11.21 96.99,10.88 97.11,10.54 97.33,10.26 97.56,9.99 97.86,9.79 98.16,9.60 98.50,9.52 98.85,9.43 99.20,9.46 99.56,9.49 99.89,9.63 100.21,9.77 100.48,10.01 100.74,10.25 100.92,10.56 101.09,10.87 101.16,11.22 101.23,11.57 101.18,11.92 101.13,12.28 100.97,12.60 100.81,12.91 100.56,13.17 100.31,13.42 99.99,13.58 99.67,13.73 99.32,13.78 98.96,13.83 98.61,13.76 98.26,13.69 97.95,13.52 97.64,13.34 97.41,13.08 97.17,12.81 97.03,12.48 96.89,12.16 96.86,11.80 96.83,11.45 96.83,11.45 96.83,11.45 97.08,9.72 97.34,7.99 97.70,6.42 98.06,4.85 98.03,3.38 97.99,1.91 97.85,0.45 97.70,-1.01 97.16,-2.71 96.62,-4.42 95.91,-6.29 95.21,-8.17 94.18,-10.01 93.15,-11.85 91.36,-14.27 89.56,-16.69 87.30,-19.10 85.04,-21.52 82.37,-23.92 79.70,-26.31 76.79,-28.63 73.87,-30.94 71.68,-32.44 69.48,-33.94 66.47,-36.09 63.46,-38.24 60.27,-40.12 57.09,-42.00 54.47,-43.77 51.85,-45.53 50.32,-47.07 48.80,-48.61 47.51,-48.37 46.22,-48.14 44.90,-47.42 43.57,-46.71 41.52,-45.63 39.46,-44.56 36.75,-43.01 34.05,-41.46 32.95,-40.91 31.86,-40.35 30.82,-39.74 29.79,-39.12 28.49,-38.46 27.20,-37.80 25.73,-36.53 24.26,-35.26 23.09,-34.58 21.91,-33.91 20.51,-32.81 19.11,-31.71 17.69,-30.30 16.27,-28.89 15.06,-27.83 13.86,-26.78 12.74,-25.26 11.62,-23.75 9.91,-21.67 8.20,-19.60 6.75,-17.41 5.31,-15.22 4.44,-13.41 3.58,-11.61 2.82,-10.19 2.06,-8.76 1.72,-6.26 1.38,-3.75 1.67,-2.04 1.96,-0.32 1.97,-0.08 1.98,0.15 1.93,0.38 1.89,0.62 1.79,0.84 1.68,1.05 1.53,1.24 1.38,1.43 1.19,1.57 1.00,1.72 0.78,1.81 0.56,1.91 0.32,1.95 0.08,1.99 -0.15,1.97 -0.39,1.95 -0.61,1.87 -0.84,1.80 -1.05,1.67 -1.25,1.54 -1.42,1.37 -1.58,1.20 -1.70,0.99 -1.83,0.78 -1.89,0.55 -1.96,0.32 -1.96,0.32 L -1.96,0.32 Z"></path></g><g transform="translate(796 543.046875) rotate(0 28 -3.5)" stroke="none"><path fill="#1864ab" d="M -0.50,-1.76 Q -0.50,-1.76 3.54,-2.84 7.58,-3.92 12.81,-4.95 18.04,-5.98 21.69,-6.68 25.33,-7.39 29.26,-7.69 33.19,-7.99 36.87,-8.10 40.55,-8.22 43.90,-7.97 47.25,-7.72 49.31,-7.34 51.36,-6.96 53.48,-6.40 55.61,-5.83 55.84,-5.71 56.08,-5.59 56.26,-5.40 56.45,-5.21 56.56,-4.98 56.67,-4.74 56.71,-4.48 56.74,-4.22 56.69,-3.96 56.63,-3.70 56.50,-3.47 56.37,-3.24 56.17,-3.07 55.97,-2.89 55.73,-2.79 55.48,-2.69 55.22,-2.67 54.96,-2.65 54.70,-2.72 54.45,-2.79 54.23,-2.93 54.00,-3.08 53.84,-3.28 53.68,-3.49 53.59,-3.74 53.50,-3.99 53.50,-4.25 53.49,-4.52 53.58,-4.77 53.66,-5.02 53.81,-5.23 53.97,-5.45 54.18,-5.60 54.40,-5.75 54.65,-5.82 54.91,-5.90 55.17,-5.89 55.44,-5.88 55.68,-5.78 55.93,-5.69 56.13,-5.52 56.34,-5.35 56.48,-5.13 56.62,-4.91 56.68,-4.65 56.74,-4.39 56.71,-4.13 56.69,-3.87 56.58,-3.62 56.47,-3.38 56.29,-3.19 56.12,-2.99 55.88,-2.87 55.65,-2.74 55.39,-2.69 55.13,-2.65 54.87,-2.69 54.61,-2.72 54.61,-2.72 54.61,-2.72 52.71,-3.44 50.81,-4.17 48.93,-4.56 47.06,-4.95 43.86,-5.16 40.66,-5.38 37.04,-5.23 33.43,-5.07 29.68,-4.75 25.93,-4.42 22.31,-3.64 18.69,-2.86 13.60,-1.76 8.51,-0.67 4.50,0.54 0.50,1.76 0.28,1.79 0.06,1.83 -0.15,1.81 -0.37,1.79 -0.58,1.72 -0.79,1.65 -0.97,1.53 -1.16,1.41 -1.31,1.25 -1.47,1.09 -1.58,0.90 -1.69,0.71 -1.75,0.50 -1.81,0.28 -1.82,0.06 -1.82,-0.15 -1.78,-0.37 -1.73,-0.58 -1.64,-0.78 -1.54,-0.98 -1.40,-1.15 -1.26,-1.32 -1.08,-1.46 -0.91,-1.59 -0.70,-1.67 -0.50,-1.76 -0.50,-1.76 L -0.50,-1.76 Z"></path></g><g transform="translate(1026 669.046875) rotate(0 0.00004999999998744897 0.00005000000000165983)" stroke="none"><path fill="#1864ab" d="M 1.57,-1.57 Q 1.57,-1.57 1.77,-1.27 1.98,-0.98 2.09,-0.64 2.20,-0.29 2.19,0.05 2.18,0.41 2.05,0.75 1.93,1.09 1.70,1.37 1.48,1.65 1.18,1.84 0.87,2.04 0.52,2.12 0.18,2.21 -0.17,2.18 -0.53,2.15 -0.86,2.01 -1.19,1.87 -1.46,1.63 -1.73,1.39 -1.90,1.07 -2.08,0.76 -2.15,0.41 -2.21,0.05 -2.17,-0.29 -2.12,-0.65 -1.96,-0.97 -1.80,-1.29 -1.54,-1.54 -1.29,-1.80 -0.97,-1.96 -0.65,-2.12 -0.29,-2.17 0.06,-2.21 0.41,-2.15 0.76,-2.08 1.07,-1.90 1.39,-1.73 1.63,-1.46 1.87,-1.19 2.01,-0.86 2.15,-0.53 2.18,-0.17 2.21,0.18 2.12,0.52 2.03,0.87 1.84,1.18 1.65,1.48 1.37,1.70 1.09,1.93 0.75,2.05 0.41,2.18 0.05,2.19 -0.30,2.20 -0.64,2.09 -0.98,1.98 -1.27,1.77 -1.57,1.56 -1.57,1.57 -1.57,1.57 -1.73,1.35 -1.90,1.14 -2.01,0.90 -2.12,0.66 -2.16,0.39 -2.21,0.13 -2.20,-0.13 -2.18,-0.40 -2.10,-0.65 -2.02,-0.91 -1.88,-1.14 -1.74,-1.36 -1.55,-1.55 -1.36,-1.74 -1.14,-1.88 -0.91,-2.02 -0.65,-2.10 -0.40,-2.18 -0.13,-2.20 0.13,-2.21 0.39,-2.16 0.66,-2.12 0.90,-2.01 1.14,-1.90 1.35,-1.73 1.57,-1.57 1.57,-1.57 L 1.57,-1.57 Z"></path></g><g transform="translate(1105 512.046875) rotate(0 0.00004999999998744897 0.000050000000000105516)" stroke="none"><path fill="#1864ab" d="M 1.57,-1.57 Q 1.57,-1.57 1.77,-1.27 1.98,-0.98 2.09,-0.64 2.20,-0.29 2.19,0.05 2.18,0.41 2.05,0.75 1.93,1.09 1.70,1.37 1.48,1.65 1.18,1.84 0.87,2.04 0.52,2.12 0.18,2.21 -0.17,2.18 -0.53,2.15 -0.86,2.01 -1.19,1.87 -1.46,1.63 -1.73,1.39 -1.90,1.07 -2.08,0.76 -2.15,0.41 -2.21,0.05 -2.17,-0.29 -2.12,-0.65 -1.96,-0.97 -1.80,-1.29 -1.54,-1.54 -1.29,-1.80 -0.97,-1.96 -0.65,-2.12 -0.29,-2.17 0.06,-2.21 0.41,-2.15 0.76,-2.08 1.07,-1.90 1.39,-1.73 1.63,-1.46 1.87,-1.19 2.01,-0.86 2.15,-0.53 2.18,-0.17 2.21,0.18 2.12,0.52 2.03,0.87 1.84,1.18 1.65,1.48 1.37,1.70 1.09,1.93 0.75,2.05 0.41,2.18 0.05,2.19 -0.30,2.20 -0.64,2.09 -0.98,1.98 -1.27,1.77 -1.57,1.56 -1.57,1.57 -1.57,1.57 -1.73,1.35 -1.90,1.14 -2.01,0.90 -2.12,0.66 -2.16,0.39 -2.21,0.13 -2.20,-0.13 -2.18,-0.40 -2.10,-0.65 -2.02,-0.91 -1.88,-1.14 -1.74,-1.36 -1.55,-1.55 -1.36,-1.74 -1.14,-1.88 -0.91,-2.02 -0.65,-2.10 -0.40,-2.18 -0.13,-2.20 0.13,-2.21 0.39,-2.16 0.66,-2.12 0.90,-2.01 1.14,-1.90 1.35,-1.73 1.57,-1.57 1.57,-1.57 L 1.57,-1.57 Z"></path></g></svg>