<svg version="1.1" xmlns="http://www.w3.org/2000/svg" viewBox="0 0 10020 765.6876" width="10020" height="765.6876">
  <!-- svg-source:excalidraw -->
  
  <defs>
    <style>
      @font-face {
        font-family: "Virgil";
        src: url("https://excalidraw.com/Virgil.woff2");
      }
      @font-face {
        font-family: "Cascadia";
        src: url("https://excalidraw.com/Cascadia.woff2");
      }
    </style>
  </defs>
  <rect x="0" y="0" width="10020" height="765.6876" fill="#fff0"></rect><g stroke-linecap="round" transform="translate(10 10) rotate(0 5000 0.5)"><path d="M-0.52 -0.26 C3022.65 -30.2, 6044.59 -29.2, 9999.32 0.22 M0.38 -0.31 C3948.03 -0.44, 7895.41 0.2, 9999.95 0.08 M10000.08 -0.06 C10000.09 0.27, 10000.05 0.48, 10000.09 0.92 M9999.97 0.01 C9999.95 0.33, 9999.98 0.72, 10000 0.99 M10000.22 1.51 C7095.77 35.76, 4193.15 34.95, -0.25 0.75 M10000.01 1.13 C7827.97 2.74, 5656.23 3.35, -0.33 0.84 M-0.04 1.01 C0 0.63, -0.06 0.15, 0.05 -0.03 M-0.04 0.95 C-0.04 0.73, -0.03 0.59, -0.05 -0.02" stroke="transparent" stroke-width="1" fill="none"></path></g><g stroke-linecap="round"><g transform="translate(618 624.6875) rotate(0 208.5 0)"><path d="M0.81 1.1 C70.33 1.15, 347.45 0.48, 416.71 0.47 M-0.23 0.64 C69.15 0.3, 346.36 -1.17, 415.61 -1.41" stroke="#1864ab" stroke-width="1" fill="none"></path></g></g><g transform="translate(693 609.6875) rotate(0 -3.5 18.5)" stroke="none"><path fill="#1864ab" d="M 1.90,0.21 Q 1.90,0.21 1.25,5.37 0.59,10.54 -0.87,16.29 -2.35,22.04 -3.27,25.58 -4.19,29.12 -4.60,32.45 -5.01,35.78 -5.10,36.05 -5.19,36.33 -5.36,36.55 -5.53,36.78 -5.77,36.95 -6.01,37.11 -6.28,37.19 -6.56,37.26 -6.84,37.25 -7.13,37.24 -7.40,37.13 -7.66,37.03 -7.88,36.84 -8.10,36.66 -8.25,36.41 -8.40,36.17 -8.46,35.89 -8.53,35.61 -8.50,35.33 -8.47,35.04 -8.35,34.78 -8.23,34.52 -8.04,34.31 -7.84,34.10 -7.59,33.97 -7.34,33.83 -7.05,33.78 -6.77,33.73 -6.49,33.78 -6.20,33.82 -5.95,33.96 -5.70,34.09 -5.50,34.30 -5.30,34.50 -5.18,34.76 -5.06,35.02 -5.02,35.31 -4.99,35.59 -5.05,35.87 -5.11,36.15 -5.26,36.40 -5.40,36.64 -5.62,36.83 -5.84,37.02 -6.10,37.12 -6.37,37.23 -6.66,37.25 -6.94,37.27 -7.22,37.19 -7.49,37.12 -7.73,36.96 -7.97,36.80 -8.15,36.57 -8.32,36.34 -8.41,36.07 -8.51,35.80 -8.51,35.52 -8.51,35.23 -8.51,35.23 -8.51,35.23 -7.85,31.80 -7.20,28.37 -6.36,24.81 -5.52,21.25 -4.21,15.70 -2.89,10.15 -2.40,4.97 -1.90,-0.21 -1.85,-0.43 -1.80,-0.66 -1.69,-0.86 -1.58,-1.07 -1.43,-1.24 -1.28,-1.42 -1.09,-1.55 -0.90,-1.68 -0.69,-1.77 -0.47,-1.85 -0.24,-1.88 -0.01,-1.91 0.21,-1.89 0.44,-1.86 0.65,-1.78 0.87,-1.70 1.06,-1.57 1.25,-1.44 1.41,-1.27 1.56,-1.10 1.67,-0.90 1.78,-0.69 1.84,-0.47 1.90,-0.25 1.90,-0.01 1.90,0.21 1.90,0.21 L 1.90,0.21 Z"></path></g><g transform="translate(685 670.6875) rotate(0 11 3)" stroke="none"><path fill="#1864ab" d="M -0.68,-1.77 Q -0.68,-1.77 3.08,-3.14 6.85,-4.50 10.33,-5.10 13.81,-5.69 16.24,-5.63 18.68,-5.58 20.26,-4.88 21.85,-4.19 22.28,-2.56 22.71,-0.92 21.46,1.74 20.20,4.42 18.42,6.67 16.63,8.92 14.52,10.01 12.41,11.10 11.06,11.60 9.71,12.10 7.82,11.36 5.93,10.62 4.74,8.86 3.55,7.11 3.04,5.74 2.52,4.36 2.03,3.50 1.53,2.64 1.19,2.51 0.84,2.38 0.55,2.15 0.26,1.91 0.06,1.60 -0.13,1.28 -0.21,0.92 -0.30,0.56 -0.27,0.19 -0.24,-0.17 -0.09,-0.51 0.05,-0.85 0.30,-1.13 0.55,-1.40 0.87,-1.58 1.20,-1.77 1.57,-1.83 1.93,-1.90 2.30,-1.85 2.67,-1.80 3.00,-1.63 3.33,-1.46 3.59,-1.20 3.86,-0.93 4.02,-0.60 4.18,-0.26 4.23,0.09 4.28,0.46 4.21,0.83 4.13,1.19 3.95,1.52 3.76,1.84 3.49,2.09 3.21,2.33 2.86,2.48 2.52,2.62 2.15,2.65 1.78,2.68 1.42,2.59 1.06,2.49 0.75,2.29 0.43,2.09 0.20,1.80 -0.02,1.51 -0.14,1.16 -0.27,0.81 -0.28,0.44 -0.29,0.06 -0.18,-0.28 -0.06,-0.64 0.14,-0.94 0.36,-1.24 0.67,-1.45 0.97,-1.67 1.33,-1.78 1.68,-1.88 2.06,-1.87 2.43,-1.86 2.43,-1.86 2.43,-1.86 4.42,0.02 6.41,1.91 6.67,3.53 6.94,5.16 7.45,6.30 7.96,7.44 9.48,7.84 11.01,8.23 12.58,7.53 14.14,6.82 15.59,4.84 17.03,2.87 17.82,0.18 18.60,-2.50 16.49,-2.49 14.39,-2.49 11.24,-1.86 8.09,-1.24 4.38,0.26 0.68,1.77 0.46,1.83 0.23,1.88 0.00,1.89 -0.22,1.89 -0.44,1.83 -0.66,1.78 -0.87,1.67 -1.07,1.57 -1.24,1.42 -1.41,1.26 -1.55,1.08 -1.68,0.89 -1.76,0.67 -1.84,0.46 -1.87,0.23 -1.90,0.00 -1.87,-0.21 -1.85,-0.44 -1.77,-0.66 -1.68,-0.87 -1.56,-1.06 -1.43,-1.25 -1.25,-1.40 -1.08,-1.56 -0.88,-1.66 -0.68,-1.77 -0.68,-1.77 L -0.68,-1.77 Z"></path></g><g transform="translate(743 614.6875) rotate(0 -1 15.5)" stroke="none"><path fill="#1864ab" d="M 1.92,0 Q 1.92,0 1.83,2.87 1.75,5.75 1.69,8.40 1.63,11.06 1.30,14.56 0.96,18.05 0.81,20.35 0.66,22.64 0.29,24.85 -0.07,27.06 -0.19,28.75 -0.30,30.44 -0.37,30.69 -0.44,30.94 -0.59,31.16 -0.74,31.37 -0.95,31.53 -1.16,31.68 -1.41,31.76 -1.66,31.84 -1.92,31.84 -2.18,31.84 -2.43,31.75 -2.68,31.66 -2.89,31.50 -3.09,31.34 -3.24,31.12 -3.38,30.91 -3.45,30.65 -3.51,30.40 -3.50,30.14 -3.48,29.88 -3.38,29.64 -3.28,29.39 -3.11,29.20 -2.94,29.00 -2.71,28.87 -2.49,28.73 -2.23,28.68 -1.97,28.63 -1.71,28.66 -1.45,28.69 -1.22,28.80 -0.98,28.92 -0.79,29.10 -0.60,29.28 -0.49,29.51 -0.37,29.75 -0.33,30.00 -0.29,30.26 -0.33,30.52 -0.38,30.78 -0.50,31.01 -0.63,31.24 -0.82,31.42 -1.01,31.59 -1.25,31.70 -1.49,31.81 -1.75,31.83 -2.01,31.86 -2.27,31.80 -2.52,31.74 -2.74,31.60 -2.97,31.46 -3.13,31.26 -3.30,31.06 -3.39,30.82 -3.49,30.57 -3.50,30.31 -3.51,30.05 -3.51,30.05 -3.51,30.05 -3.21,28.33 -2.91,26.61 -2.61,24.55 -2.30,22.49 -2.21,20.14 -2.11,17.79 -1.87,14.43 -1.63,11.06 -1.69,8.40 -1.75,5.75 -1.83,2.87 -1.92,0 -1.89,-0.22 -1.86,-0.45 -1.78,-0.67 -1.70,-0.89 -1.56,-1.08 -1.43,-1.27 -1.26,-1.42 -1.09,-1.58 -0.88,-1.68 -0.68,-1.79 -0.45,-1.85 -0.23,-1.90 0.00,-1.90 0.23,-1.90 0.45,-1.85 0.68,-1.79 0.88,-1.68 1.09,-1.58 1.26,-1.42 1.43,-1.27 1.56,-1.08 1.70,-0.89 1.78,-0.67 1.86,-0.45 1.89,-0.22 1.92,0.00 1.92,0.00 L 1.92,0 Z"></path></g><g transform="translate(741 673.6875) rotate(0 2.5 9.5)" stroke="none"><path fill="#1864ab" d="M -0.92,-1.84 Q -0.92,-1.84 0.87,-2.39 2.67,-2.94 4.13,-2.01 5.60,-1.07 5.78,2.05 5.97,5.17 5.89,7.42 5.81,9.67 5.46,12.44 5.10,15.21 5.44,17.47 5.77,19.73 5.75,20.04 5.73,20.34 5.62,20.63 5.50,20.91 5.30,21.14 5.10,21.37 4.84,21.53 4.57,21.68 4.27,21.75 3.97,21.81 3.67,21.77 3.36,21.74 3.09,21.61 2.81,21.47 2.59,21.26 2.37,21.05 2.23,20.78 2.09,20.50 2.04,20.20 2.00,19.90 2.05,19.60 2.10,19.30 2.25,19.03 2.39,18.76 2.62,18.55 2.84,18.34 3.12,18.22 3.40,18.09 3.71,18.06 4.01,18.03 4.31,18.10 4.61,18.17 4.87,18.33 5.13,18.49 5.32,18.72 5.52,18.96 5.63,19.25 5.74,19.53 5.75,19.84 5.77,20.14 5.68,20.44 5.60,20.73 5.42,20.98 5.25,21.23 5.00,21.42 4.76,21.60 4.47,21.70 4.18,21.79 3.87,21.79 3.56,21.78 3.27,21.68 2.99,21.58 2.74,21.39 2.50,21.21 2.33,20.95 2.16,20.70 2.08,20.40 2.01,20.10 2.01,20.10 2.01,20.10 1.86,17.49 1.71,14.87 1.92,12.28 2.12,9.70 2.01,7.47 1.89,5.24 1.91,2.94 1.92,0.64 1.42,1.24 0.92,1.84 0.68,1.92 0.45,2.00 0.20,2.03 -0.04,2.05 -0.28,2.02 -0.53,1.98 -0.76,1.89 -0.99,1.80 -1.19,1.65 -1.39,1.51 -1.55,1.32 -1.71,1.13 -1.82,0.91 -1.93,0.69 -1.99,0.44 -2.04,0.20 -2.04,-0.04 -2.03,-0.28 -1.97,-0.52 -1.90,-0.76 -1.78,-0.98 -1.67,-1.20 -1.50,-1.38 -1.33,-1.56 -1.12,-1.70 -0.92,-1.84 -0.92,-1.84 L -0.92,-1.84 Z"></path></g><g transform="translate(802 605.6875) rotate(0 -1 20)" stroke="none"><path fill="#1864ab" d="M 1.99,0 Q 1.99,0 1.90,4.02 1.80,8.05 1.16,13.86 0.51,19.68 0.22,23.52 -0.06,27.37 -0.20,30.14 -0.34,32.91 0.12,36.05 0.58,39.18 0.57,39.45 0.55,39.72 0.45,39.96 0.35,40.21 0.17,40.42 0.00,40.62 -0.23,40.76 -0.46,40.89 -0.72,40.95 -0.98,41.00 -1.25,40.97 -1.52,40.94 -1.76,40.83 -2.01,40.71 -2.20,40.52 -2.39,40.34 -2.52,40.10 -2.64,39.86 -2.68,39.59 -2.72,39.33 -2.68,39.06 -2.63,38.80 -2.50,38.56 -2.37,38.33 -2.18,38.14 -1.98,37.96 -1.74,37.85 -1.49,37.74 -1.22,37.71 -0.95,37.68 -0.69,37.74 -0.43,37.80 -0.20,37.94 0.02,38.09 0.19,38.29 0.36,38.50 0.46,38.75 0.56,39.00 0.57,39.27 0.58,39.54 0.51,39.80 0.43,40.06 0.28,40.28 0.13,40.50 -0.08,40.66 -0.29,40.82 -0.55,40.90 -0.81,40.99 -1.08,40.98 -1.34,40.98 -1.60,40.89 -1.85,40.81 -2.07,40.64 -2.28,40.48 -2.43,40.25 -2.58,40.03 -2.65,39.77 -2.71,39.51 -2.71,39.51 -2.71,39.51 -3.03,36.16 -3.35,32.81 -3.28,29.99 -3.21,27.17 -3.01,23.26 -2.81,19.35 -2.31,13.70 -1.80,8.04 -1.90,4.02 -1.99,0 -1.96,-0.23 -1.93,-0.47 -1.84,-0.70 -1.76,-0.92 -1.62,-1.12 -1.48,-1.32 -1.31,-1.47 -1.13,-1.63 -0.91,-1.74 -0.70,-1.86 -0.47,-1.91 -0.23,-1.97 0.00,-1.97 0.24,-1.97 0.47,-1.91 0.70,-1.86 0.91,-1.74 1.13,-1.63 1.31,-1.47 1.49,-1.31 1.62,-1.12 1.76,-0.92 1.84,-0.70 1.93,-0.47 1.96,-0.23 1.99,0.00 1.99,0.00 L 1.99,0 Z"></path></g><g transform="translate(801 678.6875) rotate(0 1.5 9.5)" stroke="none"><path fill="#1864ab" d="M 0.96,-2.41 Q 0.96,-2.41 2.47,-1.75 3.97,-1.08 5.10,0.09 6.22,1.28 6.70,2.75 7.18,4.22 6.68,6.15 6.18,8.07 5.63,9.12 5.07,10.17 3.52,12.15 1.97,14.13 0.75,14.95 -0.47,15.76 -1.50,16.36 -2.53,16.96 -4.19,17.48 -5.85,18.00 -6.35,18.04 -6.85,18.09 -7.23,18.09 -7.61,18.10 -7.98,18.01 -8.35,17.92 -8.69,17.75 -9.03,17.57 -9.32,17.32 -9.60,17.07 -9.82,16.76 -10.04,16.45 -10.18,16.09 -10.32,15.74 -10.37,15.36 -10.42,14.98 -10.37,14.60 -10.33,14.22 -10.20,13.87 -10.07,13.51 -9.85,13.19 -9.64,12.88 -9.36,12.62 -9.07,12.37 -8.74,12.19 -8.40,12.01 -8.03,11.91 -7.66,11.82 -5.63,12.18 -3.60,12.54 -1.15,13.07 1.29,13.60 3.11,14.16 4.93,14.73 6.15,14.90 7.37,15.07 9.24,15.61 11.11,16.14 11.51,16.34 11.90,16.54 12.22,16.86 12.53,17.18 12.72,17.58 12.92,17.98 12.97,18.43 13.03,18.87 12.94,19.31 12.85,19.74 12.63,20.13 12.40,20.51 12.07,20.81 11.73,21.10 11.32,21.27 10.91,21.45 10.47,21.48 10.02,21.51 9.59,21.40 9.16,21.28 8.79,21.04 8.41,20.80 8.14,20.45 7.86,20.10 7.71,19.68 7.56,19.26 7.56,18.81 7.55,18.36 7.68,17.94 7.82,17.52 8.08,17.16 8.35,16.80 8.71,16.54 9.08,16.28 9.50,16.16 9.93,16.03 10.38,16.05 10.82,16.07 11.24,16.22 11.65,16.38 12.00,16.66 12.34,16.95 12.58,17.33 12.82,17.70 12.92,18.14 13.02,18.57 12.98,19.01 12.94,19.46 12.76,19.87 12.58,20.27 12.28,20.60 11.98,20.93 11.59,21.15 11.20,21.36 10.76,21.44 10.32,21.52 9.88,21.45 9.44,21.39 9.44,21.39 9.44,21.39 8.04,20.88 6.63,20.38 5.16,20.18 3.68,19.98 1.86,19.69 0.04,19.39 -1.40,19.16 -2.86,18.93 -4.85,18.51 -6.85,18.09 -7.23,18.09 -7.61,18.10 -7.98,18.01 -8.35,17.92 -8.69,17.75 -9.03,17.57 -9.32,17.32 -9.60,17.07 -9.82,16.76 -10.04,16.45 -10.18,16.09 -10.32,15.74 -10.37,15.36 -10.42,14.98 -10.37,14.60 -10.33,14.22 -10.20,13.87 -10.07,13.51 -9.85,13.19 -9.64,12.88 -9.36,12.62 -9.07,12.37 -8.74,12.19 -8.40,12.01 -8.03,11.91 -7.66,11.82 -6.81,11.89 -5.96,11.96 -4.92,11.49 -3.89,11.01 -2.28,10.14 -0.67,9.27 0.25,7.74 1.18,6.21 1.47,4.79 1.77,3.38 0.40,2.90 -0.96,2.41 -1.24,2.26 -1.51,2.11 -1.74,1.90 -1.97,1.68 -2.15,1.42 -2.32,1.16 -2.43,0.87 -2.53,0.57 -2.56,0.26 -2.60,-0.04 -2.55,-0.35 -2.51,-0.66 -2.39,-0.95 -2.28,-1.25 -2.09,-1.50 -1.91,-1.76 -1.67,-1.96 -1.43,-2.16 -1.15,-2.30 -0.87,-2.44 -0.57,-2.51 -0.26,-2.58 0.04,-2.58 0.36,-2.57 0.66,-2.49 0.96,-2.41 0.96,-2.41 L 0.96,-2.41 Z"></path></g><g transform="translate(744 587.6875) rotate(0 23 -8.5)" stroke="none"><path fill="#000000" d="M -1.40,-0.93 Q -1.40,-0.93 -0.22,-2.63 0.96,-4.34 2.39,-5.99 3.82,-7.64 5.64,-9.23 7.46,-10.83 9.44,-12.10 11.43,-13.38 14.27,-15.05 17.12,-16.73 20.12,-18.04 23.13,-19.36 25.65,-19.94 28.17,-20.51 30.50,-20.47 32.83,-20.42 34.47,-20.20 36.11,-19.97 37.81,-19.25 39.52,-18.54 40.98,-17.26 42.44,-15.97 43.43,-14.46 44.42,-12.95 44.91,-11.98 45.40,-11.01 45.66,-9.54 45.93,-8.07 45.93,-6.01 45.93,-3.96 46.22,-2.42 46.52,-0.88 47.11,0.32 47.71,1.54 47.79,1.87 47.87,2.21 47.84,2.56 47.81,2.90 47.67,3.22 47.53,3.54 47.29,3.79 47.06,4.05 46.75,4.22 46.45,4.38 46.11,4.45 45.77,4.51 45.42,4.46 45.08,4.41 44.77,4.25 44.46,4.09 44.22,3.84 43.97,3.59 43.82,3.28 43.67,2.97 43.63,2.62 43.59,2.28 43.66,1.94 43.72,1.60 43.90,1.30 44.07,1.00 44.33,0.77 44.59,0.54 44.92,0.41 45.24,0.27 45.58,0.25 45.93,0.23 46.26,0.31 46.60,0.40 46.89,0.59 47.18,0.78 47.40,1.05 47.61,1.33 47.73,1.65 47.84,1.98 47.85,2.33 47.85,2.67 47.75,3.01 47.64,3.34 47.44,3.62 47.23,3.90 46.95,4.09 46.66,4.29 46.33,4.39 46.00,4.49 45.65,4.48 45.30,4.46 44.98,4.34 44.65,4.22 44.39,4.00 44.12,3.78 43.93,3.48 43.75,3.19 43.75,3.19 43.75,3.19 43.15,1.53 42.55,-0.12 42.21,-1.97 41.88,-3.83 41.75,-5.69 41.63,-7.56 41.42,-9.31 41.20,-11.05 40.59,-12.25 39.97,-13.45 39.01,-14.50 38.04,-15.54 36.75,-16.24 35.46,-16.94 34.11,-17.34 32.75,-17.73 30.75,-17.79 28.75,-17.86 26.49,-17.35 24.23,-16.83 21.39,-15.57 18.55,-14.32 15.78,-12.65 13.00,-10.97 11.21,-9.79 9.43,-8.61 7.80,-7.12 6.18,-5.63 4.91,-4.09 3.63,-2.55 2.52,-0.81 1.40,0.93 1.26,1.08 1.13,1.24 0.97,1.36 0.80,1.47 0.61,1.55 0.42,1.62 0.22,1.65 0.02,1.68 -0.17,1.66 -0.37,1.64 -0.56,1.57 -0.75,1.50 -0.92,1.39 -1.09,1.27 -1.23,1.12 -1.37,0.97 -1.46,0.80 -1.56,0.62 -1.61,0.42 -1.66,0.22 -1.67,0.02 -1.67,-0.17 -1.62,-0.37 -1.58,-0.57 -1.49,-0.75 -1.40,-0.93 -1.40,-0.93 L -1.40,-0.93 Z"></path></g><g transform="translate(808 571.6875) rotate(0 -8 12.5)" stroke="none"><path fill="#000000" d="M 2.28,0.45 Q 2.28,0.45 1.99,1.79 1.71,3.13 2.68,4.11 3.65,5.09 4.56,5.98 5.46,6.87 6.75,8.69 8.03,10.50 7.90,11.86 7.77,13.21 6.17,14.79 4.56,16.36 2.37,17.66 0.18,18.95 -1.93,20.02 -4.05,21.09 -6.45,22.10 -8.85,23.11 -10.98,24.06 -13.12,25.02 -14.71,25.56 -16.30,26.11 -18.80,26.49 -21.30,26.88 -21.62,26.86 -21.93,26.84 -22.22,26.72 -22.51,26.60 -22.75,26.39 -22.99,26.19 -23.14,25.92 -23.30,25.65 -23.37,25.34 -23.43,25.03 -23.40,24.72 -23.36,24.41 -23.22,24.12 -23.09,23.84 -22.87,23.61 -22.65,23.39 -22.37,23.24 -22.09,23.10 -21.78,23.05 -21.47,23.00 -21.16,23.06 -20.85,23.11 -20.58,23.26 -20.30,23.41 -20.09,23.64 -19.88,23.87 -19.75,24.16 -19.62,24.45 -19.59,24.76 -19.56,25.07 -19.63,25.38 -19.70,25.68 -19.86,25.95 -20.03,26.22 -20.27,26.42 -20.51,26.62 -20.80,26.73 -21.10,26.85 -21.41,26.86 -21.72,26.87 -22.02,26.79 -22.33,26.70 -22.58,26.52 -22.84,26.34 -23.03,26.09 -23.22,25.84 -23.32,25.54 -23.41,25.24 -23.41,24.93 -23.41,24.61 -23.30,24.32 -23.20,24.02 -23.01,23.77 -22.81,23.52 -22.55,23.35 -22.29,23.18 -21.99,23.09 -21.68,23.01 -21.68,23.01 -21.68,23.01 -19.51,22.80 -17.33,22.60 -15.97,22.27 -14.60,21.94 -12.50,20.85 -10.40,19.75 -8.24,18.64 -6.08,17.54 -4.24,16.33 -2.40,15.13 -0.67,13.77 1.04,12.41 1.45,11.42 1.87,10.43 0.97,9.49 0.07,8.56 -0.90,7.36 -1.88,6.17 -2.37,4.39 -2.86,2.61 -2.57,1.07 -2.28,-0.45 -2.19,-0.72 -2.11,-0.99 -1.96,-1.22 -1.81,-1.46 -1.61,-1.66 -1.40,-1.85 -1.16,-2.00 -0.92,-2.14 -0.65,-2.22 -0.38,-2.30 -0.10,-2.31 0.17,-2.32 0.45,-2.26 0.72,-2.21 0.98,-2.09 1.23,-1.97 1.45,-1.79 1.67,-1.62 1.84,-1.39 2.01,-1.17 2.12,-0.91 2.23,-0.65 2.28,-0.38 2.32,-0.10 2.30,0.17 2.28,0.45 2.28,0.45 L 2.28,0.45 Z"></path></g><g transform="translate(775 538.6875) rotate(0 -0.5 9.5)" stroke="none"><path fill="#000000" d="M 2.05,0 Q 2.05,0 1.95,3.16 1.85,6.32 1.49,8.64 1.12,10.95 0.96,12.97 0.79,14.99 1.20,16.45 1.60,17.91 1.61,18.19 1.62,18.48 1.54,18.76 1.45,19.04 1.29,19.27 1.12,19.51 0.89,19.68 0.65,19.85 0.38,19.94 0.10,20.02 -0.18,20.02 -0.47,20.01 -0.74,19.92 -1.01,19.82 -1.24,19.64 -1.46,19.46 -1.62,19.22 -1.78,18.98 -1.85,18.70 -1.92,18.42 -1.90,18.13 -1.88,17.84 -1.77,17.57 -1.66,17.31 -1.46,17.09 -1.27,16.87 -1.02,16.73 -0.77,16.59 -0.49,16.53 -0.21,16.47 0.07,16.51 0.36,16.55 0.62,16.67 0.88,16.80 1.08,17.00 1.29,17.20 1.42,17.46 1.55,17.72 1.59,18.00 1.63,18.29 1.58,18.58 1.53,18.86 1.39,19.11 1.25,19.36 1.03,19.56 0.82,19.75 0.56,19.87 0.29,19.99 0.00,20.01 -0.27,20.04 -0.55,19.97 -0.84,19.90 -1.08,19.75 -1.32,19.60 -1.51,19.37 -1.69,19.15 -1.79,18.88 -1.89,18.61 -1.89,18.61 -1.89,18.61 -2.16,16.72 -2.43,14.83 -2.35,12.67 -2.27,10.51 -2.06,8.42 -1.85,6.32 -1.95,3.16 -2.05,0 -2.02,-0.24 -1.99,-0.49 -1.91,-0.72 -1.82,-0.95 -1.68,-1.16 -1.54,-1.36 -1.35,-1.52 -1.16,-1.69 -0.94,-1.80 -0.72,-1.92 -0.48,-1.98 -0.24,-2.04 0.00,-2.04 0.24,-2.04 0.48,-1.98 0.73,-1.92 0.94,-1.80 1.16,-1.69 1.35,-1.52 1.54,-1.36 1.68,-1.16 1.82,-0.95 1.91,-0.72 1.99,-0.49 2.02,-0.24 2.05,0.00 2.05,0.00 L 2.05,0 Z"></path></g><g transform="translate(777 540.6875) rotate(0 9.5 -0.5)" stroke="none"><path fill="#000000" d="M -0.89,-2.08 Q -0.89,-2.08 1.16,-2.83 3.22,-3.58 5.57,-4.44 7.91,-5.30 9.43,-6.00 10.95,-6.70 12.66,-7.10 14.38,-7.49 15.58,-7.65 16.79,-7.80 18.10,-7.16 19.41,-6.52 20.05,-5.58 20.70,-4.64 20.66,-2.67 20.63,-0.70 19.86,1.08 19.10,2.87 16.88,4.87 14.65,6.87 14.28,7.01 13.91,7.16 13.51,7.18 13.12,7.20 12.73,7.09 12.35,6.98 12.02,6.75 11.70,6.52 11.46,6.21 11.22,5.89 11.10,5.51 10.97,5.13 10.98,4.73 10.98,4.34 11.11,3.96 11.24,3.59 11.48,3.27 11.73,2.96 12.06,2.74 12.39,2.52 12.77,2.41 13.16,2.31 13.55,2.33 13.95,2.36 14.32,2.51 14.69,2.66 14.99,2.92 15.29,3.18 15.49,3.52 15.69,3.86 15.78,4.25 15.86,4.64 15.81,5.04 15.76,5.43 15.59,5.79 15.42,6.15 15.15,6.44 14.87,6.72 14.52,6.91 14.17,7.09 13.77,7.15 13.38,7.21 12.99,7.14 12.60,7.08 12.25,6.89 11.90,6.70 11.63,6.41 11.36,6.12 11.19,5.75 11.03,5.39 10.99,5.00 10.95,4.60 11.04,4.21 11.13,3.83 11.34,3.49 11.54,3.15 11.85,2.89 12.15,2.64 12.15,2.64 12.15,2.64 13.48,1.75 14.80,0.85 15.32,-0.24 15.85,-1.33 15.48,-2.48 15.12,-3.63 13.79,-3.44 12.46,-3.26 10.88,-2.58 9.30,-1.91 7.06,-0.89 4.82,0.13 2.85,1.10 0.89,2.08 0.63,2.16 0.36,2.24 0.09,2.25 -0.17,2.26 -0.44,2.21 -0.71,2.15 -0.96,2.03 -1.20,1.92 -1.42,1.74 -1.63,1.57 -1.79,1.35 -1.96,1.13 -2.07,0.88 -2.18,0.63 -2.22,0.36 -2.26,0.09 -2.24,-0.17 -2.22,-0.44 -2.14,-0.70 -2.05,-0.96 -1.90,-1.20 -1.76,-1.43 -1.56,-1.62 -1.36,-1.81 -1.13,-1.95 -0.89,-2.08 -0.89,-2.08 L -0.89,-2.08 Z"></path></g><g transform="translate(844 612.6875) rotate(0 -1.5 16)" stroke="none"><path fill="#1864ab" d="M 2.02,0 Q 2.02,0 1.93,2.30 1.83,4.60 1.47,8.51 1.11,12.43 0.35,16.44 -0.40,20.45 -0.72,23.22 -1.05,25.98 -1.18,28.75 -1.30,31.51 -1.36,31.78 -1.42,32.04 -1.56,32.27 -1.70,32.50 -1.91,32.67 -2.11,32.84 -2.36,32.94 -2.61,33.04 -2.88,33.05 -3.15,33.07 -3.41,32.99 -3.66,32.92 -3.89,32.77 -4.11,32.62 -4.27,32.40 -4.43,32.19 -4.52,31.93 -4.60,31.68 -4.60,31.41 -4.60,31.14 -4.51,30.89 -4.42,30.63 -4.26,30.42 -4.10,30.21 -3.87,30.06 -3.65,29.91 -3.39,29.84 -3.13,29.77 -2.87,29.78 -2.60,29.80 -2.35,29.90 -2.10,30.00 -1.90,30.17 -1.69,30.35 -1.55,30.58 -1.42,30.81 -1.36,31.07 -1.30,31.33 -1.33,31.60 -1.36,31.87 -1.48,32.11 -1.59,32.35 -1.78,32.55 -1.96,32.74 -2.20,32.87 -2.44,32.99 -2.70,33.03 -2.97,33.08 -3.23,33.03 -3.50,32.99 -3.73,32.86 -3.97,32.73 -4.16,32.54 -4.34,32.34 -4.45,32.10 -4.56,31.85 -4.59,31.59 -4.62,31.32 -4.62,31.32 -4.62,31.32 -4.34,28.49 -4.06,25.66 -3.80,22.78 -3.53,19.90 -2.90,16.04 -2.26,12.17 -2.05,8.38 -1.83,4.59 -1.93,2.29 -2.02,0 -1.99,-0.24 -1.96,-0.48 -1.88,-0.71 -1.79,-0.94 -1.65,-1.14 -1.51,-1.34 -1.33,-1.50 -1.15,-1.66 -0.93,-1.78 -0.71,-1.89 -0.48,-1.95 -0.24,-2.01 0.00,-2.01 0.24,-2.01 0.48,-1.95 0.71,-1.89 0.93,-1.78 1.15,-1.66 1.33,-1.50 1.51,-1.34 1.65,-1.14 1.79,-0.94 1.88,-0.71 1.96,-0.48 1.99,-0.24 2.02,0.00 2.02,0.00 L 2.02,0 Z"></path></g><g transform="translate(844 662.6875) rotate(0 5.5 14.5)" stroke="none"><path fill="#1864ab" d="M 0.40,-2.44 Q 0.40,-2.44 2.23,-2.05 4.05,-1.65 5.44,-0.47 6.84,0.70 7.10,2.87 7.36,5.03 6.67,6.52 5.98,8.01 4.93,9.13 3.88,10.25 3.65,10.48 3.42,10.71 3.14,10.88 2.86,11.05 2.55,11.15 2.24,11.24 1.91,11.26 1.58,11.28 1.26,11.22 0.94,11.16 0.64,11.03 0.34,10.89 0.09,10.69 -0.16,10.49 -0.36,10.23 -0.56,9.97 -0.70,9.67 -0.83,9.38 -0.89,9.05 -0.95,8.73 -0.93,8.41 -0.91,8.08 -0.81,7.77 -0.71,7.46 -0.54,7.18 -0.37,6.90 1.79,6.52 3.97,6.14 5.62,6.54 7.27,6.95 8.93,7.68 10.59,8.41 11.62,10.39 12.65,12.36 12.32,14.44 12.00,16.51 10.46,19.31 8.92,22.12 7.35,24.41 5.78,26.71 4.54,28.58 3.30,30.45 3.06,30.70 2.81,30.95 2.50,31.10 2.19,31.26 1.85,31.31 1.51,31.35 1.16,31.29 0.82,31.23 0.52,31.06 0.22,30.89 -0.01,30.63 -0.24,30.37 -0.38,30.06 -0.52,29.74 -0.55,29.39 -0.58,29.05 -0.49,28.71 -0.41,28.37 -0.23,28.08 -0.04,27.78 0.22,27.57 0.49,27.35 0.81,27.23 1.14,27.11 1.49,27.09 1.83,27.08 2.17,27.18 2.50,27.28 2.78,27.49 3.06,27.69 3.27,27.97 3.47,28.25 3.57,28.58 3.68,28.91 3.67,29.26 3.66,29.60 3.54,29.93 3.43,30.26 3.21,30.53 2.99,30.80 2.70,30.99 2.41,31.18 2.07,31.26 1.74,31.35 1.39,31.32 1.04,31.29 0.73,31.16 0.41,31.02 0.15,30.79 -0.10,30.56 -0.27,30.26 -0.45,29.96 -0.51,29.62 -0.58,29.28 -0.53,28.93 -0.49,28.59 -0.34,28.28 -0.18,27.97 -0.18,27.97 -0.18,27.97 1.10,26.28 2.40,24.59 3.65,22.36 4.91,20.13 6.35,16.90 7.79,13.68 6.97,12.86 6.15,12.04 5.02,11.15 3.88,10.25 3.65,10.48 3.42,10.71 3.14,10.88 2.86,11.05 2.55,11.15 2.24,11.24 1.91,11.26 1.58,11.28 1.26,11.22 0.94,11.16 0.64,11.03 0.34,10.89 0.09,10.69 -0.16,10.49 -0.36,10.23 -0.56,9.97 -0.70,9.67 -0.83,9.38 -0.89,9.05 -0.95,8.73 -0.93,8.41 -0.91,8.08 -0.81,7.77 -0.71,7.46 -0.54,7.18 -0.37,6.90 0.65,6.10 1.68,5.31 2.26,4.05 2.84,2.80 1.21,2.62 -0.40,2.44 -0.69,2.36 -0.98,2.27 -1.23,2.12 -1.49,1.97 -1.71,1.76 -1.92,1.56 -2.08,1.30 -2.24,1.05 -2.33,0.77 -2.43,0.48 -2.45,0.18 -2.47,-0.10 -2.42,-0.40 -2.37,-0.69 -2.26,-0.97 -2.14,-1.24 -1.96,-1.48 -1.78,-1.72 -1.54,-1.91 -1.31,-2.10 -1.04,-2.22 -0.77,-2.35 -0.48,-2.41 -0.18,-2.47 0.10,-2.45 0.40,-2.44 0.40,-2.44 L 0.40,-2.44 Z"></path></g><g transform="translate(913 602.6875) rotate(0 -3.5 22.5)" stroke="none"><path fill="#1864ab" d="M 1.83,0 Q 1.83,0 1.76,2.30 1.69,4.60 1.35,8.51 1.01,12.42 -0.01,18.43 -1.04,24.45 -2.07,29.58 -3.09,34.71 -4.00,39.09 -4.92,43.47 -5.02,43.72 -5.12,43.97 -5.30,44.17 -5.48,44.38 -5.71,44.52 -5.95,44.65 -6.21,44.71 -6.48,44.76 -6.75,44.73 -7.02,44.70 -7.26,44.58 -7.51,44.46 -7.70,44.27 -7.90,44.08 -8.02,43.84 -8.14,43.60 -8.19,43.33 -8.23,43.07 -8.18,42.80 -8.13,42.53 -8.00,42.29 -7.87,42.06 -7.67,41.87 -7.47,41.69 -7.22,41.58 -6.98,41.47 -6.71,41.44 -6.44,41.41 -6.17,41.48 -5.91,41.54 -5.68,41.68 -5.45,41.82 -5.27,42.03 -5.10,42.24 -5.00,42.49 -4.91,42.75 -4.90,43.02 -4.88,43.29 -4.96,43.55 -5.04,43.81 -5.19,44.03 -5.35,44.26 -5.57,44.42 -5.78,44.58 -6.04,44.66 -6.30,44.74 -6.57,44.74 -6.84,44.74 -7.10,44.65 -7.35,44.56 -7.57,44.39 -7.78,44.22 -7.93,44.00 -8.08,43.77 -8.15,43.51 -8.22,43.25 -8.20,42.98 -8.18,42.71 -8.18,42.71 -8.18,42.71 -7.07,38.43 -5.96,34.15 -5.00,29.05 -4.04,23.95 -3.10,18.07 -2.16,12.18 -1.93,8.39 -1.69,4.59 -1.76,2.29 -1.83,0 -1.81,-0.22 -1.78,-0.44 -1.70,-0.64 -1.62,-0.85 -1.50,-1.03 -1.37,-1.21 -1.21,-1.36 -1.04,-1.51 -0.84,-1.61 -0.65,-1.71 -0.43,-1.77 -0.22,-1.82 0.00,-1.82 0.22,-1.82 0.43,-1.77 0.65,-1.71 0.84,-1.61 1.04,-1.51 1.21,-1.36 1.37,-1.21 1.50,-1.03 1.62,-0.85 1.70,-0.64 1.78,-0.43 1.81,-0.21 1.83,0.00 1.83,0.00 L 1.83,0 Z"></path></g><g transform="translate(911 659.6875) rotate(0 3 18.5)" stroke="none"><path fill="#1864ab" d="M 1.44,0.82 Q 1.44,0.82 -0.89,4.82 -3.23,8.82 -4.79,11.91 -6.35,15.00 -6.98,17.34 -7.62,19.69 -8.18,21.62 -8.74,23.55 -8.60,24.98 -8.46,26.41 -8.54,26.60 -8.62,26.78 -8.74,26.94 -8.86,27.11 -9.02,27.23 -9.18,27.36 -9.36,27.44 -9.54,27.53 -9.74,27.57 -9.94,27.61 -10.14,27.60 -10.34,27.59 -10.53,27.53 -10.73,27.48 -10.90,27.37 -11.08,27.27 -11.22,27.13 -11.37,26.99 -11.47,26.82 -11.58,26.65 -11.64,26.46 -11.71,26.26 -11.72,26.06 -11.74,25.86 -11.70,25.66 -11.67,25.46 -8.94,24.71 -6.21,23.95 -4.08,23.04 -1.96,22.14 1.17,19.80 4.32,17.46 7.15,15.30 9.97,13.13 11.49,12.11 13.00,11.08 13.86,10.59 14.72,10.10 14.91,10.02 15.10,9.93 15.30,9.89 15.51,9.85 15.72,9.86 15.92,9.87 16.13,9.93 16.33,9.99 16.51,10.09 16.69,10.20 16.84,10.34 16.99,10.49 17.10,10.67 17.21,10.84 17.27,11.04 17.34,11.24 17.35,11.45 17.37,11.66 17.33,11.87 17.30,12.07 17.21,12.26 17.13,12.46 17.00,12.62 16.88,12.79 16.71,12.92 16.55,13.05 15.75,16.91 14.96,20.78 13.92,24.96 12.88,29.15 12.44,31.19 12.00,33.23 11.83,34.87 11.67,36.51 11.59,36.75 11.51,36.99 11.35,37.20 11.20,37.40 10.99,37.54 10.78,37.69 10.54,37.76 10.29,37.83 10.04,37.82 9.78,37.80 9.54,37.71 9.31,37.62 9.11,37.45 8.92,37.29 8.78,37.07 8.65,36.85 8.59,36.61 8.54,36.36 8.56,36.10 8.59,35.85 8.70,35.62 8.80,35.39 8.98,35.20 9.15,35.01 9.37,34.89 9.60,34.77 9.85,34.73 10.10,34.69 10.35,34.73 10.61,34.77 10.83,34.89 11.06,35.00 11.23,35.19 11.41,35.37 11.52,35.60 11.63,35.83 11.66,36.09 11.68,36.34 11.63,36.59 11.58,36.84 11.45,37.06 11.32,37.28 11.12,37.44 10.93,37.61 10.69,37.70 10.46,37.80 10.20,37.81 9.95,37.83 9.70,37.76 9.46,37.70 9.25,37.55 9.03,37.41 8.88,37.21 8.72,37.01 8.64,36.77 8.56,36.53 8.56,36.27 8.55,36.02 8.55,36.02 8.55,36.02 8.91,34.34 9.27,32.66 9.70,30.57 10.13,28.48 11.13,24.29 12.13,20.11 13.42,15.11 14.72,10.10 14.91,10.02 15.10,9.93 15.30,9.89 15.51,9.85 15.72,9.86 15.92,9.87 16.13,9.93 16.33,9.99 16.51,10.09 16.69,10.20 16.84,10.34 16.99,10.49 17.10,10.67 17.21,10.84 17.27,11.04 17.34,11.24 17.35,11.45 17.37,11.66 17.33,11.87 17.30,12.07 17.21,12.26 17.13,12.46 17.00,12.62 16.88,12.79 16.71,12.92 16.55,13.05 15.57,13.35 14.59,13.65 13.12,14.48 11.65,15.31 8.81,17.51 5.98,19.70 2.57,22.22 -0.83,24.75 -3.31,25.80 -5.79,26.84 -7.12,26.63 -8.46,26.41 -8.54,26.60 -8.62,26.78 -8.74,26.94 -8.86,27.11 -9.02,27.23 -9.18,27.36 -9.36,27.44 -9.54,27.53 -9.74,27.57 -9.94,27.61 -10.14,27.60 -10.34,27.59 -10.53,27.53 -10.73,27.48 -10.90,27.37 -11.08,27.27 -11.22,27.13 -11.37,26.99 -11.47,26.82 -11.58,26.65 -11.64,26.46 -11.71,26.26 -11.72,26.06 -11.74,25.86 -11.70,25.66 -11.67,25.46 -11.62,24.11 -11.57,22.76 -11.00,20.85 -10.42,18.95 -9.74,16.31 -9.05,13.68 -7.50,10.47 -5.96,7.27 -3.70,3.22 -1.44,-0.82 -1.32,-0.98 -1.20,-1.15 -1.05,-1.27 -0.89,-1.40 -0.71,-1.49 -0.53,-1.58 -0.33,-1.62 -0.14,-1.66 0.05,-1.65 0.26,-1.64 0.45,-1.59 0.64,-1.53 0.82,-1.43 0.99,-1.33 1.14,-1.19 1.28,-1.06 1.39,-0.89 1.50,-0.72 1.56,-0.53 1.63,-0.34 1.65,-0.14 1.66,0.05 1.63,0.25 1.60,0.45 1.52,0.64 1.44,0.82 1.44,0.82 L 1.44,0.82 Z"></path></g><g transform="translate(723 590.6875) rotate(0 -18.5 -7.5)" stroke="none"><path fill="#d9480f" d="M -2.48,-0.49 Q -2.48,-0.49 -2.18,-1.93 -1.89,-3.36 -2.30,-4.48 -2.71,-5.60 -3.82,-6.72 -4.92,-7.84 -6.47,-9.16 -8.02,-10.48 -9.12,-11.02 -10.21,-11.56 -11.36,-12.13 -12.51,-12.70 -13.58,-13.22 -14.65,-13.74 -16.09,-14.35 -17.53,-14.95 -19.46,-15.01 -21.39,-15.08 -23.48,-14.32 -25.56,-13.57 -26.91,-12.66 -28.26,-11.76 -29.76,-10.58 -31.27,-9.40 -32.04,-7.98 -32.82,-6.57 -33.46,-5.26 -34.11,-3.95 -34.63,-2.81 -35.16,-1.67 -35.37,0.56 -35.58,2.79 -35.67,3.17 -35.76,3.55 -35.96,3.88 -36.17,4.21 -36.47,4.45 -36.77,4.70 -37.13,4.83 -37.50,4.97 -37.89,4.98 -38.27,5.00 -38.65,4.89 -39.02,4.77 -39.33,4.55 -39.65,4.33 -39.88,4.01 -40.11,3.70 -40.22,3.33 -40.34,2.96 -40.33,2.57 -40.33,2.18 -40.19,1.82 -40.06,1.45 -39.82,1.15 -39.58,0.84 -39.26,0.63 -38.93,0.42 -38.56,0.33 -38.18,0.23 -37.79,0.26 -37.41,0.29 -37.05,0.44 -36.69,0.59 -36.40,0.84 -36.11,1.10 -35.92,1.44 -35.72,1.77 -35.65,2.15 -35.57,2.54 -35.62,2.92 -35.67,3.31 -35.84,3.65 -36.01,4.00 -36.28,4.28 -36.55,4.56 -36.90,4.73 -37.25,4.91 -37.63,4.96 -38.01,5.02 -38.40,4.95 -38.78,4.88 -39.12,4.69 -39.46,4.50 -39.72,4.21 -39.98,3.92 -40.13,3.57 -40.29,3.21 -40.32,2.83 -40.36,2.44 -40.36,2.44 -40.36,2.44 -40.13,0.67 -39.90,-1.08 -39.51,-2.37 -39.12,-3.66 -38.49,-4.79 -37.86,-5.91 -37.14,-7.21 -36.41,-8.52 -35.32,-10.56 -34.23,-12.59 -32.70,-14.12 -31.16,-15.64 -29.42,-17.04 -27.68,-18.44 -25.88,-19.29 -24.08,-20.14 -22.61,-20.42 -21.13,-20.71 -19.86,-20.63 -18.59,-20.55 -16.64,-20.23 -14.68,-19.91 -13.44,-19.30 -12.21,-18.69 -11.15,-18.16 -10.09,-17.63 -8.96,-17.07 -7.82,-16.52 -6.23,-15.77 -4.65,-15.02 -2.72,-13.40 -0.80,-11.78 0.00,-10.92 0.82,-10.05 1.85,-8.48 2.87,-6.92 2.95,-4.65 3.04,-2.38 2.76,-0.94 2.48,0.49 2.39,0.78 2.29,1.07 2.13,1.33 1.97,1.59 1.75,1.80 1.53,2.02 1.26,2.17 1.00,2.32 0.70,2.41 0.41,2.50 0.11,2.51 -0.19,2.52 -0.49,2.46 -0.79,2.40 -1.07,2.27 -1.34,2.14 -1.58,1.95 -1.82,1.76 -2.00,1.52 -2.19,1.27 -2.31,0.99 -2.43,0.71 -2.48,0.41 -2.53,0.11 -2.51,-0.19 -2.48,-0.49 -2.48,-0.49 L -2.48,-0.49 Z"></path></g><g transform="translate(673 574.6875) rotate(0 12.5 14.5)" stroke="none"><path fill="#d9480f" d="M 2.32,0.46 Q 2.32,0.46 2.04,1.90 1.75,3.34 1.32,5.80 0.88,8.26 0.01,10.21 -0.84,12.16 -1.10,13.58 -1.36,15.00 -1.78,16.42 -2.20,17.84 -2.31,19.60 -2.41,21.35 -2.44,22.69 -2.46,24.02 -2.45,25.13 -2.44,26.25 -1.06,25.79 0.30,25.32 3.12,24.45 5.95,23.58 8.33,22.67 10.71,21.77 13.53,20.82 16.34,19.86 18.63,18.93 20.93,18.00 22.45,17.25 23.98,16.50 26.45,15.43 28.92,14.36 29.22,14.34 29.52,14.31 29.81,14.38 30.10,14.45 30.35,14.61 30.60,14.77 30.79,15.00 30.98,15.23 31.09,15.51 31.19,15.79 31.20,16.09 31.21,16.39 31.13,16.68 31.04,16.96 30.87,17.21 30.70,17.45 30.45,17.63 30.21,17.80 29.93,17.89 29.64,17.98 29.34,17.98 29.04,17.97 28.76,17.87 28.48,17.77 28.25,17.58 28.01,17.40 27.85,17.15 27.69,16.90 27.61,16.61 27.54,16.32 27.56,16.02 27.58,15.72 27.70,15.44 27.82,15.17 28.01,14.94 28.21,14.72 28.47,14.57 28.73,14.42 29.02,14.36 29.32,14.31 29.61,14.34 29.91,14.38 30.18,14.51 30.45,14.64 30.66,14.85 30.87,15.06 31.01,15.33 31.14,15.60 31.19,15.89 31.23,16.19 31.17,16.48 31.12,16.78 30.97,17.04 30.83,17.30 30.61,17.50 30.39,17.70 30.11,17.82 29.84,17.94 29.84,17.94 29.84,17.94 27.62,18.77 25.40,19.60 23.81,20.28 22.21,20.96 19.87,22.04 17.53,23.11 14.86,24.17 12.18,25.24 9.77,26.37 7.35,27.51 4.29,28.73 1.23,29.95 -1.63,30.38 -4.50,30.81 -5.64,29.86 -6.78,28.90 -7.15,27.60 -7.51,26.31 -7.48,25.10 -7.44,23.90 -7.40,22.47 -7.35,21.05 -6.96,18.73 -6.56,16.41 -6.14,15.29 -5.73,14.18 -5.37,12.34 -5.02,10.51 -4.45,8.85 -3.87,7.20 -3.39,4.80 -2.90,2.40 -2.61,0.97 -2.32,-0.46 -2.23,-0.73 -2.14,-1.00 -1.99,-1.24 -1.84,-1.49 -1.63,-1.68 -1.43,-1.88 -1.18,-2.03 -0.93,-2.17 -0.66,-2.25 -0.38,-2.33 -0.10,-2.34 0.18,-2.36 0.46,-2.30 0.74,-2.24 0.99,-2.12 1.25,-2.00 1.47,-1.82 1.70,-1.64 1.87,-1.41 2.04,-1.19 2.15,-0.93 2.27,-0.66 2.31,-0.38 2.36,-0.10 2.34,0.18 2.32,0.46 2.32,0.46 L 2.32,0.46 Z"></path></g><g transform="translate(675 538.6875) rotate(0 0.00005000000000165983 0.00004999999999988347)" stroke="none"><path fill="#d9480f" d="M 1.57,-1.57 Q 1.57,-1.57 1.77,-1.27 1.98,-0.98 2.09,-0.64 2.20,-0.29 2.19,0.05 2.18,0.41 2.05,0.75 1.93,1.09 1.70,1.37 1.48,1.65 1.18,1.84 0.87,2.04 0.52,2.12 0.18,2.21 -0.17,2.18 -0.53,2.15 -0.86,2.01 -1.19,1.87 -1.46,1.63 -1.73,1.39 -1.90,1.07 -2.08,0.76 -2.15,0.41 -2.21,0.05 -2.17,-0.29 -2.12,-0.65 -1.96,-0.97 -1.80,-1.29 -1.54,-1.54 -1.29,-1.80 -0.97,-1.96 -0.65,-2.12 -0.29,-2.17 0.06,-2.21 0.41,-2.15 0.76,-2.08 1.07,-1.90 1.39,-1.73 1.63,-1.46 1.87,-1.19 2.01,-0.86 2.15,-0.53 2.18,-0.17 2.21,0.18 2.12,0.52 2.03,0.87 1.84,1.18 1.65,1.48 1.37,1.70 1.09,1.93 0.75,2.05 0.41,2.18 0.05,2.19 -0.30,2.20 -0.64,2.09 -0.98,1.98 -1.27,1.77 -1.57,1.56 -1.57,1.57 -1.57,1.57 -1.73,1.35 -1.90,1.14 -2.01,0.90 -2.12,0.66 -2.16,0.39 -2.21,0.13 -2.20,-0.13 -2.18,-0.40 -2.10,-0.65 -2.02,-0.91 -1.88,-1.14 -1.74,-1.36 -1.55,-1.55 -1.36,-1.74 -1.14,-1.88 -0.91,-2.02 -0.65,-2.10 -0.40,-2.18 -0.13,-2.20 0.13,-2.21 0.39,-2.16 0.66,-2.12 0.90,-2.01 1.14,-1.90 1.35,-1.73 1.57,-1.57 1.57,-1.57 L 1.57,-1.57 Z"></path></g><g transform="translate(672 541.6875) rotate(0 6.5 6)" stroke="none"><path fill="#d9480f" d="M -1.81,-1.44 Q -1.81,-1.44 -0.61,-2.85 0.57,-4.25 1.67,-5.48 2.77,-6.71 3.59,-8.17 4.41,-9.63 5.57,-10.26 6.73,-10.90 7.93,-10.82 9.13,-10.74 11.10,-8.97 13.08,-7.19 13.70,-4.54 14.32,-1.89 14.21,1.66 14.09,5.21 13.69,7.57 13.28,9.93 12.79,12.89 12.31,15.85 12.15,18.04 11.99,20.24 11.91,20.53 11.82,20.83 11.65,21.08 11.48,21.33 11.23,21.52 10.99,21.70 10.69,21.80 10.40,21.90 10.10,21.89 9.79,21.89 9.50,21.79 9.21,21.69 8.97,21.51 8.72,21.32 8.55,21.06 8.38,20.81 8.30,20.51 8.22,20.22 8.24,19.91 8.26,19.61 8.37,19.32 8.49,19.04 8.69,18.80 8.89,18.57 9.15,18.41 9.41,18.26 9.71,18.19 10.01,18.13 10.32,18.16 10.62,18.20 10.90,18.33 11.18,18.46 11.40,18.67 11.62,18.88 11.76,19.15 11.91,19.43 11.95,19.73 12.00,20.03 11.95,20.33 11.90,20.64 11.75,20.91 11.61,21.18 11.39,21.39 11.16,21.60 10.88,21.72 10.60,21.85 10.30,21.88 9.99,21.92 9.69,21.85 9.39,21.78 9.13,21.62 8.87,21.46 8.67,21.23 8.48,20.99 8.36,20.71 8.25,20.42 8.24,20.11 8.22,19.81 8.22,19.81 8.22,19.81 8.56,17.59 8.91,15.37 9.25,12.40 9.59,9.44 9.78,7.31 9.97,5.18 9.90,2.24 9.83,-0.69 8.59,-3.17 7.35,-5.66 6.71,-4.72 6.07,-3.78 5.04,-2.64 4.02,-1.49 2.91,-0.02 1.81,1.44 1.61,1.64 1.41,1.84 1.17,1.98 0.93,2.12 0.66,2.20 0.39,2.28 0.11,2.30 -0.16,2.31 -0.43,2.26 -0.71,2.20 -0.96,2.09 -1.22,1.97 -1.43,1.79 -1.65,1.62 -1.82,1.40 -1.99,1.18 -2.11,0.92 -2.22,0.66 -2.27,0.39 -2.31,0.11 -2.29,-0.16 -2.27,-0.44 -2.19,-0.70 -2.10,-0.97 -1.95,-1.21 -1.81,-1.44 -1.81,-1.44 L -1.81,-1.44 Z"></path></g><g transform="translate(687 544.6875) rotate(0 12 0)" stroke="none"><path fill="#d9480f" d="M 0,-1.91 Q 0,-1.91 2.3,-1.83 4.6,-1.75 7.58,-1.69 10.57,-1.63 13.57,-1.59 16.57,-1.54 19.61,-1.65 22.65,-1.76 22.94,-1.72 23.22,-1.67 23.47,-1.54 23.72,-1.40 23.92,-1.20 24.12,-0.99 24.24,-0.73 24.36,-0.47 24.39,-0.18 24.42,0.09 24.36,0.37 24.30,0.65 24.15,0.90 24.00,1.14 23.78,1.33 23.57,1.51 23.30,1.62 23.03,1.72 22.75,1.74 22.46,1.75 22.19,1.68 21.91,1.60 21.67,1.44 21.44,1.28 21.26,1.05 21.09,0.82 21.00,0.55 20.91,0.28 20.91,-0.00 20.91,-0.28 21.00,-0.55 21.09,-0.82 21.26,-1.05 21.44,-1.28 21.67,-1.44 21.91,-1.60 22.19,-1.68 22.46,-1.75 22.75,-1.74 23.03,-1.72 23.30,-1.62 23.57,-1.51 23.78,-1.33 24.00,-1.14 24.15,-0.90 24.30,-0.65 24.36,-0.37 24.42,-0.09 24.39,0.18 24.36,0.47 24.24,0.73 24.12,0.99 23.92,1.20 23.72,1.40 23.47,1.54 23.22,1.67 22.94,1.72 22.65,1.76 22.65,1.76 22.65,1.76 19.61,1.65 16.57,1.54 13.57,1.59 10.57,1.63 7.58,1.69 4.6,1.75 2.3,1.83 0,1.91 -0.22,1.89 -0.45,1.86 -0.67,1.78 -0.89,1.69 -1.08,1.56 -1.27,1.43 -1.42,1.26 -1.57,1.09 -1.68,0.88 -1.79,0.68 -1.85,0.45 -1.90,0.23 -1.90,-0.00 -1.90,-0.23 -1.85,-0.45 -1.79,-0.68 -1.68,-0.88 -1.57,-1.09 -1.42,-1.26 -1.27,-1.43 -1.08,-1.56 -0.89,-1.69 -0.67,-1.78 -0.45,-1.86 -0.22,-1.89 0.00,-1.91 0.00,-1.91 L 0,-1.91 Z"></path></g><g transform="translate(718 529.6875) rotate(0 -1 11.5)" stroke="none"><path fill="#d9480f" d="M 1.98,0 Q 1.98,0 1.89,2.58 1.80,5.17 1.73,7.42 1.66,9.67 1.32,12.16 0.98,14.64 0.53,16.86 0.08,19.07 -0.07,20.77 -0.22,22.48 -0.31,22.73 -0.39,22.99 -0.55,23.21 -0.71,23.43 -0.93,23.59 -1.15,23.74 -1.41,23.82 -1.67,23.90 -1.94,23.89 -2.21,23.88 -2.47,23.79 -2.72,23.69 -2.93,23.52 -3.14,23.35 -3.29,23.12 -3.43,22.89 -3.50,22.62 -3.56,22.36 -3.54,22.09 -3.51,21.82 -3.40,21.57 -3.29,21.32 -3.11,21.12 -2.93,20.92 -2.69,20.79 -2.45,20.66 -2.19,20.61 -1.92,20.56 -1.65,20.60 -1.38,20.64 -1.14,20.76 -0.90,20.88 -0.71,21.07 -0.51,21.27 -0.40,21.51 -0.28,21.76 -0.24,22.02 -0.21,22.29 -0.26,22.56 -0.31,22.83 -0.45,23.06 -0.59,23.30 -0.79,23.48 -0.99,23.66 -1.24,23.76 -1.49,23.87 -1.76,23.89 -2.04,23.91 -2.30,23.84 -2.56,23.77 -2.79,23.62 -3.02,23.48 -3.18,23.26 -3.35,23.05 -3.44,22.79 -3.54,22.54 -3.54,22.27 -3.55,22.00 -3.55,22.00 -3.55,22.00 -3.21,20.25 -2.87,18.51 -2.50,16.39 -2.13,14.27 -1.90,11.97 -1.66,9.67 -1.73,7.42 -1.80,5.17 -1.89,2.58 -1.98,0 -1.95,-0.23 -1.92,-0.47 -1.83,-0.69 -1.75,-0.92 -1.61,-1.11 -1.48,-1.31 -1.30,-1.47 -1.12,-1.62 -0.91,-1.74 -0.70,-1.85 -0.47,-1.90 -0.23,-1.96 0.00,-1.96 0.23,-1.96 0.47,-1.90 0.70,-1.85 0.91,-1.74 1.12,-1.62 1.30,-1.47 1.48,-1.31 1.61,-1.11 1.75,-0.92 1.83,-0.69 1.92,-0.47 1.95,-0.23 1.98,0.00 1.98,0.00 L 1.98,0 Z"></path></g><g transform="translate(718 532.6875) rotate(0 6 2.5)" stroke="none"><path fill="#d9480f" d="M -0.98,-2.29 Q -0.98,-2.29 1.09,-3.01 3.17,-3.74 5.09,-4.14 7.01,-4.54 8.13,-4.77 9.25,-5.00 10.54,-4.74 11.84,-4.47 12.74,-3.48 13.65,-2.49 13.71,-0.79 13.76,0.90 13.33,2.00 12.90,3.10 11.82,4.95 10.73,6.81 9.42,7.53 8.11,8.26 7.98,7.92 7.85,7.58 7.80,8.04 7.75,8.50 7.56,8.92 7.36,9.35 7.04,9.68 6.72,10.02 6.31,10.24 5.90,10.46 5.44,10.53 4.98,10.61 4.52,10.53 4.06,10.46 3.65,10.24 3.24,10.02 2.92,9.69 2.60,9.35 2.40,8.93 2.21,8.50 2.16,8.04 2.11,7.58 2.21,7.12 2.31,6.67 2.55,6.27 2.79,5.87 3.14,5.57 3.50,5.27 3.93,5.09 4.36,4.92 4.83,4.90 5.29,4.87 5.74,5.00 6.19,5.12 6.57,5.38 6.96,5.64 7.24,6.01 7.52,6.38 7.67,6.82 7.82,7.27 7.82,7.73 7.82,8.20 7.67,8.64 7.52,9.08 7.24,9.45 6.96,9.82 6.57,10.08 6.19,10.34 5.74,10.47 5.29,10.59 4.83,10.57 4.36,10.54 3.93,10.37 3.50,10.20 3.14,9.90 2.79,9.60 2.55,9.20 2.31,8.80 2.21,8.34 2.11,7.89 2.11,7.89 2.11,7.89 4.66,5.18 7.21,2.48 8.62,1.15 10.03,-0.17 8.96,-0.27 7.90,-0.36 6.39,-0.03 4.87,0.29 2.93,1.29 0.98,2.29 0.69,2.37 0.40,2.46 0.10,2.47 -0.19,2.48 -0.49,2.42 -0.78,2.36 -1.05,2.24 -1.32,2.11 -1.56,1.92 -1.79,1.73 -1.97,1.49 -2.15,1.25 -2.27,0.97 -2.39,0.69 -2.44,0.40 -2.49,0.10 -2.46,-0.19 -2.44,-0.49 -2.35,-0.77 -2.25,-1.06 -2.09,-1.31 -1.93,-1.57 -1.71,-1.78 -1.50,-1.99 -1.24,-2.14 -0.98,-2.29 -0.98,-2.29 L -0.98,-2.29 Z"></path></g><g transform="translate(1007 595.6875) rotate(0 -3.5 20)" stroke="none"><path fill="#1864ab" d="M 1.58,0.98 Q 1.58,0.98 0.08,3.23 -1.40,5.48 -2.25,8.80 -3.11,12.12 -3.81,15.04 -4.51,17.97 -4.81,21.69 -5.11,25.42 -5.25,28.47 -5.39,31.51 -5.46,33.66 -5.52,35.81 -5.07,37.36 -4.62,38.90 -4.60,39.15 -4.59,39.41 -4.66,39.65 -4.73,39.90 -4.87,40.11 -5.01,40.32 -5.22,40.48 -5.42,40.63 -5.66,40.72 -5.91,40.80 -6.16,40.80 -6.42,40.80 -6.66,40.72 -6.90,40.63 -7.11,40.48 -7.31,40.32 -7.45,40.11 -7.60,39.90 -7.67,39.65 -7.73,39.41 -7.72,39.15 -7.71,38.89 -7.61,38.66 -7.52,38.42 -7.35,38.22 -7.19,38.03 -6.97,37.90 -6.75,37.77 -6.50,37.71 -6.25,37.66 -5.99,37.68 -5.74,37.71 -5.51,37.82 -5.27,37.93 -5.09,38.10 -4.90,38.28 -4.78,38.50 -4.66,38.73 -4.62,38.98 -4.58,39.24 -4.62,39.49 -4.66,39.74 -4.78,39.97 -4.90,40.19 -5.09,40.37 -5.27,40.55 -5.51,40.65 -5.74,40.76 -5.99,40.79 -6.25,40.82 -6.50,40.76 -6.75,40.71 -6.97,40.57 -7.19,40.44 -7.35,40.25 -7.52,40.05 -7.61,39.81 -7.71,39.57 -7.71,39.58 -7.71,39.58 -8.01,37.67 -8.31,35.77 -8.28,33.58 -8.24,31.40 -8.14,28.30 -8.04,25.21 -7.77,21.25 -7.50,17.29 -6.86,14.31 -6.23,11.33 -5.28,7.52 -4.34,3.71 -2.96,1.36 -1.58,-0.98 -1.44,-1.16 -1.30,-1.33 -1.12,-1.47 -0.94,-1.61 -0.73,-1.70 -0.52,-1.79 -0.30,-1.82 -0.08,-1.86 0.13,-1.84 0.36,-1.83 0.57,-1.76 0.79,-1.69 0.98,-1.57 1.17,-1.45 1.33,-1.29 1.48,-1.12 1.60,-0.93 1.71,-0.74 1.77,-0.52 1.84,-0.30 1.85,-0.08 1.86,0.14 1.81,0.36 1.77,0.58 1.67,0.78 1.58,0.98 1.58,0.98 L 1.58,0.98 Z"></path></g><g transform="translate(990 673.6875) rotate(0 20.5 -1.5)" stroke="none"><path fill="#1864ab" d="M -1.69,-1.40 Q -1.69,-1.40 -0.16,-3.05 1.36,-4.70 2.57,-6.04 3.79,-7.38 5.53,-9.05 7.27,-10.72 8.88,-12.26 10.50,-13.81 11.40,-14.84 12.30,-15.87 13.30,-16.53 14.30,-17.18 15.56,-17.15 16.81,-17.12 17.89,-16.24 18.97,-15.36 19.69,-13.61 20.40,-11.87 20.69,-10.19 20.97,-8.51 21.34,-7.49 21.72,-6.48 21.90,-4.58 22.08,-2.68 22.42,-1.61 22.76,-0.54 23.67,-1.29 24.58,-2.05 25.15,-2.98 25.73,-3.90 26.22,-5.01 26.72,-6.13 27.28,-7.32 27.84,-8.52 28.63,-9.42 29.41,-10.33 32.07,-10.10 34.72,-9.87 35.62,-8.05 36.51,-6.22 37.00,-3.60 37.50,-0.98 38.16,1.70 38.82,4.38 39.17,6.19 39.52,8.01 40.82,9.53 42.11,11.05 42.33,11.33 42.55,11.61 42.66,11.94 42.78,12.28 42.78,12.63 42.78,12.98 42.67,13.32 42.56,13.66 42.35,13.94 42.13,14.22 41.84,14.42 41.55,14.62 41.21,14.72 40.87,14.82 40.52,14.80 40.17,14.78 39.84,14.65 39.51,14.53 39.24,14.30 38.97,14.07 38.78,13.77 38.60,13.47 38.52,13.12 38.44,12.78 38.48,12.43 38.51,12.08 38.66,11.75 38.80,11.43 39.05,11.17 39.29,10.91 39.60,10.75 39.91,10.58 40.26,10.52 40.61,10.46 40.96,10.52 41.31,10.57 41.62,10.73 41.93,10.90 42.18,11.15 42.42,11.41 42.57,11.73 42.72,12.05 42.76,12.40 42.80,12.75 42.73,13.10 42.66,13.44 42.48,13.75 42.30,14.05 42.03,14.28 41.76,14.51 41.43,14.64 41.10,14.78 40.75,14.80 40.40,14.82 40.06,14.73 39.72,14.63 39.42,14.44 39.13,14.24 39.13,14.24 39.13,14.24 37.29,11.56 35.44,8.89 35.10,7.25 34.75,5.61 33.78,2.89 32.81,0.17 32.16,-1.80 31.51,-3.79 30.64,-5.65 29.78,-7.51 31.18,-6.82 32.58,-6.13 32.08,-5.06 31.58,-4.00 30.92,-2.50 30.27,-1.00 29.50,0.16 28.73,1.33 27.60,2.68 26.48,4.03 25.05,4.81 23.62,5.59 22.38,5.31 21.14,5.04 20.15,3.98 19.15,2.93 18.66,1.84 18.18,0.75 17.81,-0.73 17.44,-2.21 17.29,-3.63 17.15,-5.05 16.76,-6.43 16.37,-7.81 16.22,-9.06 16.06,-10.31 15.47,-11.79 14.88,-13.27 13.87,-12.38 12.86,-11.48 11.35,-9.86 9.83,-8.23 8.26,-6.49 6.69,-4.75 5.54,-3.47 4.38,-2.19 3.03,-0.39 1.69,1.40 1.49,1.59 1.30,1.77 1.07,1.90 0.84,2.03 0.58,2.10 0.33,2.17 0.06,2.18 -0.19,2.19 -0.45,2.13 -0.71,2.07 -0.95,1.96 -1.19,1.84 -1.39,1.67 -1.60,1.50 -1.75,1.29 -1.91,1.08 -2.01,0.83 -2.11,0.59 -2.15,0.32 -2.19,0.06 -2.17,-0.19 -2.15,-0.46 -2.06,-0.71 -1.97,-0.96 -1.83,-1.18 -1.69,-1.40 -1.69,-1.40 L -1.69,-1.40 Z"></path></g><g transform="translate(1043 679.6875) rotate(0 6.5 -0.5)" stroke="none"><path fill="#1864ab" d="M -0.45,-2.27 Q -0.45,-2.27 0.98,-2.56 2.41,-2.86 4.33,-2.96 6.24,-3.06 9.62,-2.74 13.00,-2.43 13.35,-2.27 13.69,-2.11 13.97,-1.85 14.25,-1.59 14.43,-1.26 14.61,-0.92 14.67,-0.55 14.73,-0.17 14.67,0.19 14.61,0.57 14.44,0.91 14.26,1.24 13.99,1.50 13.71,1.77 13.37,1.93 13.02,2.09 12.64,2.13 12.27,2.17 11.90,2.09 11.52,2.01 11.20,1.82 10.87,1.63 10.62,1.34 10.38,1.05 10.23,0.70 10.09,0.34 10.07,-0.03 10.05,-0.41 10.15,-0.77 10.25,-1.14 10.46,-1.45 10.67,-1.77 10.97,-2.00 11.28,-2.23 11.63,-2.36 11.99,-2.48 12.37,-2.48 12.75,-2.48 13.12,-2.36 13.48,-2.24 13.78,-2.01 14.08,-1.78 14.30,-1.47 14.51,-1.16 14.62,-0.79 14.72,-0.43 14.70,-0.05 14.68,0.32 14.54,0.68 14.40,1.03 14.16,1.32 13.91,1.61 13.59,1.81 13.26,2.01 12.89,2.09 12.52,2.17 12.14,2.13 11.76,2.09 11.77,2.09 11.77,2.09 9.16,1.76 6.55,1.42 4.94,1.57 3.33,1.71 1.89,1.99 0.45,2.27 0.17,2.29 -0.10,2.31 -0.37,2.26 -0.65,2.22 -0.91,2.11 -1.16,2.00 -1.38,1.83 -1.61,1.66 -1.78,1.44 -1.96,1.23 -2.08,0.97 -2.20,0.72 -2.25,0.45 -2.31,0.17 -2.29,-0.10 -2.28,-0.38 -2.20,-0.64 -2.12,-0.91 -1.98,-1.15 -1.84,-1.39 -1.65,-1.60 -1.45,-1.80 -1.22,-1.94 -0.98,-2.09 -0.71,-2.18 -0.45,-2.27 -0.45,-2.27 L -0.45,-2.27 Z"></path></g><g transform="translate(1072 680.6875) rotate(0 4 0)" stroke="none"><path fill="#1864ab" d="M -1.89,-1.26 Q -1.89,-1.26 -0.65,-2.92 0.59,-4.58 1.34,-5.91 2.09,-7.23 2.26,-7.43 2.42,-7.62 2.63,-7.77 2.84,-7.91 3.07,-8.01 3.31,-8.10 3.56,-8.14 3.81,-8.17 4.07,-8.15 4.32,-8.12 4.56,-8.03 4.80,-7.95 5.01,-7.80 5.22,-7.66 5.39,-7.48 5.57,-7.29 5.69,-7.06 5.81,-6.84 5.87,-6.60 5.94,-6.35 5.94,-6.09 5.95,-5.84 5.89,-5.59 5.83,-5.34 5.72,-5.12 5.60,-4.89 6.23,-3.71 6.86,-2.54 7.20,-1.01 7.54,0.51 7.96,1.90 8.38,3.28 9.02,4.92 9.66,6.57 9.77,6.89 9.88,7.22 9.88,7.57 9.88,7.91 9.77,8.24 9.66,8.57 9.45,8.84 9.24,9.12 8.96,9.31 8.67,9.51 8.34,9.60 8.00,9.69 7.66,9.68 7.31,9.66 6.99,9.53 6.67,9.40 6.41,9.18 6.14,8.96 5.96,8.66 5.78,8.36 5.71,8.03 5.64,7.69 5.67,7.35 5.71,7.00 5.85,6.69 6.00,6.37 6.24,6.12 6.47,5.87 6.78,5.71 7.08,5.55 7.43,5.49 7.77,5.43 8.11,5.49 8.45,5.54 8.75,5.71 9.06,5.87 9.30,6.12 9.54,6.37 9.68,6.68 9.83,7.00 9.87,7.34 9.90,7.68 9.83,8.02 9.76,8.36 9.58,8.66 9.40,8.95 9.14,9.18 8.87,9.40 8.55,9.53 8.23,9.66 7.89,9.68 7.54,9.70 7.21,9.60 6.87,9.51 6.59,9.32 6.30,9.12 6.09,8.85 5.88,8.57 5.88,8.57 5.88,8.57 5.16,6.46 4.43,4.35 4.05,2.79 3.67,1.22 3.49,-0.11 3.30,-1.46 2.70,-4.35 2.09,-7.23 2.26,-7.43 2.42,-7.62 2.63,-7.77 2.84,-7.91 3.07,-8.01 3.31,-8.10 3.56,-8.14 3.81,-8.17 4.07,-8.15 4.32,-8.12 4.56,-8.03 4.80,-7.95 5.01,-7.80 5.22,-7.66 5.39,-7.48 5.57,-7.29 5.69,-7.07 5.81,-6.84 5.87,-6.60 5.94,-6.35 5.94,-6.10 5.95,-5.84 5.89,-5.59 5.83,-5.34 5.72,-5.12 5.60,-4.89 4.80,-3.60 4.00,-2.31 2.95,-0.52 1.89,1.26 1.71,1.47 1.53,1.68 1.31,1.84 1.09,2.00 0.83,2.10 0.58,2.20 0.30,2.24 0.03,2.27 -0.23,2.24 -0.50,2.22 -0.76,2.12 -1.02,2.03 -1.25,1.88 -1.48,1.72 -1.66,1.52 -1.85,1.32 -1.98,1.08 -2.11,0.84 -2.18,0.57 -2.25,0.31 -2.26,0.03 -2.26,-0.23 -2.20,-0.50 -2.14,-0.77 -2.01,-1.01 -1.89,-1.26 -1.89,-1.26 L -1.89,-1.26 Z"></path></g><g transform="translate(1040 606.6875) rotate(0 0 10.5)" stroke="none"><path fill="#1864ab" d="M 2.30,0 Q 2.30,0 2.26,1.72 2.23,3.44 2.27,4.75 2.31,6.06 2.28,7.77 2.25,9.47 2.12,11.64 2.00,13.80 2.04,15.29 2.07,16.79 2.12,18.68 2.16,20.57 2.10,20.91 2.05,21.26 1.88,21.57 1.72,21.88 1.46,22.12 1.21,22.36 0.89,22.51 0.57,22.65 0.23,22.69 -0.11,22.73 -0.45,22.65 -0.80,22.58 -1.10,22.40 -1.40,22.22 -1.62,21.95 -1.85,21.68 -1.98,21.36 -2.11,21.03 -2.13,20.68 -2.15,20.33 -2.05,20.00 -1.96,19.66 -1.76,19.37 -1.57,19.08 -1.29,18.87 -1.01,18.66 -0.68,18.54 -0.34,18.43 0.00,18.43 0.35,18.43 0.68,18.55 1.01,18.66 1.29,18.87 1.57,19.08 1.76,19.37 1.96,19.66 2.05,20.00 2.15,20.33 2.13,20.68 2.11,21.03 1.98,21.36 1.85,21.68 1.62,21.95 1.40,22.22 1.10,22.40 0.80,22.58 0.45,22.65 0.11,22.73 -0.23,22.69 -0.57,22.65 -0.89,22.51 -1.21,22.36 -1.46,22.12 -1.72,21.88 -1.88,21.57 -2.05,21.26 -2.10,20.91 -2.16,20.57 -2.16,20.57 -2.16,20.57 -2.12,18.68 -2.07,16.79 -2.04,15.29 -2.00,13.80 -2.12,11.64 -2.25,9.47 -2.28,7.77 -2.31,6.06 -2.27,4.75 -2.23,3.44 -2.26,1.72 -2.30,0 -2.26,-0.27 -2.23,-0.55 -2.13,-0.80 -2.03,-1.06 -1.87,-1.29 -1.72,-1.52 -1.51,-1.70 -1.30,-1.89 -1.06,-2.02 -0.81,-2.15 -0.54,-2.21 -0.27,-2.28 0.00,-2.28 0.27,-2.28 0.54,-2.21 0.81,-2.15 1.06,-2.02 1.30,-1.89 1.51,-1.70 1.72,-1.52 1.87,-1.29 2.03,-1.06 2.13,-0.80 2.23,-0.55 2.26,-0.27 2.30,0.00 2.30,0.00 L 2.30,0 Z"></path></g><g transform="translate(1045 648.6875) rotate(0 31 -6)" stroke="none"><path fill="#1864ab" d="M -1.05,-1.85 Q -1.05,-1.85 1.00,-2.90 3.07,-3.96 4.72,-5.17 6.37,-6.38 8.00,-7.53 9.64,-8.69 11.43,-10.23 13.23,-11.77 14.98,-12.85 16.74,-13.94 18.04,-14.74 19.35,-15.54 20.58,-15.74 21.82,-15.93 22.96,-15.56 24.10,-15.18 25.12,-13.87 26.13,-12.56 26.74,-11.16 27.35,-9.76 27.88,-8.71 28.40,-7.65 29.09,-6.82 29.77,-6.00 30.59,-4.75 31.40,-3.49 29.85,-3.20 28.30,-2.91 29.69,-4.60 31.09,-6.29 32.15,-7.60 33.21,-8.91 35.08,-10.80 36.95,-12.69 39.11,-13.88 41.28,-15.08 42.84,-15.67 44.41,-16.26 45.75,-16.26 47.09,-16.26 48.80,-15.18 50.51,-14.10 52.02,-12.00 53.52,-9.89 54.91,-7.91 56.29,-5.93 57.25,-4.50 58.22,-3.08 59.34,-2.10 60.46,-1.11 61.68,-0.04 62.90,1.03 63.09,1.29 63.29,1.56 63.40,1.87 63.50,2.18 63.50,2.51 63.50,2.85 63.39,3.16 63.28,3.47 63.08,3.73 62.88,3.99 62.60,4.18 62.33,4.36 62.01,4.45 61.69,4.54 61.36,4.52 61.03,4.50 60.72,4.37 60.42,4.25 60.17,4.03 59.92,3.82 59.75,3.53 59.58,3.25 59.51,2.92 59.44,2.60 59.48,2.27 59.52,1.94 59.66,1.65 59.80,1.35 60.03,1.11 60.25,0.87 60.55,0.72 60.84,0.56 61.17,0.51 61.49,0.46 61.82,0.52 62.15,0.57 62.44,0.73 62.73,0.88 62.95,1.13 63.18,1.37 63.32,1.67 63.45,1.97 63.49,2.30 63.52,2.63 63.45,2.95 63.37,3.27 63.20,3.55 63.03,3.83 62.78,4.05 62.52,4.26 62.22,4.38 61.91,4.50 61.58,4.52 61.25,4.53 60.93,4.44 60.61,4.35 60.34,4.16 60.07,3.98 60.07,3.98 60.07,3.98 58.96,2.82 57.85,1.66 56.47,0.31 55.10,-1.02 54.25,-2.39 53.41,-3.75 51.89,-5.62 50.37,-7.49 49.11,-9.02 47.84,-10.55 46.70,-11.46 45.55,-12.37 44.39,-12.04 43.23,-11.71 41.68,-10.74 40.14,-9.77 38.69,-7.92 37.25,-6.06 35.92,-3.98 34.59,-1.90 33.45,-0.86 32.30,0.16 29.81,-0.05 27.31,-0.27 26.60,-1.68 25.88,-3.10 24.98,-4.37 24.08,-5.65 23.58,-6.83 23.09,-8.01 22.65,-9.17 22.21,-10.34 21.55,-11.35 20.88,-12.36 19.65,-11.75 18.41,-11.15 16.89,-10.26 15.36,-9.37 13.50,-7.64 11.64,-5.91 10.09,-4.76 8.54,-3.62 6.76,-2.13 4.97,-0.63 3.01,0.60 1.05,1.85 0.82,1.95 0.58,2.05 0.33,2.09 0.07,2.13 -0.17,2.10 -0.43,2.08 -0.67,2.00 -0.92,1.92 -1.13,1.78 -1.35,1.64 -1.53,1.45 -1.71,1.27 -1.83,1.04 -1.96,0.82 -2.03,0.57 -2.10,0.33 -2.11,0.07 -2.12,-0.18 -2.07,-0.43 -2.01,-0.68 -1.90,-0.91 -1.79,-1.14 -1.63,-1.34 -1.46,-1.54 -1.26,-1.69 -1.05,-1.85 -1.05,-1.85 L -1.05,-1.85 Z"></path></g><g transform="translate(1003 571.6875) rotate(0 14.5 2.5)" stroke="none"><path fill="#000000" d="M -1.25,-1.88 Q -1.25,-1.88 0.53,-2.94 2.31,-4.00 3.66,-4.83 5.00,-5.66 6.39,-6.15 7.77,-6.65 9.53,-6.56 11.29,-6.48 13.05,-5.75 14.81,-5.02 16.37,-4.10 17.93,-3.18 19.31,-2.59 20.68,-1.99 21.93,-1.45 23.18,-0.91 24.49,-0.42 25.80,0.06 27.25,1.01 28.70,1.97 29.56,3.23 30.43,4.49 30.94,6.84 31.46,9.19 31.43,9.60 31.41,10.01 31.25,10.39 31.10,10.77 30.83,11.08 30.57,11.39 30.21,11.60 29.86,11.81 29.46,11.89 29.06,11.98 28.66,11.93 28.25,11.89 27.88,11.71 27.51,11.54 27.21,11.26 26.92,10.97 26.73,10.61 26.54,10.25 26.47,9.84 26.41,9.44 26.48,9.04 26.55,8.63 26.74,8.27 26.93,7.91 27.23,7.63 27.53,7.35 27.90,7.18 28.28,7.01 28.68,6.97 29.09,6.93 29.49,7.02 29.89,7.11 30.24,7.32 30.59,7.53 30.85,7.85 31.11,8.16 31.26,8.54 31.41,8.92 31.43,9.33 31.45,9.74 31.34,10.13 31.23,10.53 31.00,10.87 30.77,11.20 30.44,11.45 30.11,11.69 29.72,11.82 29.33,11.95 28.92,11.95 28.52,11.95 28.13,11.81 27.74,11.68 27.42,11.43 27.09,11.18 26.87,10.84 26.64,10.50 26.53,10.11 26.42,9.71 26.42,9.71 26.42,9.71 26.14,7.69 25.87,5.66 24.99,5.02 24.12,4.37 22.68,3.81 21.24,3.24 20.08,2.66 18.91,2.08 17.31,1.38 15.71,0.68 14.33,-0.08 12.95,-0.85 11.84,-1.40 10.73,-1.94 8.92,-1.99 7.12,-2.03 5.85,-1.31 4.58,-0.59 2.91,0.64 1.25,1.88 1.01,2.00 0.76,2.12 0.50,2.19 0.23,2.25 -0.03,2.24 -0.30,2.24 -0.57,2.17 -0.83,2.10 -1.07,1.97 -1.31,1.84 -1.51,1.65 -1.71,1.47 -1.86,1.24 -2.02,1.01 -2.11,0.76 -2.20,0.50 -2.23,0.23 -2.26,-0.03 -2.22,-0.30 -2.18,-0.57 -2.08,-0.83 -1.98,-1.08 -1.82,-1.30 -1.66,-1.52 -1.46,-1.70 -1.25,-1.88 -1.25,-1.88 L -1.25,-1.88 Z"></path></g><g transform="translate(1043 575.6875) rotate(0 6.5 8)" stroke="none"><path fill="#000000" d="M 1.56,-2.08 Q 1.56,-2.08 2.70,-1.21 3.84,-0.34 5.26,0.38 6.68,1.11 8.22,2.46 9.76,3.81 11.05,4.78 12.34,5.75 13.42,6.69 14.50,7.62 15.56,8.36 16.61,9.09 17.20,11.47 17.80,13.86 15.09,14.84 12.38,15.81 11.12,15.83 9.87,15.86 8.08,15.99 6.29,16.12 4.49,16.61 2.69,17.11 0.27,17.68 -2.13,18.25 -2.51,18.25 -2.89,18.25 -3.25,18.13 -3.62,18.01 -3.92,17.78 -4.23,17.54 -4.44,17.23 -4.66,16.91 -4.76,16.54 -4.86,16.17 -4.84,15.79 -4.82,15.41 -4.68,15.05 -4.54,14.70 -4.29,14.41 -4.05,14.11 -3.72,13.92 -3.39,13.72 -3.02,13.64 -2.64,13.55 -2.26,13.59 -1.88,13.64 -1.54,13.80 -1.19,13.96 -0.91,14.22 -0.63,14.48 -0.45,14.82 -0.27,15.16 -0.21,15.53 -0.15,15.91 -0.21,16.29 -0.27,16.67 -0.45,17.01 -0.63,17.34 -0.91,17.61 -1.18,17.87 -1.53,18.03 -1.88,18.19 -2.26,18.24 -2.64,18.28 -3.01,18.20 -3.39,18.11 -3.71,17.92 -4.04,17.72 -4.29,17.43 -4.54,17.14 -4.68,16.78 -4.82,16.43 -4.84,16.04 -4.86,15.66 -4.76,15.29 -4.66,14.92 -4.45,14.61 -4.23,14.29 -3.93,14.06 -3.62,13.83 -3.26,13.70 -2.90,13.58 -2.90,13.58 -2.90,13.58 -0.86,13.19 1.16,12.81 3.32,11.90 5.48,10.99 7.60,10.51 9.72,10.04 11.59,10.49 13.47,10.95 12.75,12.09 12.04,13.23 10.60,11.92 9.16,10.61 8.11,9.88 7.06,9.15 5.70,7.78 4.34,6.42 3.52,5.64 2.70,4.86 1.73,4.33 0.75,3.79 -0.40,2.94 -1.56,2.08 -1.79,1.86 -2.01,1.65 -2.18,1.38 -2.35,1.12 -2.45,0.82 -2.55,0.52 -2.58,0.21 -2.60,-0.10 -2.55,-0.41 -2.50,-0.72 -2.38,-1.01 -2.26,-1.30 -2.07,-1.55 -1.88,-1.80 -1.63,-2.00 -1.39,-2.20 -1.11,-2.33 -0.82,-2.47 -0.52,-2.53 -0.21,-2.59 0.10,-2.58 0.41,-2.57 0.71,-2.48 1.02,-2.40 1.29,-2.24 1.56,-2.08 1.56,-2.08 L 1.56,-2.08 Z"></path></g><g transform="translate(1026 536.6875) rotate(0 1.5 11.5)" stroke="none"><path fill="#000000" d="M 2.15,-0.71 Q 2.15,-0.71 2.68,1.02 3.21,2.76 3.53,4.20 3.85,5.65 4.20,7.32 4.55,8.99 4.69,11.01 4.82,13.04 4.94,14.45 5.06,15.86 5.07,17.64 5.08,19.42 4.71,21.18 4.34,22.93 4.19,23.26 4.04,23.60 3.79,23.86 3.54,24.13 3.22,24.30 2.90,24.47 2.54,24.53 2.19,24.60 1.83,24.54 1.47,24.49 1.15,24.32 0.82,24.15 0.57,23.89 0.32,23.63 0.17,23.30 0.01,22.97 -0.02,22.61 -0.07,22.25 0.00,21.89 0.07,21.54 0.26,21.23 0.44,20.91 0.72,20.68 0.99,20.44 1.33,20.30 1.67,20.16 2.03,20.14 2.39,20.12 2.74,20.21 3.09,20.31 3.40,20.51 3.70,20.71 3.92,21.00 4.14,21.28 4.26,21.63 4.38,21.97 4.38,22.33 4.39,22.70 4.27,23.04 4.16,23.39 3.94,23.68 3.73,23.97 3.43,24.17 3.13,24.38 2.78,24.48 2.43,24.58 2.07,24.56 1.70,24.55 1.37,24.42 1.03,24.28 0.75,24.05 0.47,23.82 0.28,23.51 0.09,23.20 0.01,22.85 -0.06,22.49 -0.03,22.13 0.00,21.77 0.00,21.77 0.00,21.77 0.41,20.61 0.82,19.45 0.77,17.76 0.72,16.08 0.70,14.74 0.67,13.41 0.48,11.68 0.28,9.96 -0.14,8.22 -0.57,6.48 -0.74,5.30 -0.91,4.13 -1.53,2.42 -2.15,0.71 -2.21,0.45 -2.26,0.18 -2.25,-0.09 -2.24,-0.36 -2.16,-0.62 -2.09,-0.89 -1.95,-1.12 -1.81,-1.36 -1.62,-1.56 -1.43,-1.76 -1.20,-1.90 -0.97,-2.05 -0.71,-2.14 -0.45,-2.22 -0.18,-2.24 0.09,-2.27 0.36,-2.22 0.63,-2.18 0.88,-2.07 1.13,-1.96 1.35,-1.80 1.57,-1.63 1.74,-1.42 1.92,-1.21 2.03,-0.96 2.15,-0.71 2.15,-0.71 L 2.15,-0.71 Z"></path></g><g transform="translate(1026 538.6875) rotate(0 8.5 0.5)" stroke="none"><path fill="#000000" d="M -0.48,-2.40 Q -0.48,-2.40 0.95,-2.68 2.38,-2.97 3.97,-3.52 5.55,-4.08 7.21,-4.65 8.86,-5.22 10.05,-5.76 11.24,-6.30 13.22,-7.10 15.20,-7.90 16.39,-7.56 17.59,-7.22 18.37,-6.46 19.16,-5.70 18.74,-2.82 18.32,0.06 17.39,1.62 16.46,3.17 15.78,4.19 15.10,5.21 13.72,6.84 12.33,8.48 11.99,8.75 11.64,9.02 11.22,9.17 10.81,9.32 10.37,9.32 9.93,9.33 9.51,9.20 9.09,9.06 8.73,8.80 8.38,8.54 8.12,8.18 7.87,7.82 7.75,7.40 7.62,6.97 7.64,6.53 7.66,6.09 7.81,5.68 7.97,5.27 8.25,4.93 8.53,4.59 8.90,4.36 9.27,4.12 9.70,4.02 10.13,3.92 10.57,3.96 11.01,4.00 11.41,4.18 11.82,4.36 12.14,4.66 12.46,4.95 12.68,5.34 12.89,5.72 12.97,6.16 13.05,6.59 12.98,7.03 12.92,7.46 12.72,7.86 12.52,8.25 12.20,8.56 11.89,8.86 11.49,9.06 11.10,9.25 10.66,9.30 10.22,9.36 9.79,9.27 9.36,9.18 8.98,8.96 8.59,8.74 8.30,8.41 8.01,8.08 7.84,7.67 7.67,7.26 7.64,6.83 7.61,6.39 7.72,5.96 7.83,5.53 8.08,5.16 8.32,4.80 8.32,4.80 8.32,4.80 10.12,2.70 11.91,0.60 12.59,-0.69 13.28,-2.00 14.16,-2.60 15.04,-3.19 14.04,-2.65 13.03,-2.10 11.70,-1.57 10.37,-1.04 8.80,-0.45 7.23,0.14 5.29,0.98 3.36,1.82 1.92,2.11 0.48,2.40 0.18,2.42 -0.10,2.44 -0.39,2.40 -0.69,2.35 -0.96,2.23 -1.23,2.11 -1.46,1.93 -1.70,1.76 -1.89,1.53 -2.07,1.30 -2.20,1.03 -2.32,0.76 -2.38,0.47 -2.44,0.18 -2.43,-0.10 -2.41,-0.40 -2.33,-0.68 -2.25,-0.96 -2.10,-1.22 -1.95,-1.48 -1.74,-1.69 -1.54,-1.90 -1.29,-2.06 -1.04,-2.21 -0.76,-2.31 -0.48,-2.40 -0.48,-2.40 L -0.48,-2.40 Z"></path></g><g transform="translate(1001 584.6875) rotate(0 -16.5 0.5)" stroke="none"><path fill="#d9480f" d="M -0.80,2.42 Q -0.80,2.42 -2.51,1.77 -4.21,1.12 -5.42,0.55 -6.63,-0.01 -7.64,-0.49 -8.66,-0.97 -9.67,-1.45 -10.68,-1.93 -12.36,-2.90 -14.04,-3.88 -15.44,-4.35 -16.85,-4.82 -19.23,-5.02 -21.60,-5.21 -23.20,-4.44 -24.80,-3.66 -25.64,-2.79 -26.47,-1.92 -27.07,-0.83 -27.67,0.24 -28.24,1.54 -28.81,2.84 -29.01,4.14 -29.21,5.44 -29.78,7.59 -30.35,9.74 -30.59,10.10 -30.84,10.47 -31.20,10.73 -31.55,10.99 -31.96,11.13 -32.38,11.27 -32.82,11.26 -33.26,11.26 -33.67,11.12 -34.09,10.97 -34.44,10.71 -34.79,10.44 -35.03,10.07 -35.27,9.71 -35.39,9.28 -35.50,8.86 -35.48,8.42 -35.45,7.98 -35.28,7.58 -35.12,7.17 -34.83,6.84 -34.54,6.50 -34.17,6.28 -33.79,6.06 -33.36,5.96 -32.93,5.87 -32.49,5.92 -32.06,5.97 -31.66,6.16 -31.26,6.35 -30.95,6.65 -30.63,6.96 -30.43,7.35 -30.22,7.74 -30.15,8.17 -30.09,8.60 -30.16,9.04 -30.24,9.47 -30.44,9.86 -30.65,10.24 -30.97,10.54 -31.29,10.84 -31.69,11.02 -32.09,11.21 -32.53,11.25 -32.97,11.29 -33.40,11.20 -33.82,11.10 -34.20,10.87 -34.57,10.64 -34.86,10.30 -35.14,9.97 -35.30,9.56 -35.46,9.15 -35.48,8.71 -35.50,8.27 -35.38,7.85 -35.26,7.43 -35.26,7.43 -35.26,7.43 -34.67,5.19 -34.08,2.95 -33.72,1.93 -33.37,0.90 -32.72,-0.66 -32.07,-2.24 -31.13,-3.86 -30.20,-5.48 -28.79,-6.92 -27.38,-8.35 -25.80,-9.19 -24.22,-10.02 -22.84,-10.30 -21.45,-10.57 -19.63,-10.57 -17.81,-10.57 -16.21,-10.31 -14.61,-10.05 -12.98,-9.34 -11.35,-8.63 -9.85,-7.60 -8.34,-6.57 -7.34,-6.03 -6.35,-5.50 -4.52,-4.46 -2.68,-3.42 -0.93,-2.92 0.80,-2.42 1.08,-2.29 1.36,-2.16 1.60,-1.96 1.84,-1.77 2.02,-1.52 2.21,-1.27 2.33,-0.99 2.45,-0.71 2.50,-0.40 2.55,-0.10 2.53,0.20 2.50,0.51 2.40,0.80 2.31,1.09 2.14,1.35 1.98,1.61 1.75,1.83 1.53,2.04 1.27,2.19 1.00,2.35 0.70,2.43 0.41,2.52 0.10,2.53 -0.20,2.54 -0.50,2.48 -0.80,2.42 -0.80,2.42 L -0.80,2.42 Z"></path></g><g transform="translate(946 558.6875) rotate(0 3.5 2.5)" stroke="none"><path fill="#d9480f" d="M -1.90,-0.63 Q -1.90,-0.63 -1.31,-2.35 -0.71,-4.07 -0.21,-5.45 0.29,-6.84 0.89,-8.59 1.50,-10.33 1.86,-10.59 2.22,-10.84 2.40,-11.08 2.58,-11.31 2.81,-11.50 3.04,-11.68 3.31,-11.80 3.58,-11.93 3.87,-11.98 4.16,-12.04 4.46,-12.02 4.75,-12.01 5.04,-11.92 5.32,-11.84 5.57,-11.69 5.83,-11.53 6.04,-11.33 6.25,-11.12 6.41,-10.87 6.56,-10.61 6.65,-10.33 6.74,-10.05 6.76,-9.76 6.78,-9.46 6.73,-9.17 6.68,-8.88 6.56,-8.61 6.44,-8.34 6.92,-7.33 7.39,-6.32 7.51,-3.61 7.63,-0.89 7.64,1.66 7.64,4.22 7.66,6.16 7.69,8.11 7.79,9.21 7.90,10.31 8.41,12.25 8.92,14.19 8.92,14.52 8.92,14.85 8.82,15.16 8.72,15.48 8.52,15.74 8.32,16.00 8.05,16.19 7.78,16.37 7.47,16.46 7.15,16.55 6.82,16.54 6.49,16.52 6.19,16.40 5.88,16.28 5.63,16.07 5.38,15.86 5.20,15.58 5.03,15.30 4.96,14.98 4.89,14.66 4.92,14.33 4.95,14.00 5.09,13.70 5.23,13.41 5.45,13.17 5.68,12.93 5.97,12.77 6.25,12.61 6.58,12.56 6.90,12.50 7.23,12.55 7.55,12.60 7.84,12.76 8.14,12.91 8.36,13.15 8.59,13.38 8.73,13.68 8.87,13.98 8.91,14.31 8.95,14.63 8.88,14.95 8.81,15.28 8.64,15.56 8.47,15.84 8.22,16.06 7.98,16.27 7.67,16.39 7.37,16.52 7.04,16.54 6.71,16.56 6.39,16.47 6.07,16.39 5.80,16.20 5.53,16.02 5.33,15.76 5.13,15.50 5.02,15.19 4.91,14.88 4.91,14.88 4.91,14.88 4.48,12.64 4.04,10.40 4.12,9.29 4.20,8.17 4.14,6.26 4.09,4.34 3.92,1.88 3.76,-0.58 3.47,-2.93 3.18,-5.27 2.70,-8.06 2.22,-10.84 2.40,-11.08 2.58,-11.31 2.81,-11.50 3.04,-11.68 3.31,-11.80 3.58,-11.93 3.87,-11.98 4.16,-12.04 4.46,-12.02 4.75,-12.01 5.04,-11.92 5.32,-11.84 5.57,-11.69 5.83,-11.53 6.04,-11.33 6.25,-11.12 6.41,-10.87 6.56,-10.61 6.65,-10.33 6.74,-10.05 6.76,-9.76 6.78,-9.46 6.73,-9.17 6.68,-8.88 6.56,-8.61 6.44,-8.34 5.90,-8.04 5.36,-7.75 4.74,-6.51 4.13,-5.28 3.57,-4.05 3.01,-2.82 2.46,-1.09 1.90,0.63 1.80,0.85 1.69,1.07 1.54,1.25 1.39,1.44 1.19,1.59 1.00,1.73 0.78,1.83 0.55,1.92 0.32,1.96 0.08,2.00 -0.15,1.98 -0.40,1.96 -0.63,1.89 -0.86,1.81 -1.06,1.68 -1.26,1.55 -1.43,1.38 -1.60,1.20 -1.72,0.99 -1.84,0.78 -1.91,0.55 -1.98,0.32 -1.99,0.08 -2.00,-0.16 -1.95,-0.39 -1.90,-0.63 -1.90,-0.63 L -1.90,-0.63 Z"></path></g><g transform="translate(959 564.6875) rotate(0 3 -1.5)" stroke="none"><path fill="#d9480f" d="M -0.71,-2.13 Q -0.71,-2.13 1.01,-2.65 2.74,-3.18 3.46,-3.78 4.19,-4.39 4.46,-4.44 4.73,-4.50 5.00,-4.48 5.28,-4.47 5.55,-4.40 5.81,-4.32 6.05,-4.18 6.29,-4.04 6.49,-3.85 6.69,-3.66 6.84,-3.43 6.98,-3.19 7.07,-2.93 7.16,-2.67 7.18,-2.39 7.20,-2.12 7.16,-1.84 7.11,-1.57 7.01,-1.31 6.90,-1.06 6.73,-0.84 6.57,-0.62 6.35,-0.44 6.14,-0.27 5.89,-0.15 5.64,-0.03 4.31,0.50 2.98,1.05 2.64,1.14 2.30,1.23 1.95,1.21 1.59,1.18 1.27,1.05 0.94,0.91 0.67,0.68 0.40,0.45 0.23,0.15 0.05,-0.15 -0.02,-0.49 -0.09,-0.84 -0.05,-1.19 -0.00,-1.54 0.14,-1.86 0.29,-2.18 0.53,-2.43 0.78,-2.69 1.09,-2.85 1.41,-3.01 1.76,-3.07 2.11,-3.12 2.46,-3.06 2.80,-3.00 3.11,-2.83 3.42,-2.66 3.66,-2.40 3.91,-2.14 4.05,-1.82 4.20,-1.50 4.23,-1.15 4.26,-0.79 4.18,-0.45 4.11,-0.11 3.92,0.18 3.73,0.49 3.46,0.71 3.19,0.94 2.86,1.07 2.53,1.19 2.18,1.21 1.83,1.22 1.49,1.13 1.15,1.03 0.86,0.83 0.57,0.62 0.35,0.34 0.14,0.06 0.03,-0.27 -0.07,-0.61 -0.06,-0.96 -0.06,-1.31 0.05,-1.65 0.17,-1.98 0.38,-2.26 0.60,-2.54 0.89,-2.73 1.19,-2.93 1.19,-2.93 1.19,-2.93 2.69,-3.66 4.19,-4.39 4.46,-4.44 4.73,-4.50 5.00,-4.48 5.28,-4.47 5.55,-4.40 5.81,-4.32 6.05,-4.18 6.29,-4.04 6.49,-3.85 6.69,-3.66 6.84,-3.43 6.98,-3.19 7.07,-2.93 7.16,-2.67 7.18,-2.39 7.20,-2.12 7.16,-1.84 7.11,-1.57 7.01,-1.31 6.90,-1.06 6.73,-0.84 6.57,-0.62 6.35,-0.44 6.14,-0.27 5.89,-0.15 5.64,-0.03 4.90,0.42 4.15,0.88 2.43,1.50 0.71,2.13 0.44,2.18 0.17,2.24 -0.09,2.23 -0.36,2.22 -0.62,2.14 -0.88,2.06 -1.11,1.93 -1.35,1.79 -1.54,1.61 -1.74,1.42 -1.88,1.19 -2.03,0.96 -2.11,0.70 -2.20,0.44 -2.22,0.17 -2.24,-0.09 -2.20,-0.35 -2.16,-0.62 -2.05,-0.87 -1.94,-1.12 -1.78,-1.34 -1.62,-1.55 -1.41,-1.73 -1.20,-1.90 -0.95,-2.01 -0.71,-2.13 -0.71,-2.13 L -0.71,-2.13 Z"></path></g><g transform="translate(981 545.6875) rotate(0 -1 10.5)" stroke="none"><path fill="#d9480f" d="M 2.39,0 Q 2.39,0 2.25,2.3 2.11,4.6 2.12,6.15 2.14,7.70 2.27,9.62 2.39,11.55 2.38,13.12 2.36,14.69 2.08,16.20 1.79,17.71 1.20,19.45 0.62,21.18 0.42,21.54 0.21,21.89 -0.08,22.16 -0.39,22.43 -0.76,22.59 -1.14,22.75 -1.54,22.79 -1.95,22.82 -2.35,22.72 -2.74,22.62 -3.09,22.40 -3.43,22.18 -3.69,21.86 -3.94,21.54 -4.08,21.15 -4.22,20.77 -4.23,20.36 -4.24,19.95 -4.12,19.56 -3.99,19.17 -3.76,18.84 -3.52,18.51 -3.18,18.27 -2.85,18.04 -2.46,17.92 -2.07,17.80 -1.66,17.81 -1.25,17.83 -0.87,17.97 -0.49,18.11 -0.17,18.37 0.14,18.62 0.36,18.97 0.58,19.31 0.67,19.71 0.77,20.11 0.73,20.51 0.70,20.92 0.54,21.30 0.37,21.67 0.10,21.97 -0.16,22.28 -0.52,22.48 -0.88,22.68 -1.28,22.75 -1.68,22.83 -2.08,22.77 -2.49,22.71 -2.85,22.53 -3.22,22.35 -3.51,22.06 -3.79,21.77 -3.97,21.40 -4.15,21.03 -4.21,20.63 -4.26,20.22 -4.18,19.82 -4.10,19.42 -4.10,19.42 -4.10,19.42 -3.23,17.04 -2.36,14.67 -2.38,13.11 -2.39,11.55 -2.27,9.62 -2.14,7.70 -2.12,6.15 -2.11,4.6 -2.25,2.3 -2.39,0 -2.35,-0.28 -2.32,-0.57 -2.22,-0.84 -2.11,-1.11 -1.95,-1.34 -1.79,-1.58 -1.57,-1.77 -1.35,-1.96 -1.10,-2.10 -0.84,-2.23 -0.56,-2.30 -0.28,-2.37 0.00,-2.37 0.28,-2.37 0.56,-2.30 0.84,-2.23 1.10,-2.10 1.35,-1.96 1.57,-1.77 1.79,-1.58 1.95,-1.34 2.11,-1.11 2.22,-0.84 2.32,-0.57 2.35,-0.28 2.39,0.00 2.39,0.00 L 2.39,0 Z"></path></g><g transform="translate(984 547.6875) rotate(0 5.5 3)" stroke="none"><path fill="#d9480f" d="M -1.34,-2.01 Q -1.34,-2.01 0.45,-3.06 2.25,-4.10 3.38,-4.72 4.51,-5.33 6.53,-5.84 8.56,-6.35 9.85,-6.00 11.14,-5.65 12.03,-4.38 12.91,-3.11 12.55,-1.09 12.18,0.92 11.28,2.52 10.39,4.11 9.78,5.28 9.18,6.45 8.22,7.72 7.26,8.98 5.45,10.54 3.64,12.09 3.24,12.24 2.84,12.38 2.42,12.39 1.99,12.40 1.58,12.28 1.18,12.15 0.83,11.91 0.48,11.66 0.24,11.31 -0.00,10.96 -0.13,10.56 -0.25,10.15 -0.24,9.72 -0.23,9.30 -0.08,8.90 0.06,8.50 0.32,8.17 0.59,7.84 0.95,7.61 1.31,7.38 1.72,7.27 2.14,7.17 2.56,7.21 2.98,7.24 3.38,7.41 3.77,7.58 4.08,7.86 4.40,8.15 4.61,8.52 4.82,8.89 4.90,9.31 4.98,9.73 4.92,10.15 4.86,10.57 4.67,10.95 4.48,11.33 4.18,11.63 3.88,11.94 3.50,12.12 3.12,12.31 2.70,12.37 2.27,12.43 1.86,12.35 1.44,12.27 1.07,12.06 0.70,11.85 0.41,11.53 0.13,11.21 -0.03,10.82 -0.20,10.43 -0.23,10.00 -0.27,9.58 -0.16,9.17 -0.06,8.75 0.16,8.40 0.39,8.04 0.72,7.77 1.05,7.50 1.05,7.50 1.05,7.50 2.13,6.66 3.20,5.82 3.91,4.94 4.62,4.06 5.25,2.87 5.88,1.67 6.73,0.14 7.59,-1.38 6.12,-0.93 4.64,-0.49 2.99,0.76 1.34,2.01 1.08,2.14 0.82,2.28 0.53,2.34 0.25,2.41 -0.03,2.40 -0.33,2.40 -0.61,2.32 -0.89,2.25 -1.15,2.11 -1.40,1.97 -1.62,1.77 -1.84,1.57 -2.00,1.33 -2.16,1.09 -2.26,0.81 -2.36,0.54 -2.39,0.25 -2.42,-0.03 -2.38,-0.32 -2.34,-0.61 -2.23,-0.88 -2.12,-1.16 -1.95,-1.39 -1.78,-1.63 -1.56,-1.82 -1.34,-2.01 -1.34,-2.01 L -1.34,-2.01 Z"></path></g><g transform="translate(745 755.6875) rotate(0 0.00005000000000165983 0.00005000000000165983)" stroke="none"><path fill="#d9480f" d="M 1.57,-1.57 Q 1.57,-1.57 1.77,-1.27 1.98,-0.98 2.09,-0.64 2.20,-0.29 2.19,0.05 2.18,0.41 2.05,0.75 1.93,1.09 1.70,1.37 1.48,1.65 1.18,1.84 0.87,2.04 0.52,2.12 0.18,2.21 -0.17,2.18 -0.53,2.15 -0.86,2.01 -1.19,1.87 -1.46,1.63 -1.73,1.39 -1.90,1.07 -2.08,0.76 -2.15,0.41 -2.21,0.05 -2.17,-0.29 -2.12,-0.65 -1.96,-0.97 -1.80,-1.29 -1.54,-1.54 -1.29,-1.80 -0.97,-1.96 -0.65,-2.12 -0.29,-2.17 0.06,-2.21 0.41,-2.15 0.76,-2.08 1.07,-1.90 1.39,-1.73 1.63,-1.46 1.87,-1.19 2.01,-0.86 2.15,-0.53 2.18,-0.17 2.21,0.18 2.12,0.52 2.03,0.87 1.84,1.18 1.65,1.48 1.37,1.70 1.09,1.93 0.75,2.05 0.41,2.18 0.05,2.19 -0.30,2.20 -0.64,2.09 -0.98,1.98 -1.27,1.77 -1.57,1.56 -1.57,1.57 -1.57,1.57 -1.73,1.35 -1.90,1.14 -2.01,0.90 -2.12,0.66 -2.16,0.39 -2.21,0.13 -2.20,-0.13 -2.18,-0.40 -2.10,-0.65 -2.02,-0.91 -1.88,-1.14 -1.74,-1.36 -1.55,-1.55 -1.36,-1.74 -1.14,-1.88 -0.91,-2.02 -0.65,-2.10 -0.40,-2.18 -0.13,-2.20 0.13,-2.21 0.39,-2.16 0.66,-2.12 0.90,-2.01 1.14,-1.90 1.35,-1.73 1.57,-1.57 1.57,-1.57 L 1.57,-1.57 Z"></path></g></svg>