<svg version="1.1" xmlns="http://www.w3.org/2000/svg" viewBox="0 0 10020 820.2703857421875" width="10020" height="820.2703857421875">
  <!-- svg-source:excalidraw -->
  
  <defs>
    <style>
      @font-face {
        font-family: "Virgil";
        src: url("https://excalidraw.com/Virgil.woff2");
      }
      @font-face {
        font-family: "Cascadia";
        src: url("https://excalidraw.com/Cascadia.woff2");
      }
    </style>
  </defs>
  <rect x="0" y="0" width="10020" height="820.2703857421875" fill="#fff0"></rect><g stroke-linecap="round" transform="translate(10 10) rotate(0 5000 0.5)"><path d="M-0.52 -0.26 C3022.65 -30.2, 6044.59 -29.2, 9999.32 0.22 M0.38 -0.31 C3948.03 -0.44, 7895.41 0.2, 9999.95 0.08 M10000.08 -0.06 C10000.09 0.27, 10000.05 0.48, 10000.09 0.92 M9999.97 0.01 C9999.95 0.33, 9999.98 0.72, 10000 0.99 M10000.22 1.51 C7095.77 35.76, 4193.15 34.95, -0.25 0.75 M10000.01 1.13 C7827.97 2.74, 5656.23 3.35, -0.33 0.84 M-0.04 1.01 C0 0.63, -0.06 0.15, 0.05 -0.03 M-0.04 0.95 C-0.04 0.73, -0.03 0.59, -0.05 -0.02" stroke="transparent" stroke-width="1" fill="none"></path></g><g transform="translate(568.2573852539062 573.009033203125) rotate(0 115.5 -2)" stroke="none"><path fill="#000" d="M -1.47,-1.97 Q -1.47,-1.97 -0.34,-2.81 0.78,-3.65 2.27,-5.79 3.76,-7.94 5.33,-9.56 6.91,-11.19 8.40,-11.47 9.89,-11.75 11.38,-11.42 12.86,-11.08 14.11,-10.63 15.36,-10.17 16.85,-9.68 18.33,-9.19 20.35,-8.56 22.36,-7.93 24.92,-7.32 27.48,-6.71 30.49,-6.42 33.49,-6.13 35.66,-5.98 37.82,-5.82 41.03,-5.73 44.24,-5.64 47.62,-5.59 51.00,-5.53 53.80,-5.78 56.60,-6.03 58.72,-6.14 60.83,-6.25 63.18,-6.29 65.53,-6.32 68.25,-6.33 70.97,-6.34 73.57,-6.34 76.16,-6.34 78.92,-6.62 81.68,-6.91 83.77,-7.04 85.86,-7.18 88.78,-7.22 91.70,-7.27 94.72,-7.00 97.75,-6.72 101.32,-6.32 104.89,-5.91 107.52,-5.74 110.15,-5.57 113.55,-5.50 116.95,-5.43 120.75,-5.10 124.55,-4.78 128.13,-4.65 131.71,-4.51 134.67,-4.46 137.63,-4.40 139.75,-4.37 141.87,-4.35 144.49,-4.34 147.11,-4.33 149.96,-4.32 152.80,-4.32 155.44,-4.31 158.08,-4.31 160.28,-4.59 162.47,-4.87 165.14,-5.28 167.82,-5.69 170.45,-5.87 173.09,-6.05 175.28,-6.40 177.47,-6.76 179.63,-6.92 181.79,-7.09 183.27,-7.26 184.75,-7.44 186.84,-7.45 188.93,-7.46 191.34,-7.16 193.75,-6.85 195.83,-6.72 197.92,-6.58 199.39,-6.63 200.86,-6.68 202.91,-6.63 204.96,-6.59 207.27,-6.54 209.58,-6.50 211.54,-6.23 213.51,-5.97 215.24,-5.59 216.96,-5.22 218.59,-5.17 220.22,-5.12 221.67,-4.65 223.12,-4.18 224.25,-3.17 225.38,-2.15 225.84,-0.91 226.30,0.32 226.98,1.42 227.66,2.52 228.15,1.77 228.65,1.02 229.08,0.83 229.52,0.63 229.99,0.58 230.46,0.54 230.93,0.64 231.39,0.75 231.80,1.00 232.20,1.25 232.51,1.61 232.81,1.98 232.99,2.42 233.16,2.86 233.18,3.34 233.20,3.82 233.07,4.27 232.94,4.73 232.67,5.12 232.40,5.51 232.02,5.80 231.63,6.08 231.18,6.23 230.73,6.38 230.25,6.38 229.78,6.37 229.33,6.22 228.88,6.06 228.50,5.77 228.12,5.48 227.86,5.08 227.60,4.68 227.47,4.22 227.35,3.76 227.38,3.29 227.41,2.81 227.59,2.37 227.77,1.93 228.08,1.57 228.39,1.21 228.80,0.97 229.21,0.73 229.68,0.63 230.14,0.53 230.62,0.59 231.09,0.64 231.52,0.85 231.95,1.05 232.29,1.38 232.64,1.71 232.86,2.13 233.08,2.56 233.15,3.03 233.22,3.50 233.14,3.97 233.06,4.44 232.83,4.85 232.61,5.27 232.26,5.60 231.91,5.92 231.91,5.92 231.91,5.92 229.50,7.07 227.10,8.21 225.39,7.45 223.68,6.69 222.83,5.18 221.99,3.67 221.63,1.72 221.28,-0.21 219.74,-0.81 218.21,-1.41 217.18,-1.70 216.16,-1.98 214.59,-2.43 213.02,-2.89 211.29,-3.20 209.56,-3.51 207.24,-3.49 204.92,-3.46 202.84,-3.46 200.75,-3.46 199.26,-3.60 197.76,-3.75 195.58,-3.86 193.40,-3.96 191.18,-4.20 188.97,-4.44 186.93,-4.40 184.89,-4.36 183.44,-4.41 181.98,-4.45 179.93,-4.31 177.88,-4.16 175.57,-3.80 173.27,-3.43 170.74,-3.26 168.21,-3.09 165.51,-2.68 162.80,-2.27 160.44,-1.98 158.08,-1.68 155.44,-1.69 152.79,-1.69 149.95,-1.69 147.10,-1.69 144.47,-1.70 141.84,-1.71 139.71,-1.74 137.58,-1.76 134.59,-1.82 131.61,-1.88 127.97,-2.01 124.33,-2.15 120.61,-2.46 116.90,-2.78 113.44,-2.85 109.98,-2.92 107.28,-3.09 104.59,-3.26 101.05,-3.66 97.51,-4.05 94.63,-4.31 91.75,-4.57 88.89,-4.51 86.03,-4.45 83.99,-4.34 81.96,-4.22 79.06,-3.92 76.17,-3.62 73.58,-3.60 71.00,-3.58 68.29,-3.55 65.59,-3.52 63.29,-3.45 60.99,-3.38 58.94,-3.26 56.88,-3.13 53.93,-2.82 50.98,-2.50 47.59,-2.48 44.20,-2.46 40.94,-2.45 37.69,-2.43 35.47,-2.45 33.25,-2.48 29.99,-2.61 26.74,-2.74 24.04,-3.11 21.35,-3.49 19.12,-3.83 16.89,-4.17 14.22,-4.99 11.55,-5.80 10.47,-6.40 9.38,-7.00 8.47,-5.90 7.56,-4.80 6.74,-3.83 5.93,-2.86 4.87,-1.33 3.81,0.20 2.64,1.08 1.47,1.97 1.22,2.11 0.96,2.26 0.67,2.34 0.39,2.43 0.09,2.44 -0.20,2.45 -0.49,2.39 -0.78,2.33 -1.05,2.20 -1.31,2.08 -1.54,1.89 -1.77,1.70 -1.95,1.46 -2.13,1.22 -2.25,0.95 -2.36,0.68 -2.41,0.38 -2.46,0.09 -2.43,-0.19 -2.41,-0.49 -2.31,-0.77 -2.22,-1.05 -2.06,-1.30 -1.90,-1.55 -1.69,-1.76 -1.47,-1.97 -1.47,-1.97 L -1.47,-1.97 Z"></path></g><g transform="translate(635.1644287109375 520.1496429443359) rotate(0 3.5 3.5)" stroke="none"><path fill="#000" d="M -2.46,-0.49 Q -2.46,-0.49 -2.08,-2.07 -1.70,-3.65 -0.47,-4.93 0.74,-6.21 2.36,-6.43 3.97,-6.65 5.51,-5.89 7.06,-5.13 8.08,-4.04 9.10,-2.95 9.63,-1.87 10.16,-0.79 10.10,0.76 10.04,2.32 9.24,3.91 8.44,5.50 7.49,6.93 6.54,8.36 5.84,9.34 5.15,10.33 4.45,11.58 3.75,12.83 3.46,13.18 3.17,13.52 2.78,13.76 2.40,13.99 1.96,14.09 1.51,14.19 1.06,14.15 0.61,14.10 0.20,13.91 -0.20,13.72 -0.53,13.41 -0.86,13.10 -1.07,12.71 -1.29,12.31 -1.36,11.86 -1.44,11.41 -1.37,10.97 -1.30,10.52 -1.09,10.12 -0.88,9.72 -0.55,9.41 -0.22,9.09 0.18,8.90 0.59,8.71 1.04,8.66 1.49,8.61 1.93,8.70 2.37,8.80 2.76,9.03 3.15,9.26 3.44,9.60 3.74,9.95 3.91,10.37 4.08,10.79 4.10,11.24 4.13,11.69 4.01,12.13 3.89,12.56 3.64,12.94 3.39,13.31 3.03,13.59 2.67,13.87 2.24,14.01 1.82,14.16 1.36,14.16 0.91,14.16 0.48,14.02 0.05,13.88 -0.30,13.61 -0.66,13.33 -0.92,12.96 -1.17,12.59 -1.30,12.15 -1.42,11.72 -1.40,11.26 -1.38,10.81 -1.21,10.39 -1.05,9.97 -1.05,9.97 -1.05,9.97 0.45,7.76 1.96,5.54 2.71,4.21 3.46,2.88 4.16,1.70 4.86,0.52 3.85,-0.78 2.85,-2.09 2.65,-0.80 2.46,0.49 2.36,0.77 2.27,1.06 2.11,1.32 1.95,1.58 1.73,1.79 1.51,2.00 1.25,2.15 0.99,2.30 0.70,2.39 0.41,2.47 0.11,2.48 -0.19,2.50 -0.48,2.44 -0.78,2.38 -1.05,2.25 -1.33,2.12 -1.56,1.93 -1.80,1.74 -1.98,1.50 -2.16,1.26 -2.28,0.98 -2.40,0.70 -2.45,0.40 -2.50,0.11 -2.48,-0.19 -2.46,-0.49 -2.46,-0.49 L -2.46,-0.49 Z"></path></g><g transform="translate(662.1644287109375 518.1496429443359) rotate(0 -6.5 8)" stroke="none"><path fill="#000" d="M 0.34,2.41 Q 0.34,2.41 -1.68,2.58 -3.71,2.75 -4.95,3.12 -6.19,3.50 -7.25,4.66 -8.30,5.82 -9.13,8.24 -9.95,10.65 -9.47,12.16 -8.98,13.67 -8.67,13.93 -8.36,14.19 -8.15,14.54 -7.94,14.89 -7.85,15.29 -7.76,15.69 -7.81,16.09 -7.85,16.50 -8.02,16.87 -8.19,17.24 -8.47,17.53 -8.75,17.83 -9.11,18.02 -9.47,18.21 -9.87,18.28 -10.27,18.34 -10.67,18.28 -11.07,18.21 -11.43,18.02 -11.79,17.83 -12.07,17.54 -12.35,17.24 -12.53,16.88 -12.70,16.51 -12.74,16.10 -12.79,15.70 -12.70,15.30 -12.61,14.90 -12.40,14.55 -12.20,14.20 -11.89,13.94 -11.58,13.67 -11.20,13.52 -10.82,13.37 -10.41,13.35 -10.01,13.33 -9.62,13.43 -9.22,13.54 -8.89,13.77 -8.55,14.00 -8.30,14.32 -8.05,14.64 -7.92,15.03 -7.79,15.42 -7.79,15.82 -7.79,16.23 -7.92,16.62 -8.05,17.00 -8.29,17.33 -8.54,17.65 -8.88,17.88 -9.21,18.11 -9.60,18.22 -10.00,18.33 -10.40,18.31 -10.81,18.29 -11.19,18.14 -11.57,17.99 -11.57,17.99 -11.57,17.99 -13.32,14.92 -15.08,11.86 -14.77,10.44 -14.47,9.02 -13.93,7.51 -13.40,6.00 -11.78,3.55 -10.17,1.10 -8.87,0.19 -7.57,-0.71 -5.95,-1.15 -4.33,-1.60 -2.34,-2.00 -0.34,-2.41 -0.05,-2.42 0.24,-2.42 0.52,-2.36 0.81,-2.29 1.07,-2.16 1.34,-2.03 1.56,-1.84 1.79,-1.65 1.96,-1.41 2.13,-1.17 2.24,-0.90 2.35,-0.63 2.39,-0.34 2.43,-0.05 2.40,0.24 2.37,0.53 2.28,0.81 2.18,1.08 2.02,1.33 1.85,1.57 1.64,1.77 1.42,1.97 1.16,2.11 0.91,2.26 0.62,2.33 0.34,2.41 0.34,2.41 L 0.34,2.41 Z"></path></g><g transform="translate(670.1644287109375 540.1496429443359) rotate(0 11 -5.5)" stroke="none"><path fill="#000" d="M -1.78,-1.24 Q -1.78,-1.24 0.32,-4.05 2.43,-6.86 4.26,-8.95 6.09,-11.05 7.49,-12.34 8.89,-13.64 10.19,-14.00 11.48,-14.36 12.76,-12.18 14.03,-10.00 14.27,-8.11 14.51,-6.23 14.69,-4.79 14.88,-3.35 15.98,-1.93 17.08,-0.51 18.30,-1.96 19.52,-3.41 19.89,-3.64 20.26,-3.87 20.68,-3.96 21.11,-4.06 21.54,-4.01 21.98,-3.97 22.37,-3.79 22.77,-3.61 23.09,-3.31 23.40,-3.02 23.61,-2.63 23.82,-2.25 23.89,-1.82 23.96,-1.39 23.90,-0.96 23.83,-0.53 23.63,-0.15 23.43,0.23 23.11,0.53 22.80,0.83 22.41,1.02 22.01,1.20 21.58,1.25 21.15,1.30 20.72,1.21 20.30,1.12 19.92,0.90 19.55,0.68 19.26,0.35 18.98,0.02 18.82,-0.37 18.65,-0.78 18.62,-1.21 18.60,-1.65 18.71,-2.07 18.83,-2.49 19.07,-2.85 19.31,-3.21 19.65,-3.48 20.00,-3.74 20.41,-3.88 20.82,-4.02 21.26,-4.03 21.69,-4.03 22.10,-3.90 22.52,-3.76 22.87,-3.50 23.21,-3.24 23.46,-2.88 23.71,-2.52 23.83,-2.10 23.95,-1.68 23.93,-1.25 23.91,-0.81 23.75,-0.41 23.59,-0.00 23.31,0.32 23.03,0.65 23.03,0.65 23.03,0.65 21.06,2.23 19.09,3.80 17.18,3.91 15.28,4.03 14.27,3.11 13.27,2.18 12.69,1.25 12.11,0.31 11.41,-1.24 10.70,-2.81 10.60,-4.18 10.50,-5.56 10.87,-8.22 11.24,-10.89 10.03,-9.83 8.82,-8.78 7.22,-6.71 5.61,-4.63 3.69,-1.69 1.78,1.24 1.60,1.44 1.43,1.63 1.21,1.78 0.99,1.93 0.75,2.02 0.50,2.11 0.24,2.14 -0.01,2.17 -0.27,2.13 -0.53,2.10 -0.77,2.01 -1.02,1.91 -1.23,1.76 -1.45,1.61 -1.62,1.41 -1.79,1.22 -1.91,0.98 -2.03,0.75 -2.09,0.50 -2.15,0.24 -2.15,-0.01 -2.15,-0.27 -2.09,-0.53 -2.02,-0.78 -1.90,-1.01 -1.78,-1.24 -1.78,-1.24 L -1.78,-1.24 Z"></path></g><g transform="translate(699.1644287109375 543.7595520019531) rotate(0 10 -2)" stroke="none"><path fill="#000" d="M -0.33,-2.02 Q -0.33,-2.02 1.38,-2.30 3.11,-2.58 5.80,-3.17 8.48,-3.75 11.22,-4.00 13.95,-4.25 16.22,-4.91 18.49,-5.57 18.79,-5.60 19.10,-5.62 19.39,-5.55 19.69,-5.47 19.95,-5.31 20.21,-5.14 20.40,-4.90 20.59,-4.66 20.69,-4.37 20.80,-4.09 20.80,-3.78 20.81,-3.47 20.72,-3.18 20.63,-2.89 20.45,-2.64 20.27,-2.39 20.02,-2.22 19.77,-2.04 19.48,-1.95 19.19,-1.86 18.88,-1.87 18.58,-1.88 18.29,-1.99 18.00,-2.09 17.76,-2.28 17.53,-2.48 17.36,-2.73 17.20,-2.99 17.13,-3.29 17.05,-3.59 17.08,-3.89 17.10,-4.20 17.23,-4.48 17.35,-4.76 17.55,-4.99 17.76,-5.21 18.02,-5.36 18.29,-5.51 18.59,-5.57 18.89,-5.63 19.20,-5.58 19.50,-5.54 19.77,-5.40 20.05,-5.27 20.26,-5.05 20.48,-4.83 20.61,-4.56 20.75,-4.29 20.79,-3.98 20.83,-3.68 20.77,-3.38 20.71,-3.08 20.56,-2.81 20.41,-2.55 20.18,-2.34 19.95,-2.14 19.67,-2.02 19.39,-1.90 19.39,-1.90 19.39,-1.90 16.86,-1.38 14.34,-0.87 11.86,-0.52 9.39,-0.18 6.58,0.62 3.78,1.43 2.06,1.73 0.33,2.02 0.09,2.04 -0.15,2.05 -0.40,2.00 -0.64,1.95 -0.86,1.84 -1.09,1.74 -1.28,1.58 -1.47,1.43 -1.62,1.23 -1.77,1.03 -1.87,0.80 -1.97,0.58 -2.01,0.33 -2.05,0.09 -2.03,-0.15 -2.01,-0.40 -1.94,-0.63 -1.86,-0.87 -1.73,-1.08 -1.59,-1.29 -1.42,-1.46 -1.24,-1.64 -1.02,-1.76 -0.81,-1.88 -0.57,-1.95 -0.33,-2.02 -0.33,-2.02 L -0.33,-2.02 Z"></path></g><g transform="translate(710.1644287109375 537.0625152587891) rotate(0 -0.5 7)" stroke="none"><path fill="#000" d="M 2.18,0 Q 2.18,0 2.07,2.30 1.95,4.60 1.57,6.84 1.19,9.09 1.05,11.35 0.92,13.62 0.85,13.92 0.78,14.22 0.62,14.48 0.46,14.74 0.22,14.94 -0.00,15.13 -0.29,15.24 -0.58,15.35 -0.88,15.37 -1.19,15.38 -1.48,15.29 -1.78,15.21 -2.03,15.03 -2.28,14.86 -2.47,14.61 -2.65,14.37 -2.74,14.07 -2.84,13.78 -2.83,13.48 -2.83,13.17 -2.73,12.88 -2.63,12.59 -2.44,12.35 -2.25,12.10 -2.00,11.93 -1.74,11.77 -1.44,11.69 -1.15,11.61 -0.84,11.63 -0.53,11.65 -0.25,11.76 0.02,11.88 0.26,12.08 0.49,12.28 0.64,12.55 0.80,12.81 0.86,13.11 0.92,13.41 0.89,13.72 0.85,14.02 0.72,14.30 0.59,14.58 0.37,14.80 0.16,15.02 -0.10,15.16 -0.38,15.30 -0.68,15.35 -0.98,15.39 -1.29,15.34 -1.59,15.29 -1.86,15.14 -2.13,14.99 -2.34,14.77 -2.54,14.54 -2.67,14.26 -2.80,13.98 -2.83,13.68 -2.86,13.37 -2.86,13.37 -2.86,13.37 -2.60,10.99 -2.34,8.61 -2.14,6.60 -1.95,4.59 -2.07,2.29 -2.18,0 -2.15,-0.26 -2.12,-0.52 -2.03,-0.77 -1.93,-1.01 -1.78,-1.23 -1.63,-1.45 -1.44,-1.62 -1.24,-1.80 -1.00,-1.92 -0.77,-2.04 -0.51,-2.10 -0.26,-2.17 0.00,-2.17 0.26,-2.17 0.51,-2.10 0.77,-2.04 1.00,-1.92 1.24,-1.80 1.44,-1.62 1.63,-1.45 1.78,-1.23 1.93,-1.01 2.03,-0.76 2.12,-0.52 2.15,-0.26 2.18,0.00 2.18,0.00 L 2.18,0 Z"></path></g><g transform="translate(727.2100219726562 546.4981536865234) rotate(0 4.5 -2)" stroke="none"><path fill="#000000" d="M -1.73,-0.94 Q -1.73,-0.94 0.06,-4.06 1.86,-7.18 3.21,-9.89 4.55,-12.60 5.41,-13.95 6.26,-15.30 6.55,-16.15 6.83,-16.99 7.00,-17.17 7.16,-17.35 7.36,-17.48 7.56,-17.62 7.79,-17.70 8.02,-17.78 8.26,-17.81 8.50,-17.83 8.74,-17.80 8.97,-17.76 9.20,-17.68 9.42,-17.59 9.62,-17.45 9.82,-17.31 9.97,-17.12 10.13,-16.94 10.24,-16.72 10.35,-16.51 10.40,-16.27 10.46,-16.04 10.45,-15.80 10.45,-15.55 10.39,-15.32 10.33,-15.09 10.21,-14.88 10.10,-14.66 9.11,-10.24 8.12,-5.81 7.36,-1.50 6.61,2.81 6.57,5.40 6.53,7.99 6.61,10.04 6.70,12.10 6.66,12.37 6.61,12.64 6.48,12.88 6.35,13.13 6.15,13.32 5.95,13.50 5.70,13.62 5.45,13.73 5.17,13.76 4.90,13.79 4.63,13.73 4.36,13.67 4.13,13.53 3.89,13.38 3.71,13.17 3.54,12.96 3.43,12.70 3.33,12.45 3.32,12.17 3.31,11.90 3.38,11.63 3.46,11.37 3.61,11.14 3.77,10.91 3.99,10.75 4.21,10.58 4.47,10.49 4.73,10.41 5.01,10.41 5.28,10.41 5.54,10.50 5.80,10.59 6.02,10.76 6.24,10.92 6.39,11.15 6.55,11.38 6.62,11.65 6.69,11.91 6.68,12.19 6.66,12.46 6.56,12.72 6.45,12.97 6.28,13.18 6.10,13.39 5.86,13.53 5.62,13.68 5.35,13.73 5.08,13.79 4.81,13.76 4.54,13.73 4.29,13.61 4.04,13.50 3.84,13.30 3.64,13.11 3.51,12.87 3.38,12.63 3.34,12.35 3.30,12.08 3.30,12.08 3.30,12.08 3.40,10.03 3.51,7.97 3.50,5.14 3.48,2.30 4.15,-2.09 4.82,-6.49 5.83,-11.74 6.83,-16.99 7.00,-17.17 7.16,-17.35 7.36,-17.48 7.56,-17.62 7.79,-17.70 8.02,-17.78 8.26,-17.81 8.50,-17.83 8.74,-17.80 8.97,-17.76 9.20,-17.68 9.42,-17.59 9.62,-17.45 9.82,-17.31 9.97,-17.12 10.13,-16.94 10.24,-16.72 10.35,-16.51 10.40,-16.27 10.46,-16.04 10.45,-15.80 10.45,-15.55 10.39,-15.32 10.33,-15.09 10.21,-14.88 10.10,-14.66 9.66,-13.93 9.23,-13.20 8.40,-12.18 7.57,-11.17 6.30,-8.31 5.03,-5.46 3.38,-2.25 1.73,0.94 1.59,1.14 1.45,1.33 1.27,1.48 1.09,1.64 0.88,1.75 0.67,1.85 0.43,1.91 0.20,1.96 -0.03,1.96 -0.26,1.95 -0.50,1.89 -0.73,1.83 -0.94,1.72 -1.14,1.60 -1.32,1.44 -1.50,1.28 -1.63,1.08 -1.76,0.89 -1.84,0.66 -1.92,0.44 -1.95,0.20 -1.97,-0.03 -1.94,-0.26 -1.91,-0.50 -1.82,-0.72 -1.73,-0.94 -1.73,-0.94 L -1.73,-0.94 Z"></path></g><g transform="translate(823.0752563476562 582.2703857421875) rotate(0 22 113.5)" stroke="none"><path fill="#1864ab" d="M -0.44,-2.24 Q -0.44,-2.24 0.98,-2.54 2.42,-2.84 4.74,-2.71 7.06,-2.58 7.85,-1.87 8.64,-1.16 10.10,-0.15 11.55,0.86 12.65,3.05 13.75,5.24 14.40,7.34 15.05,9.44 15.41,10.96 15.77,12.48 16.36,14.05 16.95,15.63 17.73,18.17 18.52,20.71 19.66,23.76 20.80,26.81 21.87,30.50 22.94,34.19 23.66,36.90 24.37,39.61 24.97,43.13 25.56,46.65 26.63,50.03 27.71,53.42 28.75,57.23 29.79,61.04 30.79,63.74 31.78,66.45 32.52,70.91 33.27,75.37 33.86,80.40 34.46,85.44 35.27,90.12 36.09,94.79 37.01,99.07 37.93,103.35 38.33,106.39 38.73,109.42 39.46,112.64 40.19,115.86 41.08,119.54 41.96,123.23 42.35,126.89 42.75,130.56 42.91,133.26 43.07,135.97 43.14,138.85 43.21,141.73 43.52,144.33 43.83,146.92 44.25,149.45 44.67,151.99 44.85,154.87 45.04,157.75 44.84,159.92 44.64,162.09 44.55,164.36 44.46,166.63 44.48,168.46 44.50,170.30 44.25,172.07 44.01,173.85 43.70,176.23 43.39,178.60 42.99,180.06 42.59,181.51 42.48,182.81 42.37,184.10 42.35,185.24 42.34,186.37 42.06,188.39 41.78,190.41 41.68,192.59 41.57,194.78 41.57,196.00 41.57,197.22 41.14,199.33 40.71,201.44 40.57,203.05 40.42,204.65 40.37,206.20 40.32,207.74 40.01,209.23 39.71,210.71 39.29,211.97 38.86,213.22 38.03,214.71 37.19,216.20 36.24,217.66 35.28,219.12 33.88,220.67 32.48,222.22 31.24,223.30 30.00,224.38 27.75,225.15 25.49,225.92 23.24,226.68 20.98,227.44 18.78,228.05 16.59,228.66 14.25,228.77 11.91,228.88 11.61,228.83 11.31,228.78 11.04,228.63 10.77,228.49 10.56,228.27 10.36,228.05 10.23,227.77 10.10,227.49 10.07,227.19 10.04,226.89 10.11,226.59 10.18,226.29 10.34,226.03 10.49,225.78 10.73,225.58 10.96,225.38 11.24,225.27 11.53,225.16 11.83,225.15 12.13,225.13 12.43,225.22 12.72,225.30 12.97,225.47 13.22,225.65 13.40,225.89 13.58,226.13 13.68,226.42 13.77,226.71 13.77,227.01 13.77,227.32 13.67,227.60 13.57,227.89 13.39,228.13 13.20,228.37 12.95,228.54 12.70,228.71 12.40,228.79 12.11,228.87 11.81,228.85 11.50,228.83 11.22,228.72 10.94,228.60 10.71,228.41 10.48,228.21 10.32,227.95 10.17,227.68 10.10,227.39 10.04,227.09 10.08,226.79 10.11,226.49 10.24,226.21 10.37,225.94 10.58,225.72 10.79,225.50 11.06,225.36 11.33,225.22 11.63,225.17 11.93,225.12 11.93,225.12 11.93,225.12 13.78,225.26 15.63,225.40 17.64,224.70 19.66,224.00 21.89,223.04 24.13,222.07 25.69,221.49 27.25,220.91 28.22,220.17 29.18,219.42 30.27,218.03 31.35,216.65 32.19,215.25 33.03,213.85 33.70,212.68 34.37,211.50 35.10,209.54 35.83,207.57 35.89,205.94 35.94,204.32 36.05,202.53 36.16,200.75 36.32,198.93 36.49,197.11 36.53,195.86 36.58,194.60 36.61,192.92 36.65,191.24 36.87,190.06 37.10,188.88 37.49,187.48 37.88,186.08 38.02,184.83 38.17,183.57 38.42,181.94 38.68,180.32 39.14,178.96 39.61,177.59 40.25,175.43 40.88,173.27 41.24,171.75 41.60,170.23 41.70,168.38 41.80,166.52 41.88,164.17 41.97,161.81 42.20,159.86 42.42,157.91 42.25,155.16 42.07,152.42 41.65,149.82 41.22,147.23 40.90,144.51 40.58,141.80 40.51,138.96 40.44,136.12 40.28,133.48 40.12,130.84 39.76,127.34 39.39,123.84 38.50,120.14 37.61,116.44 36.85,113.10 36.10,109.77 35.71,106.84 35.32,103.91 34.39,99.59 33.45,95.26 32.62,90.51 31.78,85.76 31.18,80.78 30.59,75.81 29.89,71.61 29.19,67.40 28.14,64.59 27.09,61.79 26.03,58.05 24.97,54.30 23.80,50.74 22.63,47.17 22.01,43.81 21.39,40.45 20.59,37.80 19.80,35.15 18.67,31.64 17.54,28.13 16.22,25.06 14.89,22.00 13.93,19.61 12.97,17.23 12.16,15.33 11.35,13.43 11.12,12.18 10.90,10.94 10.17,9.24 9.44,7.54 7.97,5.56 6.49,3.59 4.91,2.64 3.32,1.69 1.88,1.97 0.44,2.24 0.17,2.27 -0.10,2.29 -0.37,2.24 -0.64,2.20 -0.90,2.09 -1.15,1.98 -1.37,1.81 -1.59,1.64 -1.76,1.43 -1.94,1.21 -2.06,0.96 -2.17,0.71 -2.23,0.44 -2.28,0.17 -2.27,-0.10 -2.26,-0.37 -2.18,-0.64 -2.10,-0.90 -1.96,-1.14 -1.82,-1.38 -1.63,-1.58 -1.44,-1.78 -1.20,-1.92 -0.97,-2.07 -0.71,-2.16 -0.44,-2.24 -0.44,-2.24 L -0.44,-2.24 Z"></path></g><g transform="translate(883.4693603515625 683.5357360839844) rotate(0 7.5 20)" stroke="none"><path fill="#1864ab" d="M -0.14,-1.68 Q -0.14,-1.68 3.32,-1.91 6.78,-2.15 9.65,-1.62 12.52,-1.08 14.27,0.41 16.01,1.92 16.85,3.26 17.69,4.60 17.73,6.90 17.77,9.21 16.51,12.85 15.25,16.49 13.24,20.59 11.23,24.69 8.91,28.47 6.59,32.25 5.34,34.38 4.08,36.52 2.95,38.32 1.82,40.12 0.71,41.38 -0.40,42.64 -0.61,42.79 -0.82,42.94 -1.06,43.01 -1.31,43.09 -1.56,43.08 -1.82,43.07 -2.06,42.98 -2.30,42.89 -2.50,42.73 -2.70,42.57 -2.83,42.36 -2.97,42.14 -3.03,41.90 -3.09,41.65 -3.07,41.39 -3.05,41.14 -2.95,40.90 -2.85,40.67 -2.68,40.48 -2.51,40.29 -2.29,40.16 -2.06,40.04 -1.81,39.99 -1.56,39.94 -1.31,39.97 -1.05,40.01 -0.83,40.12 -0.60,40.24 -0.42,40.42 -0.24,40.60 -0.12,40.83 -0.01,41.06 0.02,41.31 0.05,41.56 0.00,41.81 -0.04,42.07 -0.16,42.29 -0.29,42.51 -0.48,42.68 -0.67,42.85 -0.90,42.95 -1.14,43.05 -1.39,43.07 -1.65,43.09 -1.90,43.03 -2.14,42.97 -2.36,42.83 -2.58,42.70 -2.74,42.50 -2.90,42.30 -2.98,42.06 -3.07,41.82 -3.08,41.56 -3.08,41.31 -3.01,41.06 -2.93,40.82 -2.79,40.61 -2.64,40.40 -2.64,40.40 -2.64,40.40 -1.60,39.51 -0.56,38.61 0.52,36.85 1.60,35.09 2.84,32.90 4.07,30.72 6.27,27.04 8.47,23.37 10.33,19.40 12.19,15.44 13.26,12.27 14.32,9.09 14.08,6.60 13.84,4.10 12.79,2.92 11.74,1.75 9.37,1.37 7.01,1.00 3.57,1.34 0.14,1.68 -0.06,1.67 -0.26,1.66 -0.46,1.60 -0.65,1.55 -0.83,1.45 -1.00,1.35 -1.15,1.20 -1.30,1.06 -1.41,0.89 -1.52,0.72 -1.58,0.53 -1.65,0.34 -1.66,0.13 -1.68,-0.06 -1.65,-0.26 -1.62,-0.46 -1.54,-0.65 -1.46,-0.83 -1.34,-1.00 -1.21,-1.16 -1.06,-1.29 -0.90,-1.42 -0.72,-1.51 -0.53,-1.59 -0.33,-1.63 -0.13,-1.68 -0.13,-1.68 L -0.14,-1.68 Z"></path></g><g transform="translate(922.03369140625 689.3198852539062) rotate(0 -10.5 12)" stroke="none"><path fill="#1864ab" d="M -0.20,1.62 Q -0.20,1.62 -2.48,1.28 -4.76,0.95 -6.64,1.36 -8.53,1.77 -10.41,2.74 -12.29,3.71 -13.57,4.93 -14.86,6.15 -16.25,8.01 -17.64,9.87 -18.18,11.91 -18.71,13.95 -18.41,16.08 -18.10,18.21 -17.19,19.50 -16.28,20.80 -14.39,21.85 -12.50,22.89 -9.40,23.04 -6.30,23.18 -6.04,23.25 -5.78,23.33 -5.55,23.48 -5.33,23.63 -5.17,23.84 -5.00,24.05 -4.92,24.31 -4.83,24.56 -4.83,24.83 -4.83,25.10 -4.91,25.36 -5.00,25.62 -5.16,25.83 -5.32,26.05 -5.54,26.20 -5.77,26.35 -6.02,26.42 -6.28,26.50 -6.55,26.48 -6.82,26.47 -7.07,26.37 -7.32,26.27 -7.53,26.10 -7.74,25.92 -7.88,25.69 -8.02,25.46 -8.08,25.20 -8.14,24.94 -8.11,24.67 -8.08,24.40 -7.97,24.16 -7.85,23.91 -7.67,23.71 -7.49,23.52 -7.25,23.39 -7.01,23.26 -6.74,23.22 -6.48,23.17 -6.21,23.22 -5.95,23.26 -5.71,23.38 -5.47,23.51 -5.28,23.70 -5.10,23.90 -4.98,24.14 -4.87,24.39 -4.84,24.66 -4.81,24.92 -4.86,25.19 -4.92,25.45 -5.06,25.68 -5.20,25.91 -5.40,26.09 -5.61,26.27 -5.86,26.37 -6.11,26.47 -6.38,26.48 -6.65,26.50 -6.64,26.50 -6.64,26.50 -10.24,25.94 -13.84,25.39 -16.24,23.93 -18.65,22.46 -19.73,20.56 -20.80,18.66 -21.11,15.97 -21.42,13.29 -20.70,10.76 -19.98,8.22 -18.42,6.09 -16.85,3.96 -15.24,2.56 -13.62,1.17 -11.40,0.02 -9.17,-1.11 -6.80,-1.61 -4.43,-2.10 -2.11,-1.86 0.20,-1.62 0.39,-1.57 0.58,-1.52 0.75,-1.43 0.93,-1.34 1.07,-1.20 1.22,-1.07 1.33,-0.91 1.44,-0.75 1.51,-0.56 1.58,-0.38 1.60,-0.18 1.63,0.00 1.60,0.20 1.58,0.39 1.51,0.58 1.44,0.76 1.33,0.92 1.21,1.08 1.07,1.21 0.92,1.34 0.74,1.43 0.57,1.52 0.38,1.57 0.19,1.62 -0.00,1.62 -0.20,1.62 -0.20,1.62 L -0.20,1.62 Z"></path></g><g transform="translate(924.5564575195312 727.1456298828125) rotate(0 16.5 -6.5)" stroke="none"><path fill="#1864ab" d="M -1.54,-1.07 Q -1.54,-1.07 0.53,-3.91 2.60,-6.74 4.11,-8.54 5.62,-10.35 6.88,-11.56 8.14,-12.78 8.56,-12.98 8.99,-13.18 9.18,-13.31 9.36,-13.44 9.58,-13.53 9.79,-13.61 10.02,-13.64 10.25,-13.66 10.48,-13.64 10.70,-13.61 10.92,-13.53 11.13,-13.45 11.32,-13.32 11.51,-13.19 11.67,-13.02 11.82,-12.84 11.92,-12.64 12.03,-12.44 12.09,-12.21 12.14,-11.99 12.14,-11.76 12.14,-11.53 12.09,-11.31 12.03,-11.09 11.93,-10.88 11.82,-10.68 11.67,-10.51 11.52,-10.34 11.95,-9.20 12.38,-8.06 12.74,-6.54 13.09,-5.02 15.80,-5.32 18.50,-5.62 20.99,-6.69 23.48,-7.75 27.01,-9.75 30.54,-11.75 30.82,-11.85 31.10,-11.94 31.39,-11.95 31.69,-11.95 31.97,-11.85 32.25,-11.76 32.48,-11.58 32.72,-11.40 32.89,-11.16 33.05,-10.91 33.14,-10.63 33.22,-10.34 33.20,-10.05 33.19,-9.75 33.08,-9.48 32.97,-9.20 32.78,-8.98 32.59,-8.75 32.33,-8.60 32.08,-8.44 31.79,-8.38 31.50,-8.31 31.21,-8.35 30.91,-8.38 30.65,-8.50 30.38,-8.62 30.16,-8.83 29.95,-9.03 29.81,-9.29 29.67,-9.55 29.62,-9.84 29.57,-10.13 29.62,-10.43 29.66,-10.72 29.80,-10.98 29.94,-11.24 30.15,-11.45 30.37,-11.65 30.63,-11.78 30.90,-11.90 31.20,-11.93 31.49,-11.97 31.78,-11.90 32.07,-11.84 32.32,-11.69 32.58,-11.54 32.77,-11.31 32.96,-11.09 33.07,-10.81 33.18,-10.54 33.20,-10.24 33.22,-9.95 33.14,-9.66 33.06,-9.38 32.89,-9.13 32.73,-8.89 32.49,-8.71 32.26,-8.53 32.26,-8.53 32.26,-8.53 28.54,-6.65 24.82,-4.78 22.11,-3.51 19.40,-2.23 16.22,-1.56 13.04,-0.88 11.41,-2.42 9.78,-3.96 9.38,-5.82 8.98,-7.68 8.98,-10.43 8.99,-13.18 9.18,-13.31 9.36,-13.44 9.58,-13.53 9.79,-13.61 10.02,-13.64 10.25,-13.66 10.48,-13.64 10.70,-13.61 10.92,-13.53 11.13,-13.45 11.32,-13.32 11.51,-13.19 11.67,-13.02 11.82,-12.84 11.92,-12.64 12.03,-12.44 12.09,-12.22 12.14,-11.99 12.14,-11.76 12.14,-11.53 12.09,-11.31 12.03,-11.09 11.93,-10.88 11.82,-10.68 11.67,-10.51 11.52,-10.34 10.93,-10.22 10.35,-10.10 9.25,-9.22 8.14,-8.33 6.79,-6.54 5.44,-4.75 3.49,-1.83 1.54,1.07 1.39,1.24 1.23,1.41 1.05,1.54 0.86,1.67 0.65,1.75 0.43,1.83 0.21,1.85 -0.01,1.88 -0.23,1.85 -0.46,1.82 -0.67,1.74 -0.88,1.66 -1.07,1.53 -1.25,1.40 -1.40,1.22 -1.55,1.05 -1.66,0.85 -1.76,0.65 -1.81,0.43 -1.87,0.21 -1.86,-0.01 -1.86,-0.23 -1.81,-0.45 -1.75,-0.67 -1.64,-0.87 -1.54,-1.07 -1.54,-1.07 L -1.54,-1.07 Z"></path></g></svg>