<svg version="1.1" xmlns="http://www.w3.org/2000/svg" viewBox="0 0 10020 794.0625" width="10020" height="794.0625">
  <!-- svg-source:excalidraw -->
  
  <defs>
    <style>
      @font-face {
        font-family: "Virgil";
        src: url("https://excalidraw.com/Virgil.woff2");
      }
      @font-face {
        font-family: "Cascadia";
        src: url("https://excalidraw.com/Cascadia.woff2");
      }
    </style>
  </defs>
  <rect x="0" y="0" width="10020" height="794.0625" fill="#ffffff"></rect><g stroke-linecap="round" transform="translate(10 10) rotate(0 5000 0.5)"><path d="M-0.52 -0.26 C3022.65 -30.2, 6044.59 -29.2, 9999.32 0.22 M0.38 -0.31 C3948.03 -0.44, 7895.41 0.2, 9999.95 0.08 M10000.08 -0.06 C10000.09 0.27, 10000.05 0.48, 10000.09 0.92 M9999.97 0.01 C9999.95 0.33, 9999.98 0.72, 10000 0.99 M10000.22 1.51 C7095.77 35.76, 4193.15 34.95, -0.25 0.75 M10000.01 1.13 C7827.97 2.74, 5656.23 3.35, -0.33 0.84 M-0.04 1.01 C0 0.63, -0.06 0.15, 0.05 -0.03 M-0.04 0.95 C-0.04 0.73, -0.03 0.59, -0.05 -0.02" stroke="transparent" stroke-width="1" fill="none"></path></g><g transform="translate(649 604.0625) rotate(0 -7 41)" stroke="none"><path fill="#1864ab" d="M -0.58,1.45 Q -0.58,1.45 -3.43,0.26 -6.29,-0.91 -9.07,-1.38 -11.85,-1.85 -15.46,-1.21 -19.08,-0.57 -22.08,0.24 -25.09,1.07 -29.17,2.82 -33.26,4.58 -37.18,7.82 -41.10,11.07 -44.73,16.38 -48.35,21.69 -50.74,27.89 -53.12,34.10 -53.84,38.95 -54.57,43.80 -54.02,49.50 -53.48,55.20 -51.56,60.70 -49.64,66.19 -46.60,70.45 -43.55,74.70 -41.15,77.06 -38.76,79.42 -35.58,80.92 -32.40,82.41 -28.28,83.05 -24.17,83.68 -17.95,82.54 -11.73,81.40 -4.54,78.36 2.65,75.33 7.72,72.61 12.79,69.90 17.75,65.92 22.70,61.94 26.80,57.70 30.89,53.45 33.72,48.58 36.55,43.72 38.31,38.83 40.07,33.94 40.52,29.38 40.97,24.83 40.89,21.77 40.81,18.72 39.38,15.29 37.96,11.87 35.95,8.70 33.94,5.53 32.27,3.66 30.60,1.79 28.30,0.51 26.00,-0.76 23.41,-1.29 20.82,-1.83 18.28,-2.07 15.74,-2.31 13.59,-2.13 11.44,-1.95 9.71,-1.54 7.99,-1.14 6.24,-0.20 4.50,0.72 1.76,1.17 -0.98,1.61 -1.06,1.36 -1.14,1.11 -1.14,0.85 -1.13,0.59 -1.04,0.35 -0.96,0.10 -0.79,-0.09 -0.63,-0.30 -0.41,-0.44 -0.20,-0.58 0.05,-0.65 0.30,-0.71 0.56,-0.69 0.82,-0.68 1.06,-0.58 1.30,-0.47 1.50,-0.30 1.69,-0.13 1.82,0.09 1.95,0.31 2.00,0.57 2.06,0.82 2.02,1.08 1.99,1.34 1.88,1.57 1.76,1.81 1.58,2.00 1.40,2.18 1.17,2.30 0.93,2.42 0.67,2.46 0.42,2.49 0.16,2.45 -0.09,2.40 -0.31,2.27 -0.54,2.15 -0.72,1.95 -0.89,1.76 -1.00,1.52 -1.11,1.29 -1.13,1.03 -1.15,0.77 -1.09,0.51 -1.03,0.26 -0.89,0.04 -0.75,-0.17 -0.55,-0.34 -0.35,-0.50 -0.11,-0.60 0.13,-0.69 0.39,-0.70 0.65,-0.71 0.90,-0.63 1.15,-0.56 1.36,-0.41 1.57,-0.26 1.73,-0.05 1.88,0.15 1.88,0.15 1.88,0.15 2.53,-0.78 3.18,-1.73 5.29,-2.83 7.40,-3.93 9.31,-4.25 11.23,-4.57 13.61,-4.75 15.99,-4.93 18.68,-4.66 21.37,-4.39 24.32,-3.72 27.27,-3.06 29.90,-1.52 32.53,0.02 34.34,2.07 36.15,4.13 38.27,7.50 40.39,10.88 41.91,14.74 43.42,18.59 43.50,21.84 43.59,25.09 43.07,29.96 42.55,34.82 40.68,39.93 38.82,45.03 35.81,50.15 32.79,55.26 28.57,59.63 24.34,63.99 19.19,68.10 14.04,72.21 8.85,74.98 3.67,77.75 -3.79,80.87 -11.26,83.98 -17.90,85.13 -24.54,86.28 -29.02,85.54 -33.51,84.80 -37.04,83.06 -40.57,81.32 -43.13,78.78 -45.70,76.23 -48.91,71.66 -52.13,67.08 -54.12,61.27 -56.11,55.46 -56.65,49.44 -57.19,43.42 -56.40,38.28 -55.61,33.15 -53.09,26.67 -50.57,20.19 -46.70,14.60 -42.84,9.01 -38.60,5.55 -34.37,2.09 -30.10,0.25 -25.83,-1.59 -22.69,-2.47 -19.56,-3.35 -15.49,-4.02 -11.43,-4.70 -8.31,-4.19 -5.20,-3.68 -2.31,-2.56 0.58,-1.45 0.74,-1.35 0.91,-1.26 1.04,-1.14 1.18,-1.01 1.29,-0.85 1.39,-0.70 1.45,-0.52 1.52,-0.34 1.54,-0.15 1.56,0.02 1.53,0.21 1.50,0.40 1.43,0.57 1.36,0.75 1.26,0.90 1.15,1.05 1.00,1.17 0.86,1.30 0.69,1.38 0.52,1.47 0.34,1.51 0.16,1.55 -0.02,1.55 -0.21,1.54 -0.39,1.49 -0.58,1.45 -0.58,1.45 L -0.58,1.45 Z"></path></g><g transform="translate(626 645.0625) rotate(0 13.5 -3)" stroke="none"><path fill="#1864ab" d="M -0.84,-1.83 Q -0.84,-1.83 2.93,-3.47 6.70,-5.11 10.35,-6.64 13.99,-8.18 16.67,-9.38 19.36,-10.58 21.08,-11.42 22.80,-12.25 23.98,-12.42 25.15,-12.59 26.13,-11.84 27.10,-11.09 27.19,-9.34 27.29,-7.60 26.83,-5.33 26.37,-3.05 26.27,-1.57 26.17,-0.09 26.40,1.13 26.64,2.36 27.48,3.25 28.33,4.15 28.48,4.46 28.64,4.77 28.69,5.12 28.73,5.47 28.67,5.81 28.60,6.15 28.43,6.46 28.26,6.76 28.00,7.00 27.74,7.23 27.42,7.37 27.10,7.51 26.75,7.53 26.40,7.56 26.06,7.48 25.72,7.40 25.43,7.21 25.13,7.02 24.91,6.75 24.69,6.47 24.57,6.15 24.45,5.82 24.44,5.47 24.43,5.12 24.54,4.79 24.64,4.45 24.84,4.17 25.05,3.88 25.33,3.68 25.61,3.47 25.95,3.37 26.28,3.27 26.63,3.28 26.98,3.29 27.31,3.41 27.64,3.53 27.91,3.75 28.18,3.97 28.37,4.26 28.56,4.56 28.64,4.89 28.73,5.23 28.70,5.58 28.67,5.93 28.53,6.25 28.40,6.57 28.16,6.83 27.93,7.09 27.62,7.27 27.32,7.44 26.98,7.50 26.63,7.57 26.29,7.52 25.94,7.48 25.63,7.32 25.31,7.17 25.07,6.92 24.82,6.67 24.82,6.67 24.82,6.67 23.76,4.91 22.69,3.15 22.48,1.35 22.26,-0.44 22.47,-2.03 22.67,-3.63 23.39,-6.47 24.12,-9.31 22.41,-8.51 20.71,-7.70 18.03,-6.40 15.36,-5.09 11.80,-3.44 8.24,-1.78 4.54,0.02 0.84,1.83 0.61,1.90 0.38,1.98 0.13,1.99 -0.10,2.01 -0.34,1.97 -0.58,1.93 -0.80,1.83 -1.02,1.73 -1.21,1.58 -1.41,1.43 -1.56,1.24 -1.71,1.05 -1.81,0.83 -1.91,0.61 -1.96,0.37 -2.01,0.14 -1.99,-0.10 -1.98,-0.34 -1.91,-0.57 -1.84,-0.81 -1.72,-1.01 -1.59,-1.22 -1.42,-1.40 -1.25,-1.57 -1.05,-1.70 -0.84,-1.83 -0.84,-1.83 L -0.84,-1.83 Z"></path></g><g transform="translate(881 601.0625) rotate(0 -14 31)" stroke="none"><path fill="#1864ab" d="M -1.46,1.04 Q -1.46,1.04 -2.85,-1.00 -4.23,-3.05 -5.19,-4.50 -6.16,-5.94 -7.07,-6.98 -7.99,-8.02 -10.14,-8.66 -12.29,-9.29 -14.73,-9.55 -17.17,-9.82 -20.12,-9.42 -23.07,-9.02 -26.56,-7.76 -30.05,-6.50 -32.61,-4.88 -35.18,-3.26 -38.53,-0.06 -41.88,3.14 -45.01,7.32 -48.13,11.51 -50.31,15.53 -52.49,19.56 -53.69,22.66 -54.89,25.75 -55.09,29.50 -55.29,33.24 -54.83,37.10 -54.36,40.95 -53.04,45.11 -51.72,49.26 -49.49,52.95 -47.26,56.64 -44.94,59.01 -42.62,61.39 -39.10,63.80 -35.59,66.22 -31.29,68.08 -27.00,69.94 -22.40,70.71 -17.80,71.49 -14.16,71.54 -10.53,71.59 -5.96,70.21 -1.40,68.82 3.96,66.25 9.34,63.67 13.55,60.34 17.77,57.01 20.65,53.36 23.54,49.72 25.04,47.07 26.54,44.42 27.13,41.15 27.72,37.88 27.71,34.80 27.69,31.73 27.40,28.41 27.12,25.10 26.15,21.77 25.19,18.45 24.22,16.20 23.26,13.95 21.74,11.62 20.22,9.30 18.70,7.14 17.18,4.97 15.95,3.18 14.72,1.38 13.84,0.44 12.96,-0.49 11.81,-1.09 10.66,-1.68 8.98,-1.04 7.30,-0.40 5.41,0.21 3.53,0.83 3.21,0.89 2.89,0.96 2.56,0.92 2.23,0.88 1.94,0.73 1.64,0.59 1.40,0.36 1.17,0.13 1.02,-0.15 0.87,-0.45 0.82,-0.77 0.77,-1.10 0.83,-1.42 0.89,-1.75 1.05,-2.03 1.20,-2.32 1.45,-2.55 1.69,-2.77 1.99,-2.90 2.29,-3.04 2.62,-3.07 2.95,-3.10 3.27,-3.02 3.59,-2.95 3.87,-2.77 4.15,-2.60 4.36,-2.34 4.57,-2.09 4.69,-1.78 4.80,-1.47 4.82,-1.15 4.83,-0.82 4.74,-0.50 4.64,-0.18 4.45,0.08 4.26,0.35 4.00,0.54 3.73,0.74 3.42,0.84 3.11,0.94 2.78,0.93 2.45,0.93 2.14,0.82 1.83,0.71 1.57,0.50 1.31,0.30 1.13,0.03 0.95,-0.24 0.86,-0.56 0.78,-0.88 0.80,-1.21 0.83,-1.54 0.95,-1.84 1.08,-2.14 1.30,-2.39 1.51,-2.64 1.80,-2.80 2.08,-2.97 2.08,-2.97 2.08,-2.97 4.00,-3.80 5.93,-4.64 7.23,-4.97 8.53,-5.31 10.17,-5.35 11.82,-5.39 13.00,-4.76 14.18,-4.14 14.80,-3.27 15.42,-2.40 16.16,-1.24 16.89,-0.09 18.11,1.68 19.33,3.46 20.88,5.67 22.42,7.87 24.05,10.39 25.67,12.92 26.69,15.32 27.71,17.73 28.72,21.29 29.73,24.86 30.02,28.29 30.32,31.72 30.31,35.04 30.31,38.36 29.57,42.02 28.84,45.68 27.22,48.52 25.60,51.36 22.50,55.21 19.40,59.06 14.94,62.55 10.48,66.04 4.91,68.69 -0.64,71.34 -5.59,72.78 -10.53,74.22 -14.38,74.15 -18.24,74.09 -23.14,73.22 -28.03,72.36 -32.56,70.38 -37.08,68.40 -40.80,65.82 -44.51,63.24 -47.02,60.63 -49.53,58.02 -51.90,54.05 -54.26,50.08 -55.65,45.68 -57.03,41.28 -57.52,37.19 -58.00,33.09 -57.73,28.95 -57.46,24.81 -56.20,21.52 -54.95,18.24 -52.69,14.03 -50.43,9.81 -47.17,5.42 -43.92,1.03 -40.38,-2.39 -36.84,-5.83 -34.01,-7.67 -31.18,-9.50 -27.39,-10.95 -23.60,-12.41 -20.25,-12.97 -16.90,-13.54 -13.98,-13.38 -11.06,-13.22 -9.34,-12.65 -7.62,-12.07 -6.39,-11.27 -5.17,-10.47 -4.18,-9.14 -3.18,-7.82 -2.34,-6.40 -1.51,-4.99 -0.02,-3.02 1.46,-1.04 1.57,-0.85 1.67,-0.66 1.73,-0.45 1.78,-0.24 1.79,-0.02 1.79,0.18 1.74,0.40 1.69,0.61 1.59,0.80 1.50,1.00 1.35,1.16 1.21,1.33 1.04,1.45 0.86,1.58 0.66,1.66 0.45,1.74 0.24,1.77 0.02,1.80 -0.18,1.78 -0.40,1.75 -0.60,1.68 -0.81,1.61 -0.99,1.49 -1.17,1.36 -1.32,1.20 -1.46,1.04 -1.46,1.04 L -1.46,1.04 Z"></path></g><g transform="translate(862 622.0625) rotate(0 8 11)" stroke="none"><path fill="#1864ab" d="M -0.97,-1.62 Q -0.97,-1.62 0.45,-2.50 1.88,-3.38 2.88,-3.89 3.89,-4.40 5.40,-4.68 6.92,-4.96 8.41,-4.76 9.90,-4.56 11.66,-3.37 13.43,-2.19 14.78,0.41 16.13,3.02 16.05,6.68 15.96,10.33 14.66,13.95 13.35,17.57 12.48,19.62 11.61,21.66 10.21,23.14 8.80,24.62 7.11,25.03 5.41,25.44 3.57,24.26 1.73,23.07 0.67,21.89 -0.38,20.71 -0.88,18.37 -1.39,16.02 -0.57,13.38 0.24,10.75 1.53,8.52 2.82,6.29 3.78,5.80 4.75,5.31 3.13,4.22 1.51,3.13 1.32,2.94 1.12,2.75 1.00,2.51 0.88,2.26 0.84,1.99 0.81,1.73 0.86,1.46 0.91,1.19 1.04,0.96 1.17,0.72 1.37,0.54 1.57,0.36 1.82,0.25 2.07,0.14 2.34,0.12 2.61,0.10 2.87,0.16 3.13,0.23 3.36,0.37 3.59,0.52 3.76,0.73 3.93,0.94 4.03,1.19 4.12,1.45 4.13,1.72 4.14,1.99 4.06,2.25 3.98,2.51 3.82,2.73 3.67,2.95 3.45,3.10 3.23,3.26 2.97,3.34 2.71,3.42 2.44,3.42 2.17,3.41 1.91,3.32 1.66,3.23 1.45,3.06 1.24,2.89 1.09,2.66 0.94,2.43 0.88,2.17 0.81,1.91 0.83,1.64 0.85,1.37 0.96,1.12 1.07,0.87 1.25,0.67 1.43,0.47 1.66,0.33 1.90,0.20 2.16,0.15 2.43,0.09 2.70,0.13 2.96,0.17 3.21,0.29 3.45,0.41 3.45,0.41 3.45,0.41 5.19,1.71 6.93,3.02 6.33,5.46 5.73,7.91 4.69,9.88 3.66,11.85 3.06,13.68 2.46,15.51 2.67,16.91 2.89,18.32 3.53,19.19 4.17,20.07 5.45,21.03 6.73,22.00 7.73,21.19 8.72,20.39 9.44,18.41 10.15,16.44 11.22,13.31 12.30,10.18 12.39,7.42 12.49,4.67 11.56,3.01 10.62,1.36 9.01,0.39 7.39,-0.57 5.63,-0.31 3.86,-0.06 2.42,0.78 0.97,1.62 0.76,1.71 0.55,1.81 0.33,1.85 0.10,1.89 -0.11,1.87 -0.34,1.86 -0.56,1.79 -0.78,1.72 -0.97,1.60 -1.17,1.48 -1.33,1.32 -1.49,1.16 -1.61,0.96 -1.73,0.77 -1.79,0.55 -1.86,0.33 -1.87,0.10 -1.89,-0.12 -1.84,-0.34 -1.80,-0.56 -1.71,-0.77 -1.61,-0.98 -1.47,-1.16 -1.33,-1.34 -1.15,-1.48 -0.97,-1.62 -0.97,-1.62 L -0.97,-1.62 Z"></path></g><g transform="translate(884 566.0625) rotate(0 29 0.5)" stroke="none"><path fill="#000000" d="M -0.77,-1.35 Q -0.77,-1.35 1.25,-2.47 3.28,-3.59 5.32,-4.65 7.35,-5.70 9.90,-7.26 12.44,-8.82 15.35,-10.11 18.26,-11.40 22.40,-12.81 26.53,-14.22 29.44,-15.10 32.35,-15.99 36.06,-16.10 39.76,-16.20 43.44,-15.36 47.11,-14.51 49.57,-13.55 52.02,-12.59 54.07,-10.92 56.12,-9.24 57.12,-7.19 58.11,-5.13 57.91,-2.60 57.70,-0.07 56.37,2.52 55.04,5.12 53.61,7.32 52.18,9.53 51.38,11.04 50.58,12.55 49.64,13.89 48.71,15.23 47.75,16.45 46.80,17.67 46.58,17.86 46.35,18.05 46.08,18.16 45.81,18.26 45.51,18.28 45.22,18.29 44.94,18.21 44.66,18.13 44.42,17.96 44.17,17.80 44.00,17.56 43.82,17.33 43.73,17.05 43.64,16.77 43.64,16.48 43.65,16.19 43.74,15.91 43.84,15.63 44.02,15.40 44.19,15.17 44.44,15.01 44.68,14.84 44.96,14.77 45.25,14.69 45.54,14.71 45.83,14.73 46.10,14.84 46.37,14.95 46.60,15.14 46.82,15.33 46.97,15.58 47.12,15.83 47.18,16.12 47.24,16.41 47.20,16.70 47.17,16.99 47.04,17.25 46.92,17.52 46.72,17.73 46.51,17.94 46.25,18.08 45.99,18.21 45.70,18.26 45.42,18.30 45.13,18.25 44.84,18.20 44.58,18.06 44.32,17.92 44.12,17.71 43.92,17.50 43.80,17.23 43.68,16.96 43.65,16.67 43.62,16.38 43.69,16.09 43.75,15.81 43.91,15.56 44.06,15.31 44.06,15.31 44.06,15.31 45.07,14.25 46.09,13.18 47.05,12.11 48.01,11.03 48.97,9.55 49.93,8.07 51.29,5.96 52.65,3.85 53.82,1.70 55.00,-0.44 55.27,-2.32 55.54,-4.20 54.95,-5.75 54.36,-7.31 52.68,-8.72 51.01,-10.14 48.75,-11.03 46.50,-11.92 43.15,-12.72 39.81,-13.53 36.46,-13.46 33.12,-13.40 30.27,-12.52 27.42,-11.64 23.40,-10.26 19.39,-8.88 16.66,-7.65 13.93,-6.43 11.32,-4.79 8.71,-3.15 6.73,-2.07 4.76,-1.00 2.77,0.17 0.77,1.35 0.60,1.42 0.42,1.50 0.24,1.53 0.05,1.56 -0.13,1.54 -0.31,1.52 -0.49,1.46 -0.67,1.40 -0.83,1.30 -0.99,1.20 -1.12,1.06 -1.25,0.93 -1.34,0.76 -1.43,0.60 -1.49,0.42 -1.54,0.24 -1.54,0.05 -1.55,-0.13 -1.51,-0.31 -1.47,-0.50 -1.39,-0.67 -1.31,-0.84 -1.19,-0.98 -1.07,-1.13 -0.92,-1.24 -0.77,-1.35 -0.77,-1.35 L -0.77,-1.35 Z"></path></g><g transform="translate(926 570.0625) rotate(0 5 12.5)" stroke="none"><path fill="#000000" d="M 2.26,0.32 Q 2.26,0.32 1.87,2.32 1.48,4.32 0.65,6.73 -0.17,9.15 -1.13,11.58 -2.09,14.02 -2.73,15.66 -3.37,17.31 -3.54,18.81 -3.72,20.32 -3.58,21.56 -3.44,22.80 -2.11,21.88 -0.78,20.97 0.97,20.40 2.72,19.82 4.44,18.93 6.16,18.03 7.17,16.58 8.18,15.12 10.51,12.30 12.85,9.48 13.19,9.19 13.52,8.90 13.93,8.73 14.34,8.56 14.79,8.54 15.23,8.51 15.66,8.63 16.09,8.74 16.46,8.99 16.83,9.23 17.10,9.58 17.37,9.94 17.51,10.36 17.66,10.78 17.66,11.22 17.66,11.66 17.53,12.09 17.39,12.51 17.12,12.86 16.86,13.22 16.49,13.47 16.12,13.72 15.70,13.84 15.27,13.96 14.83,13.94 14.38,13.92 13.97,13.76 13.56,13.60 13.22,13.32 12.88,13.03 12.64,12.65 12.41,12.27 12.31,11.84 12.22,11.41 12.26,10.97 12.30,10.52 12.49,10.12 12.67,9.72 12.97,9.39 13.28,9.07 13.67,8.86 14.06,8.65 14.50,8.57 14.93,8.50 15.37,8.56 15.81,8.63 16.20,8.84 16.60,9.04 16.91,9.36 17.21,9.68 17.40,10.08 17.59,10.49 17.64,10.93 17.69,11.37 17.60,11.80 17.51,12.24 17.28,12.62 17.06,13.00 17.06,13.00 17.06,13.00 14.19,16.32 11.32,19.64 10.43,20.65 9.55,21.65 8.07,22.25 6.59,22.85 5.41,23.42 4.22,23.98 2.56,24.64 0.89,25.30 -1.73,26.24 -4.35,27.19 -5.98,25.79 -7.60,24.39 -7.88,22.66 -8.17,20.94 -7.82,19.48 -7.48,18.02 -7.08,16.98 -6.68,15.95 -6.00,14.40 -5.33,12.84 -4.54,10.45 -3.76,8.06 -3.19,5.89 -2.63,3.72 -2.44,1.70 -2.26,-0.32 -2.18,-0.58 -2.11,-0.85 -1.98,-1.09 -1.85,-1.33 -1.66,-1.53 -1.47,-1.74 -1.24,-1.89 -1.01,-2.04 -0.75,-2.13 -0.49,-2.22 -0.22,-2.25 0.04,-2.28 0.32,-2.24 0.59,-2.20 0.84,-2.10 1.10,-1.99 1.32,-1.83 1.54,-1.67 1.72,-1.46 1.90,-1.25 2.02,-1.01 2.15,-0.76 2.21,-0.49 2.27,-0.22 2.26,0.04 2.25,0.32 2.26,0.32 L 2.26,0.32 Z"></path></g><g transform="translate(976 544.0625) rotate(0 -3.5 12.5)" stroke="none"><path fill="#000000" d="M 1.98,0.39 Q 1.98,0.39 1.32,3.25 0.65,6.11 0.04,8.48 -0.55,10.86 -1.42,13.63 -2.28,16.40 -2.94,18.69 -3.60,20.98 -4.52,23.30 -5.44,25.63 -5.63,25.81 -5.81,25.99 -6.05,26.11 -6.29,26.22 -6.55,26.25 -6.81,26.28 -7.07,26.23 -7.33,26.18 -7.56,26.04 -7.78,25.91 -7.96,25.71 -8.13,25.51 -8.23,25.27 -8.33,25.02 -8.35,24.76 -8.36,24.50 -8.30,24.24 -8.23,23.99 -8.08,23.77 -7.94,23.55 -7.73,23.39 -7.52,23.23 -7.27,23.14 -7.02,23.05 -6.76,23.05 -6.50,23.05 -6.25,23.13 -6.00,23.21 -5.78,23.37 -5.57,23.52 -5.42,23.74 -5.27,23.96 -5.20,24.21 -5.13,24.46 -5.14,24.73 -5.15,24.99 -5.24,25.23 -5.34,25.48 -5.51,25.68 -5.68,25.89 -5.90,26.02 -6.12,26.16 -6.38,26.22 -6.64,26.28 -6.90,26.26 -7.16,26.23 -7.40,26.12 -7.64,26.01 -7.84,25.83 -8.03,25.66 -8.15,25.42 -8.28,25.19 -8.33,24.93 -8.37,24.67 -8.33,24.41 -8.29,24.15 -8.17,23.92 -8.05,23.68 -8.05,23.68 -8.05,23.68 -7.29,21.93 -6.53,20.18 -5.93,17.84 -5.34,15.51 -4.60,12.81 -3.86,10.12 -3.41,7.75 -2.95,5.38 -2.47,2.49 -1.98,-0.39 -1.91,-0.63 -1.83,-0.86 -1.70,-1.06 -1.57,-1.27 -1.40,-1.44 -1.22,-1.61 -1.01,-1.74 -0.80,-1.86 -0.56,-1.93 -0.33,-2.00 -0.08,-2.01 0.15,-2.02 0.39,-1.97 0.63,-1.92 0.85,-1.82 1.07,-1.71 1.26,-1.56 1.45,-1.41 1.60,-1.21 1.75,-1.02 1.85,-0.79 1.94,-0.57 1.98,-0.33 2.02,-0.08 2.00,0.15 1.98,0.39 1.98,0.39 L 1.98,0.39 Z"></path></g><g transform="translate(984 543.0625) rotate(0 4.5 7.5)" stroke="none"><path fill="#000000" d="M 0.28,-2.00 Q 0.28,-2.00 2.28,-1.64 4.29,-1.29 6.09,-0.87 7.90,-0.45 9.32,-0.01 10.74,0.41 12.64,1.92 14.55,3.43 14.15,5.56 13.75,7.69 11.76,9.52 9.76,11.35 8.04,12.37 6.31,13.39 4.08,14.31 1.85,15.24 -0.34,15.95 -2.54,16.66 -2.86,16.70 -3.18,16.73 -3.50,16.66 -3.81,16.59 -4.09,16.43 -4.36,16.26 -4.57,16.02 -4.78,15.77 -4.90,15.47 -5.02,15.17 -5.04,14.85 -5.06,14.52 -4.97,14.21 -4.89,13.90 -4.71,13.63 -4.53,13.37 -4.27,13.17 -4.01,12.97 -3.71,12.87 -3.40,12.77 -3.08,12.77 -2.75,12.77 -2.45,12.87 -2.14,12.97 -1.88,13.17 -1.63,13.36 -1.44,13.63 -1.26,13.90 -1.18,14.21 -1.09,14.52 -1.11,14.84 -1.12,15.16 -1.24,15.47 -1.36,15.77 -1.57,16.01 -1.78,16.26 -2.06,16.43 -2.33,16.59 -2.65,16.66 -2.96,16.73 -3.28,16.70 -3.61,16.66 -3.90,16.53 -4.19,16.39 -4.43,16.17 -4.66,15.95 -4.81,15.66 -4.97,15.38 -5.02,15.06 -5.07,14.74 -5.02,14.42 -4.97,14.10 -4.82,13.82 -4.67,13.53 -4.43,13.31 -4.20,13.09 -3.90,12.95 -3.61,12.81 -3.61,12.81 -3.61,12.81 -1.63,12.36 0.33,11.91 2.30,10.91 4.26,9.91 5.64,9.10 7.01,8.29 8.20,6.25 9.39,4.22 8.20,3.72 7.01,3.23 5.38,2.83 3.75,2.44 1.73,2.22 -0.28,2.00 -0.52,1.94 -0.75,1.87 -0.97,1.75 -1.18,1.64 -1.36,1.47 -1.54,1.31 -1.67,1.10 -1.81,0.90 -1.89,0.67 -1.97,0.44 -2.00,0.20 -2.02,-0.04 -1.99,-0.28 -1.95,-0.52 -1.86,-0.75 -1.77,-0.97 -1.62,-1.17 -1.48,-1.37 -1.30,-1.53 -1.11,-1.69 -0.89,-1.79 -0.67,-1.90 -0.43,-1.96 -0.20,-2.01 0.04,-2.00 0.28,-2.00 0.28,-2.00 L 0.28,-2.00 Z"></path></g><g transform="translate(610 589.0625) rotate(0 -19 15)" stroke="none"><path fill="#000000" d="M -0.51,1.53 Q -0.51,1.53 -2.24,0.98 -3.97,0.43 -6.07,-0.12 -8.16,-0.68 -9.86,-0.85 -11.56,-1.03 -13.97,-1.16 -16.38,-1.30 -18.76,-1.09 -21.14,-0.88 -23.71,0.28 -26.28,1.45 -28.77,3.33 -31.27,5.20 -32.55,6.76 -33.84,8.33 -34.62,10.84 -35.39,13.36 -35.46,16.05 -35.52,18.74 -34.73,21.20 -33.94,23.66 -33.03,25.22 -32.13,26.79 -30.95,27.90 -29.77,29.01 -28.49,29.67 -27.21,30.32 -25.18,30.74 -23.15,31.15 -22.88,31.25 -22.61,31.35 -22.38,31.53 -22.16,31.71 -22.00,31.96 -21.85,32.20 -21.78,32.48 -21.71,32.76 -21.74,33.05 -21.76,33.33 -21.87,33.60 -21.99,33.86 -22.18,34.08 -22.37,34.29 -22.62,34.43 -22.88,34.57 -23.16,34.63 -23.44,34.68 -23.73,34.64 -24.01,34.60 -24.27,34.47 -24.53,34.34 -24.73,34.14 -24.94,33.94 -25.06,33.68 -25.19,33.42 -25.23,33.13 -25.27,32.85 -25.21,32.57 -25.16,32.28 -25.02,32.03 -24.87,31.78 -24.66,31.59 -24.44,31.40 -24.18,31.28 -23.91,31.17 -23.63,31.15 -23.34,31.12 -23.06,31.19 -22.78,31.26 -22.54,31.42 -22.30,31.58 -22.12,31.80 -21.93,32.03 -21.84,32.30 -21.74,32.57 -21.73,32.86 -21.72,33.14 -21.81,33.42 -21.89,33.69 -22.06,33.93 -22.23,34.16 -22.46,34.33 -22.70,34.50 -22.97,34.58 -23.25,34.67 -23.54,34.66 -23.83,34.65 -23.83,34.65 -23.83,34.65 -26.37,33.92 -28.90,33.18 -30.42,32.16 -31.94,31.14 -33.27,29.65 -34.60,28.16 -35.55,26.31 -36.49,24.46 -37.35,21.58 -38.21,18.71 -38.10,15.63 -37.99,12.55 -37.00,9.59 -36.01,6.64 -34.49,4.80 -32.97,2.96 -30.23,0.90 -27.48,-1.16 -24.48,-2.50 -21.48,-3.84 -18.87,-4.12 -16.27,-4.41 -13.71,-4.35 -11.15,-4.30 -9.28,-4.02 -7.41,-3.74 -5.16,-3.24 -2.92,-2.73 -1.20,-2.13 0.51,-1.53 0.68,-1.45 0.86,-1.37 1.01,-1.24 1.16,-1.12 1.28,-0.96 1.40,-0.81 1.48,-0.63 1.55,-0.45 1.58,-0.25 1.61,-0.06 1.60,0.12 1.58,0.32 1.52,0.50 1.46,0.69 1.36,0.85 1.25,1.02 1.11,1.16 0.97,1.29 0.80,1.39 0.63,1.49 0.44,1.54 0.26,1.59 0.06,1.60 -0.12,1.61 -0.32,1.57 -0.51,1.53 -0.51,1.53 L -0.51,1.53 Z"></path></g><g transform="translate(566 635.0625) rotate(0 13 -10.5)" stroke="none"><path fill="#000000" d="M -1.26,-2.11 Q -1.26,-2.11 0.18,-2.94 1.64,-3.76 3.34,-4.86 5.03,-5.96 6.49,-6.30 7.95,-6.65 9.48,-6.75 11.02,-6.85 12.18,-7.08 13.34,-7.30 15.28,-7.36 17.22,-7.42 18.84,-7.43 20.46,-7.43 21.50,-7.94 22.54,-8.44 21.66,-10.00 20.79,-11.56 19.40,-12.77 18.01,-13.98 17.23,-15.05 16.46,-16.12 15.44,-17.84 14.42,-19.55 14.32,-20.01 14.21,-20.48 14.26,-20.95 14.31,-21.42 14.51,-21.85 14.71,-22.28 15.04,-22.62 15.36,-22.97 15.78,-23.19 16.20,-23.41 16.66,-23.49 17.13,-23.57 17.60,-23.49 18.06,-23.42 18.48,-23.20 18.90,-22.98 19.23,-22.63 19.56,-22.29 19.76,-21.86 19.96,-21.43 20.01,-20.96 20.06,-20.49 19.96,-20.03 19.86,-19.56 19.62,-19.16 19.37,-18.75 19.01,-18.44 18.65,-18.14 18.21,-17.96 17.77,-17.78 17.30,-17.76 16.83,-17.73 16.37,-17.86 15.91,-17.98 15.52,-18.25 15.13,-18.51 14.84,-18.89 14.55,-19.26 14.40,-19.71 14.25,-20.16 14.25,-20.63 14.25,-21.11 14.40,-21.56 14.55,-22.01 14.83,-22.38 15.12,-22.76 15.51,-23.03 15.90,-23.29 16.36,-23.42 16.81,-23.55 17.29,-23.53 17.76,-23.50 18.20,-23.33 18.64,-23.15 19.00,-22.85 19.36,-22.54 19.61,-22.14 19.85,-21.73 19.85,-21.73 19.85,-21.73 20.54,-20.54 21.23,-19.36 22.25,-18.08 23.26,-16.81 24.42,-15.68 25.57,-14.55 26.50,-13.15 27.42,-11.76 27.84,-8.91 28.26,-6.06 27.57,-5.16 26.87,-4.26 24.96,-3.70 23.06,-3.14 21.92,-2.77 20.78,-2.40 19.18,-2.30 17.59,-2.20 16.02,-2.01 14.46,-1.83 12.79,-1.47 11.12,-1.11 9.79,-1.15 8.47,-1.20 7.29,-1.11 6.11,-1.02 5.10,-0.35 4.10,0.31 2.68,1.21 1.26,2.11 0.99,2.23 0.72,2.35 0.43,2.40 0.14,2.46 -0.15,2.44 -0.45,2.42 -0.73,2.33 -1.01,2.24 -1.27,2.08 -1.52,1.93 -1.73,1.72 -1.94,1.51 -2.09,1.25 -2.25,1.00 -2.33,0.72 -2.42,0.43 -2.44,0.13 -2.45,-0.15 -2.40,-0.44 -2.35,-0.74 -2.22,-1.01 -2.10,-1.28 -1.92,-1.51 -1.73,-1.74 -1.50,-1.93 -1.26,-2.11 -1.26,-2.11 L -1.26,-2.11 Z"></path></g><g transform="translate(551 569.0625) rotate(0 -0.5 12.5)" stroke="none"><path fill="#000000" d="M 1.84,0.20 Q 1.84,0.20 1.48,2.78 1.12,5.36 0.95,7.56 0.78,9.76 0.39,13.05 0.01,16.34 -0.15,18.55 -0.32,20.77 -0.27,22.02 -0.22,23.27 -0.26,23.47 -0.29,23.67 -0.38,23.85 -0.46,24.04 -0.59,24.20 -0.71,24.36 -0.87,24.48 -1.04,24.61 -1.22,24.69 -1.41,24.77 -1.61,24.81 -1.81,24.85 -2.01,24.83 -2.22,24.82 -2.41,24.76 -2.60,24.70 -2.78,24.59 -2.95,24.49 -3.10,24.34 -3.24,24.20 -3.34,24.02 -3.45,23.85 -3.51,23.65 -3.57,23.46 -3.58,23.25 -3.59,23.05 -3.19,20.68 -2.80,18.30 -1.90,15.07 -1.01,11.84 -0.89,11.60 -0.77,11.36 -0.57,11.17 -0.38,10.98 -0.14,10.86 0.09,10.75 0.36,10.71 0.63,10.68 0.89,10.73 1.16,10.79 1.39,10.92 1.62,11.06 1.80,11.26 1.98,11.46 2.08,11.71 2.18,11.96 2.20,12.23 2.22,12.50 2.15,12.76 2.09,13.02 1.94,13.24 1.79,13.47 1.58,13.64 1.37,13.80 1.11,13.89 0.86,13.98 0.59,13.99 0.32,13.99 0.06,13.91 -0.18,13.83 -0.40,13.67 -0.62,13.51 -0.77,13.29 -0.93,13.07 -1.00,12.81 -1.08,12.55 -1.07,12.28 -1.06,12.01 -0.96,11.76 -0.87,11.51 -0.69,11.30 -0.52,11.09 -0.29,10.95 -0.07,10.81 0.19,10.75 0.45,10.68 0.72,10.71 0.98,10.73 1.23,10.84 1.48,10.95 1.68,11.13 1.87,11.32 2.00,11.55 2.13,11.79 2.18,12.05 2.23,12.32 2.19,12.58 2.15,12.85 2.15,12.85 2.15,12.85 1.09,15.74 0.02,18.63 -0.09,20.95 -0.22,23.27 -0.26,23.47 -0.29,23.67 -0.38,23.85 -0.46,24.04 -0.59,24.20 -0.71,24.36 -0.87,24.48 -1.04,24.61 -1.22,24.69 -1.41,24.77 -1.61,24.81 -1.81,24.85 -2.01,24.83 -2.22,24.82 -2.41,24.76 -2.60,24.70 -2.78,24.59 -2.95,24.49 -3.10,24.34 -3.24,24.20 -3.34,24.02 -3.45,23.85 -3.51,23.65 -3.57,23.46 -3.58,23.25 -3.59,23.05 -3.42,21.82 -3.24,20.58 -3.13,18.30 -3.01,16.02 -2.71,12.80 -2.41,9.58 -2.34,7.28 -2.27,4.98 -2.05,2.39 -1.84,-0.20 -1.79,-0.42 -1.74,-0.64 -1.63,-0.83 -1.53,-1.03 -1.39,-1.20 -1.24,-1.37 -1.06,-1.50 -0.87,-1.63 -0.67,-1.71 -0.46,-1.79 -0.24,-1.82 -0.01,-1.85 0.20,-1.83 0.42,-1.80 0.63,-1.72 0.84,-1.65 1.03,-1.52 1.21,-1.40 1.36,-1.23 1.51,-1.06 1.62,-0.87 1.72,-0.67 1.78,-0.45 1.83,-0.24 1.84,-0.01 1.84,0.20 1.84,0.20 L 1.84,0.20 Z"></path></g><g transform="translate(557 565.0625) rotate(0 5.5 1)" stroke="none"><path fill="#000000" d="M -1.38,-1.61 Q -1.38,-1.61 0.71,-3.26 2.82,-4.92 5.12,-5.73 7.43,-6.55 8.70,-6.97 9.98,-7.39 10.36,-7.30 10.73,-7.22 10.98,-7.25 11.23,-7.29 11.47,-7.27 11.72,-7.24 11.96,-7.16 12.19,-7.08 12.40,-6.94 12.61,-6.81 12.78,-6.62 12.95,-6.44 13.07,-6.22 13.19,-6.01 13.26,-5.77 13.32,-5.52 13.33,-5.28 13.34,-5.03 13.28,-4.78 13.23,-4.54 13.12,-4.32 13.01,-4.09 12.85,-3.90 12.69,-3.71 12.49,-3.57 12.29,-3.42 12.05,-3.32 11.82,-3.23 10.45,-1.33 9.07,0.57 7.35,2.44 5.64,4.32 4.62,5.28 3.60,6.25 2.28,7.57 0.96,8.89 0.70,9.06 0.43,9.24 0.12,9.32 -0.19,9.40 -0.51,9.38 -0.83,9.36 -1.12,9.23 -1.42,9.11 -1.66,8.90 -1.91,8.69 -2.07,8.41 -2.23,8.13 -2.29,7.82 -2.36,7.50 -2.32,7.18 -2.28,6.86 -2.14,6.57 -2.00,6.28 -1.78,6.05 -1.55,5.82 -1.27,5.67 -0.98,5.53 -0.66,5.48 -0.34,5.43 -0.03,5.49 0.28,5.55 0.56,5.70 0.84,5.86 1.06,6.09 1.28,6.33 1.41,6.62 1.54,6.92 1.57,7.24 1.60,7.56 1.53,7.87 1.45,8.18 1.28,8.46 1.11,8.73 0.87,8.94 0.62,9.14 0.32,9.26 0.02,9.37 -0.29,9.38 -0.62,9.40 -0.92,9.30 -1.23,9.21 -1.50,9.03 -1.76,8.85 -1.95,8.59 -2.14,8.33 -2.24,8.02 -2.34,7.71 -2.33,7.39 -2.33,7.07 -2.22,6.77 -2.12,6.46 -1.92,6.21 -1.72,5.96 -1.72,5.96 -1.72,5.96 -0.21,4.68 1.29,3.40 2.23,2.77 3.17,2.15 4.72,0.29 6.26,-1.56 8.50,-4.39 10.73,-7.22 10.98,-7.25 11.23,-7.29 11.47,-7.27 11.72,-7.24 11.96,-7.16 12.19,-7.08 12.40,-6.94 12.61,-6.81 12.78,-6.62 12.95,-6.44 13.07,-6.22 13.19,-6.01 13.26,-5.77 13.32,-5.53 13.33,-5.28 13.34,-5.03 13.28,-4.78 13.23,-4.54 13.12,-4.32 13.01,-4.09 12.85,-3.90 12.69,-3.71 12.49,-3.57 12.29,-3.42 12.05,-3.32 11.82,-3.23 10.23,-3.25 8.63,-3.27 6.93,-2.62 5.22,-1.97 3.30,-0.18 1.38,1.61 1.16,1.75 0.95,1.89 0.71,1.98 0.47,2.06 0.21,2.09 -0.03,2.12 -0.28,2.08 -0.54,2.05 -0.77,1.95 -1.01,1.86 -1.22,1.71 -1.43,1.56 -1.59,1.37 -1.76,1.17 -1.88,0.94 -1.99,0.71 -2.05,0.47 -2.11,0.22 -2.10,-0.03 -2.10,-0.29 -2.03,-0.53 -1.97,-0.78 -1.84,-1.00 -1.72,-1.23 -1.55,-1.42 -1.38,-1.61 -1.38,-1.61 L -1.38,-1.61 Z"></path></g><g transform="translate(686 574.0625) rotate(0 74 -15.5)" stroke="none"><path fill="#d9480f" d="M -0.82,-1.32 Q -0.82,-1.32 1.49,-2.73 3.80,-4.14 6.78,-6.15 9.76,-8.16 12.77,-10.17 15.78,-12.18 18.83,-13.91 21.87,-15.65 24.06,-16.68 26.25,-17.72 29.19,-19.02 32.13,-20.31 35.39,-21.72 38.65,-23.13 41.48,-24.31 44.31,-25.49 46.40,-26.28 48.48,-27.07 50.93,-27.44 53.39,-27.81 56.09,-28.24 58.78,-28.66 61.95,-29.13 65.12,-29.60 68.48,-30.09 71.84,-30.58 74.17,-30.79 76.49,-31.00 79.16,-31.37 81.83,-31.74 84.75,-31.91 87.68,-32.07 90.64,-32.14 93.61,-32.21 96.38,-31.95 99.15,-31.69 100.85,-31.66 102.55,-31.63 104.40,-31.62 106.26,-31.60 108.57,-31.26 110.89,-30.91 112.93,-30.77 114.98,-30.63 116.43,-30.67 117.89,-30.71 119.36,-30.77 120.84,-30.82 122.26,-30.58 123.68,-30.33 125.64,-30.32 127.59,-30.31 128.89,-30.01 130.18,-29.71 131.50,-29.30 132.82,-28.90 134.74,-28.38 136.66,-27.87 137.52,-27.16 138.38,-26.45 139.94,-25.33 141.50,-24.22 142.59,-22.82 143.68,-21.43 144.45,-20.23 145.23,-19.03 146.08,-17.26 146.92,-15.50 148.51,-13.26 150.10,-11.03 150.32,-10.61 150.53,-10.19 150.59,-9.73 150.66,-9.26 150.58,-8.80 150.49,-8.34 150.27,-7.93 150.04,-7.52 149.69,-7.20 149.34,-6.88 148.91,-6.70 148.48,-6.51 148.02,-6.46 147.55,-6.42 147.09,-6.53 146.63,-6.64 146.24,-6.89 145.84,-7.14 145.54,-7.50 145.24,-7.87 145.08,-8.31 144.91,-8.75 144.90,-9.22 144.88,-9.69 145.01,-10.14 145.15,-10.59 145.42,-10.97 145.69,-11.35 146.07,-11.63 146.45,-11.91 146.90,-12.05 147.34,-12.19 147.81,-12.18 148.28,-12.17 148.73,-12.01 149.17,-11.86 149.54,-11.56 149.90,-11.27 150.16,-10.88 150.42,-10.49 150.53,-10.03 150.65,-9.58 150.62,-9.11 150.58,-8.64 150.40,-8.21 150.22,-7.77 149.91,-7.42 149.60,-7.07 149.19,-6.84 148.78,-6.60 148.32,-6.51 147.86,-6.42 147.40,-6.48 146.93,-6.54 146.51,-6.74 146.09,-6.95 145.75,-7.28 145.42,-7.60 145.42,-7.60 145.42,-7.60 143.63,-10.37 141.85,-13.13 141.28,-14.65 140.71,-16.16 140.10,-17.12 139.49,-18.09 137.96,-19.74 136.42,-21.39 135.49,-22.29 134.57,-23.20 132.96,-23.76 131.34,-24.33 129.34,-25.08 127.33,-25.83 126.24,-25.96 125.14,-26.09 122.95,-26.66 120.76,-27.24 119.26,-27.34 117.76,-27.44 116.28,-27.59 114.80,-27.75 112.64,-27.87 110.49,-27.98 108.33,-28.25 106.18,-28.52 104.27,-28.61 102.36,-28.69 100.63,-28.88 98.89,-29.07 96.28,-29.33 93.67,-29.58 90.75,-29.51 87.82,-29.45 85.01,-29.29 82.19,-29.14 79.46,-28.76 76.73,-28.38 74.48,-28.17 72.22,-27.97 68.87,-27.48 65.51,-27.00 62.36,-26.53 59.20,-26.06 56.48,-25.62 53.76,-25.19 51.59,-24.89 49.41,-24.59 47.38,-23.81 45.34,-23.03 42.53,-21.85 39.72,-20.68 36.47,-19.26 33.22,-17.85 30.32,-16.55 27.42,-15.26 25.34,-14.25 23.25,-13.25 20.30,-11.55 17.35,-9.84 14.37,-7.81 11.39,-5.77 8.39,-3.69 5.39,-1.60 3.10,-0.14 0.82,1.32 0.65,1.40 0.48,1.48 0.30,1.52 0.11,1.55 -0.07,1.54 -0.25,1.54 -0.43,1.48 -0.61,1.43 -0.78,1.33 -0.94,1.24 -1.08,1.11 -1.21,0.98 -1.31,0.82 -1.41,0.66 -1.47,0.48 -1.53,0.30 -1.54,0.11 -1.56,-0.07 -1.52,-0.25 -1.49,-0.44 -1.42,-0.61 -1.34,-0.78 -1.23,-0.93 -1.12,-1.08 -0.97,-1.20 -0.82,-1.32 -0.82,-1.32 L -0.82,-1.32 Z"></path></g><g transform="translate(849 546.0625) rotate(0 -9 15)" stroke="none"><path fill="#d9480f" d="M 2.44,0.48 Q 2.44,0.48 2.14,1.90 1.85,3.31 2.18,4.95 2.50,6.59 3.37,8.68 4.24,10.78 4.82,11.92 5.41,13.07 6.26,13.83 7.11,14.59 7.91,15.32 8.71,16.06 9.03,18.30 9.35,20.54 8.27,21.69 7.19,22.85 4.17,24.33 1.16,25.82 -1.33,26.69 -3.82,27.55 -7.08,27.91 -10.33,28.27 -12.81,28.36 -15.29,28.46 -17.40,28.76 -19.51,29.05 -20.55,29.54 -21.59,30.04 -23.06,30.76 -24.53,31.48 -24.84,31.56 -25.14,31.64 -25.46,31.62 -25.77,31.59 -26.06,31.47 -26.35,31.34 -26.59,31.13 -26.82,30.92 -26.98,30.65 -27.14,30.38 -27.20,30.07 -27.26,29.76 -27.22,29.44 -27.18,29.13 -27.04,28.85 -26.90,28.57 -26.68,28.34 -26.45,28.12 -26.17,27.98 -25.89,27.84 -25.58,27.79 -25.26,27.75 -24.95,27.81 -24.64,27.86 -24.37,28.02 -24.09,28.17 -23.88,28.41 -23.67,28.64 -23.55,28.93 -23.42,29.22 -23.39,29.53 -23.37,29.85 -23.44,30.15 -23.52,30.46 -23.68,30.73 -23.85,30.99 -24.10,31.19 -24.34,31.39 -24.64,31.50 -24.93,31.61 -25.25,31.62 -25.57,31.63 -25.87,31.54 -26.17,31.45 -26.43,31.26 -26.68,31.08 -26.87,30.83 -27.05,30.57 -27.15,30.27 -27.24,29.97 -27.23,29.65 -27.23,29.34 -27.12,29.04 -27.01,28.74 -26.81,28.50 -26.62,28.25 -26.35,28.08 -26.09,27.91 -26.09,27.91 -26.09,27.91 -24.45,27.28 -22.81,26.65 -21.43,26.26 -20.04,25.88 -17.79,25.46 -15.53,25.03 -13.17,24.80 -10.81,24.56 -8.07,24.13 -5.33,23.70 -3.21,22.71 -1.08,21.72 1.35,20.20 3.79,18.69 4.74,18.18 5.68,17.67 4.64,17.96 3.59,18.25 2.22,16.87 0.84,15.50 0.25,14.33 -0.33,13.15 -1.18,11.53 -2.02,9.91 -2.38,7.75 -2.75,5.59 -2.87,4.01 -3.00,2.43 -2.72,0.97 -2.44,-0.48 -2.34,-0.77 -2.25,-1.05 -2.09,-1.31 -1.93,-1.56 -1.71,-1.77 -1.50,-1.98 -1.24,-2.13 -0.98,-2.28 -0.69,-2.37 -0.40,-2.45 -0.10,-2.46 0.19,-2.48 0.48,-2.42 0.77,-2.36 1.05,-2.23 1.32,-2.10 1.55,-1.91 1.78,-1.73 1.96,-1.49 2.15,-1.25 2.26,-0.97 2.38,-0.70 2.43,-0.40 2.48,-0.10 2.46,0.18 2.44,0.48 2.44,0.48 L 2.44,0.48 Z"></path></g><g transform="translate(705 529.0625) rotate(0 4.5 2)" stroke="none"><path fill="#d9480f" d="M -1.58,-1.58 Q -1.58,-1.58 0.51,-3.51 2.61,-5.44 3.91,-6.45 5.20,-7.47 6.64,-7.73 8.07,-7.98 9.07,-7.52 10.07,-7.05 10.32,-3.79 10.57,-0.52 10.41,1.34 10.24,3.21 10.23,4.60 10.23,5.98 10.60,7.86 10.96,9.74 11.02,10.10 11.09,10.46 11.04,10.83 10.98,11.19 10.82,11.52 10.65,11.84 10.39,12.10 10.13,12.36 9.80,12.52 9.46,12.68 9.10,12.72 8.74,12.77 8.38,12.70 8.02,12.63 7.70,12.44 7.38,12.26 7.14,11.98 6.89,11.71 6.75,11.37 6.61,11.03 6.58,10.66 6.56,10.29 6.65,9.94 6.74,9.58 6.94,9.28 7.14,8.97 7.43,8.74 7.72,8.51 8.07,8.39 8.41,8.27 8.78,8.26 9.15,8.25 9.50,8.37 9.85,8.48 10.14,8.69 10.44,8.91 10.65,9.21 10.86,9.51 10.97,9.86 11.07,10.22 11.06,10.58 11.04,10.95 10.91,11.29 10.78,11.64 10.55,11.92 10.32,12.21 10.01,12.40 9.70,12.60 9.34,12.68 8.98,12.77 8.61,12.73 8.25,12.70 7.91,12.55 7.58,12.40 7.31,12.15 7.04,11.91 6.86,11.58 6.68,11.26 6.68,11.26 6.68,11.26 6.28,8.56 5.88,5.85 5.96,4.43 6.04,3.00 6.07,0.96 6.09,-1.06 6.75,-2.53 7.41,-4.00 6.42,-3.30 5.43,-2.60 3.51,-0.50 1.58,1.58 1.37,1.75 1.16,1.92 0.91,2.03 0.66,2.14 0.40,2.19 0.13,2.24 -0.13,2.22 -0.40,2.21 -0.66,2.12 -0.92,2.04 -1.15,1.90 -1.38,1.76 -1.57,1.57 -1.76,1.38 -1.90,1.15 -2.04,0.92 -2.12,0.66 -2.21,0.40 -2.22,0.13 -2.24,-0.13 -2.19,-0.40 -2.14,-0.66 -2.03,-0.91 -1.92,-1.16 -1.75,-1.37 -1.58,-1.58 -1.58,-1.58 L -1.58,-1.58 Z"></path></g><g transform="translate(727 527.0625) rotate(0 10 0.5)" stroke="none"><path fill="#d9480f" d="M 0,-2.06 Q 0,-2.06 1.72,-2.06 3.45,-2.05 6.29,-1.66 9.13,-1.27 11.68,-1.08 14.23,-0.88 16.61,-0.90 19.00,-0.92 19.30,-0.87 19.60,-0.81 19.87,-0.65 20.13,-0.50 20.34,-0.27 20.54,-0.04 20.66,0.23 20.78,0.51 20.81,0.82 20.83,1.12 20.75,1.42 20.68,1.72 20.51,1.98 20.35,2.24 20.11,2.43 19.87,2.62 19.58,2.72 19.29,2.83 18.98,2.83 18.67,2.84 18.38,2.75 18.09,2.66 17.84,2.48 17.59,2.30 17.41,2.05 17.24,1.80 17.15,1.51 17.06,1.21 17.07,0.90 17.08,0.60 17.18,0.31 17.29,0.02 17.48,-0.21 17.68,-0.45 17.94,-0.61 18.20,-0.77 18.49,-0.85 18.79,-0.92 19.10,-0.89 19.40,-0.87 19.69,-0.74 19.97,-0.62 20.19,-0.42 20.42,-0.21 20.57,0.05 20.72,0.32 20.78,0.62 20.84,0.92 20.79,1.22 20.75,1.53 20.61,1.80 20.48,2.08 20.26,2.29 20.04,2.51 19.76,2.64 19.49,2.78 19.18,2.82 18.88,2.86 18.88,2.86 18.88,2.86 16.47,2.69 14.06,2.52 11.40,2.47 8.74,2.42 6.09,2.23 3.44,2.05 1.72,2.06 0,2.06 -0.24,2.03 -0.49,2.00 -0.72,1.92 -0.96,1.83 -1.16,1.68 -1.37,1.54 -1.53,1.36 -1.70,1.17 -1.81,0.95 -1.93,0.73 -1.99,0.49 -2.05,0.24 -2.05,-0.00 -2.05,-0.24 -1.99,-0.49 -1.93,-0.73 -1.81,-0.95 -1.70,-1.17 -1.53,-1.36 -1.37,-1.54 -1.16,-1.69 -0.96,-1.83 -0.72,-1.92 -0.49,-2.00 -0.24,-2.03 0.00,-2.06 0.00,-2.06 L 0,-2.06 Z"></path></g><g transform="translate(764 521.0625) rotate(0 -0.5 6)" stroke="none"><path fill="#d9480f" d="M 2.31,0.33 Q 2.31,0.33 1.92,2.32 1.52,4.32 1.44,5.69 1.36,7.07 1.33,9.26 1.30,11.45 1.23,11.81 1.16,12.18 0.98,12.50 0.80,12.82 0.52,13.07 0.25,13.32 -0.08,13.47 -0.42,13.61 -0.79,13.65 -1.16,13.68 -1.52,13.59 -1.88,13.50 -2.19,13.30 -2.50,13.11 -2.74,12.82 -2.97,12.53 -3.10,12.18 -3.23,11.83 -3.24,11.46 -3.25,11.09 -3.14,10.74 -3.04,10.39 -2.82,10.08 -2.61,9.78 -2.31,9.56 -2.01,9.35 -1.65,9.24 -1.30,9.13 -0.93,9.14 -0.56,9.14 -0.21,9.27 0.13,9.40 0.42,9.63 0.71,9.86 0.91,10.17 1.11,10.48 1.20,10.84 1.29,11.20 1.26,11.57 1.23,11.94 1.09,12.28 0.94,12.62 0.70,12.90 0.45,13.17 0.13,13.36 -0.18,13.54 -0.55,13.61 -0.91,13.68 -1.28,13.63 -1.65,13.59 -1.98,13.42 -2.31,13.26 -2.57,13.00 -2.84,12.74 -3.00,12.41 -3.17,12.07 -3.22,11.71 -3.27,11.34 -3.27,11.34 -3.27,11.34 -3.13,9.02 -2.99,6.69 -2.83,5.21 -2.67,3.72 -2.49,1.69 -2.31,-0.33 -2.24,-0.60 -2.16,-0.87 -2.03,-1.12 -1.89,-1.36 -1.70,-1.57 -1.51,-1.78 -1.27,-1.93 -1.04,-2.09 -0.77,-2.18 -0.51,-2.28 -0.23,-2.30 0.04,-2.33 0.32,-2.29 0.60,-2.25 0.86,-2.15 1.13,-2.04 1.35,-1.88 1.58,-1.71 1.76,-1.50 1.95,-1.28 2.07,-1.03 2.20,-0.78 2.26,-0.50 2.32,-0.23 2.32,0.04 2.31,0.33 2.31,0.33 L 2.31,0.33 Z"></path></g><g transform="translate(770 520.0625) rotate(0 6.5 3.5)" stroke="none"><path fill="#d9480f" d="M -0.31,-2.50 Q -0.31,-2.50 2.00,-2.64 4.32,-2.77 5.61,-2.94 6.90,-3.10 8.10,-3.20 9.30,-3.30 10.51,-3.02 11.71,-2.75 12.66,-2.21 13.61,-1.67 14.30,-0.35 15.00,0.96 14.58,2.75 14.16,4.53 13.58,5.50 13.00,6.47 11.13,8.13 9.25,9.79 8.86,10.03 8.47,10.27 8.03,10.38 7.58,10.48 7.12,10.44 6.67,10.40 6.25,10.21 5.83,10.02 5.49,9.71 5.15,9.40 4.93,9.00 4.71,8.60 4.63,8.15 4.55,7.70 4.62,7.24 4.68,6.79 4.89,6.38 5.10,5.97 5.43,5.65 5.76,5.33 6.17,5.13 6.58,4.93 7.04,4.88 7.49,4.82 7.94,4.91 8.39,5.00 8.79,5.23 9.19,5.47 9.49,5.81 9.79,6.16 9.97,6.58 10.14,7.00 10.18,7.46 10.21,7.92 10.09,8.36 9.98,8.81 9.72,9.19 9.47,9.57 9.11,9.86 8.75,10.14 8.32,10.29 7.89,10.44 7.43,10.45 6.97,10.46 6.53,10.32 6.09,10.18 5.72,9.91 5.36,9.63 5.09,9.26 4.83,8.88 4.70,8.44 4.57,8.00 4.59,7.54 4.61,7.09 4.77,6.66 4.93,6.23 5.22,5.87 5.52,5.52 5.52,5.52 5.52,5.52 7.77,3.74 10.03,1.96 8.69,1.71 7.35,1.47 6.11,1.54 4.87,1.62 2.59,2.06 0.31,2.50 0.00,2.50 -0.29,2.51 -0.59,2.43 -0.88,2.36 -1.15,2.22 -1.42,2.08 -1.65,1.88 -1.88,1.68 -2.05,1.43 -2.23,1.18 -2.34,0.89 -2.45,0.61 -2.48,0.31 -2.52,0.00 -2.49,-0.29 -2.45,-0.59 -2.34,-0.88 -2.24,-1.16 -2.06,-1.41 -1.89,-1.66 -1.67,-1.87 -1.44,-2.07 -1.17,-2.21 -0.90,-2.36 -0.60,-2.43 -0.31,-2.50 -0.31,-2.50 L -0.31,-2.50 Z"></path></g><g transform="translate(824 672.0625) rotate(0 -78.5 33.5)" stroke="none"><path fill="#d9480f" d="M 1.54,0.22 Q 1.54,0.22 0.93,4.24 0.32,8.26 -1.11,12.67 -2.56,17.09 -4.07,20.15 -5.58,23.22 -8.27,27.15 -10.97,31.08 -15.05,35.12 -19.14,39.15 -24.09,42.61 -29.04,46.08 -33.17,48.42 -37.31,50.75 -44.03,53.21 -50.75,55.67 -59.07,58.15 -67.38,60.62 -76.40,62.83 -85.41,65.03 -93.35,65.69 -101.30,66.36 -108.79,65.48 -116.28,64.60 -121.21,63.35 -126.15,62.10 -131.17,60.11 -136.18,58.12 -140.07,56.11 -143.95,54.10 -146.46,52.66 -148.97,51.23 -151.26,49.42 -153.55,47.62 -155.81,45.81 -158.07,44.00 -158.23,43.81 -158.39,43.61 -158.48,43.38 -158.58,43.14 -158.59,42.89 -158.60,42.63 -158.53,42.39 -158.45,42.15 -158.31,41.94 -158.17,41.73 -157.96,41.58 -157.76,41.43 -157.52,41.36 -157.28,41.28 -157.02,41.28 -156.77,41.29 -156.53,41.37 -156.29,41.45 -156.09,41.61 -155.90,41.76 -155.76,41.98 -155.62,42.19 -155.55,42.43 -155.49,42.68 -155.51,42.93 -155.52,43.18 -155.62,43.41 -155.72,43.65 -155.88,43.84 -156.05,44.03 -156.27,44.16 -156.49,44.28 -156.73,44.34 -156.98,44.39 -157.23,44.36 -157.48,44.32 -157.71,44.22 -157.94,44.11 -158.12,43.93 -158.30,43.75 -158.42,43.53 -158.53,43.30 -158.57,43.05 -158.61,42.80 -158.56,42.55 -158.52,42.31 -158.40,42.08 -158.28,41.86 -158.09,41.69 -157.90,41.52 -157.67,41.42 -157.44,41.31 -157.19,41.29 -156.94,41.26 -156.69,41.32 -156.45,41.38 -156.23,41.51 -156.02,41.65 -156.02,41.65 -156.02,41.65 -153.97,43.60 -151.91,45.56 -149.79,47.25 -147.66,48.95 -145.20,50.36 -142.74,51.76 -138.97,53.72 -135.21,55.67 -130.35,57.61 -125.50,59.54 -120.73,60.76 -115.96,61.98 -108.73,62.85 -101.51,63.72 -93.77,63.09 -86.03,62.46 -77.09,60.27 -68.14,58.08 -59.90,55.62 -51.67,53.17 -45.14,50.79 -38.62,48.42 -34.60,46.14 -30.58,43.86 -25.82,40.53 -21.05,37.20 -17.15,33.36 -13.24,29.52 -10.68,25.75 -8.11,21.97 -6.71,19.08 -5.31,16.19 -3.97,12.01 -2.62,7.83 -2.08,3.80 -1.54,-0.22 -1.49,-0.40 -1.44,-0.58 -1.35,-0.74 -1.26,-0.91 -1.13,-1.05 -1.01,-1.19 -0.85,-1.29 -0.69,-1.39 -0.51,-1.46 -0.34,-1.52 -0.15,-1.54 0.03,-1.56 0.21,-1.53 0.40,-1.50 0.58,-1.43 0.75,-1.36 0.90,-1.25 1.06,-1.14 1.18,-1.00 1.30,-0.86 1.38,-0.69 1.47,-0.52 1.51,-0.33 1.55,-0.15 1.55,0.03 1.54,0.22 1.54,0.22 L 1.54,0.22 Z"></path></g><g transform="translate(688 703.0625) rotate(0 -24.5 12)" stroke="none"><path fill="#d9480f" d="M -0.95,1.53 Q -0.95,1.53 -3.20,0.04 -5.45,-1.44 -7.90,-2.00 -10.34,-2.55 -13.96,-2.83 -17.57,-3.11 -21.86,-2.39 -26.16,-1.68 -29.48,-1.09 -32.81,-0.50 -36.15,0.57 -39.49,1.66 -41.81,2.41 -44.12,3.16 -45.12,3.99 -46.12,4.81 -45.53,6.02 -44.94,7.22 -42.97,9.29 -41.01,11.35 -37.91,13.73 -34.82,16.11 -31.27,17.97 -27.73,19.83 -25.42,20.62 -23.12,21.41 -20.70,22.04 -18.29,22.68 -16.35,23.22 -14.41,23.77 -11.74,25.65 -9.07,27.53 -8.95,27.77 -8.83,28.00 -8.79,28.26 -8.75,28.52 -8.79,28.77 -8.84,29.03 -8.97,29.26 -9.09,29.49 -9.28,29.67 -9.48,29.84 -9.71,29.95 -9.95,30.06 -10.21,30.08 -10.47,30.11 -10.73,30.05 -10.98,29.99 -11.21,29.85 -11.43,29.71 -11.60,29.51 -11.76,29.31 -11.86,29.06 -11.95,28.82 -11.96,28.56 -11.97,28.30 -11.90,28.05 -11.82,27.80 -11.67,27.58 -11.52,27.37 -11.31,27.21 -11.10,27.06 -10.85,26.98 -10.61,26.90 -10.34,26.90 -10.08,26.90 -9.84,26.99 -9.59,27.08 -9.38,27.24 -9.18,27.40 -9.03,27.62 -8.89,27.84 -8.82,28.09 -8.76,28.34 -8.77,28.60 -8.79,28.86 -8.89,29.10 -8.99,29.35 -9.16,29.54 -9.34,29.74 -9.56,29.87 -9.79,30.00 -10.04,30.06 -10.30,30.11 -10.56,30.08 -10.82,30.05 -11.05,29.93 -11.29,29.82 -11.48,29.64 -11.67,29.45 -11.67,29.45 -11.67,29.46 -13.45,28.02 -15.23,26.58 -17.11,26.01 -19.00,25.45 -21.52,24.83 -24.04,24.20 -26.59,23.38 -29.13,22.56 -32.94,20.63 -36.75,18.70 -40.13,16.22 -43.52,13.74 -45.98,11.13 -48.43,8.53 -48.85,6.58 -49.27,4.64 -48.69,3.58 -48.11,2.52 -46.56,1.55 -45.01,0.58 -42.68,-0.19 -40.36,-0.97 -36.84,-2.13 -33.32,-3.28 -29.98,-3.91 -26.64,-4.54 -22.01,-5.32 -17.38,-6.11 -13.52,-5.87 -9.66,-5.63 -6.70,-4.96 -3.74,-4.30 -1.39,-2.91 0.95,-1.53 1.12,-1.39 1.29,-1.25 1.42,-1.08 1.55,-0.91 1.64,-0.71 1.73,-0.51 1.76,-0.29 1.80,-0.08 1.78,0.13 1.77,0.35 1.70,0.55 1.63,0.76 1.52,0.95 1.40,1.13 1.24,1.28 1.09,1.43 0.90,1.54 0.71,1.65 0.50,1.71 0.29,1.78 0.08,1.79 -0.13,1.80 -0.34,1.75 -0.56,1.71 -0.76,1.62 -0.95,1.53 -0.95,1.53 L -0.95,1.53 Z"></path></g><g transform="translate(696 767.0625) rotate(0 10 -0.5)" stroke="none"><path fill="#d9480f" d="M -1.13,-1.27 Q -1.13,-1.27 1.48,-3.53 4.10,-5.79 6.97,-8.19 9.83,-10.58 12.22,-12.47 14.60,-14.35 15.83,-15.22 17.06,-16.09 17.23,-16.20 17.40,-16.30 17.59,-16.36 17.78,-16.42 17.97,-16.44 18.17,-16.45 18.37,-16.42 18.56,-16.39 18.75,-16.31 18.93,-16.23 19.09,-16.11 19.24,-15.99 19.37,-15.83 19.49,-15.68 19.58,-15.50 19.66,-15.32 19.70,-15.12 19.74,-14.93 19.73,-14.73 19.72,-14.53 19.66,-14.34 19.60,-14.15 19.50,-13.98 19.40,-13.81 19.26,-13.67 19.12,-13.52 19.60,-9.65 20.08,-5.77 19.31,-2.54 18.54,0.68 17.92,3.99 17.31,7.30 17.07,10.52 16.84,13.74 16.76,14.01 16.69,14.27 16.54,14.50 16.38,14.73 16.16,14.89 15.95,15.06 15.69,15.15 15.43,15.23 15.15,15.23 14.88,15.23 14.62,15.14 14.36,15.06 14.14,14.89 13.92,14.72 13.77,14.50 13.61,14.27 13.54,14.00 13.47,13.74 13.48,13.47 13.50,13.19 13.60,12.94 13.70,12.68 13.88,12.47 14.06,12.26 14.29,12.12 14.53,11.98 14.80,11.92 15.06,11.87 15.34,11.90 15.61,11.93 15.86,12.04 16.11,12.16 16.31,12.35 16.51,12.54 16.63,12.78 16.76,13.02 16.81,13.29 16.85,13.56 16.80,13.83 16.76,14.10 16.63,14.35 16.50,14.59 16.30,14.78 16.10,14.96 15.85,15.08 15.60,15.19 15.33,15.22 15.06,15.25 14.79,15.19 14.52,15.13 14.29,14.99 14.05,14.85 13.88,14.64 13.70,14.43 13.60,14.18 13.50,13.92 13.48,13.65 13.47,13.37 13.47,13.37 13.47,13.37 13.95,10.08 14.44,6.79 15.01,3.40 15.58,0.01 16.25,-3.04 16.92,-6.10 17.28,-9.05 17.65,-12.00 17.35,-14.05 17.06,-16.09 17.23,-16.20 17.40,-16.30 17.59,-16.36 17.78,-16.42 17.97,-16.44 18.17,-16.45 18.37,-16.42 18.56,-16.39 18.75,-16.31 18.93,-16.23 19.09,-16.11 19.24,-15.99 19.37,-15.83 19.49,-15.68 19.58,-15.50 19.66,-15.32 19.70,-15.12 19.74,-14.93 19.73,-14.73 19.72,-14.53 19.66,-14.34 19.60,-14.15 19.50,-13.98 19.40,-13.81 19.26,-13.67 19.12,-13.52 17.78,-12.79 16.44,-12.06 14.12,-10.16 11.81,-8.27 9.02,-5.83 6.24,-3.40 3.68,-1.06 1.13,1.27 0.96,1.39 0.79,1.51 0.60,1.58 0.41,1.66 0.20,1.68 0.00,1.71 -0.20,1.68 -0.40,1.66 -0.60,1.59 -0.79,1.51 -0.96,1.40 -1.13,1.28 -1.27,1.12 -1.40,0.97 -1.50,0.79 -1.59,0.60 -1.64,0.40 -1.69,0.20 -1.69,0.00 -1.69,-0.20 -1.65,-0.40 -1.60,-0.60 -1.50,-0.78 -1.41,-0.97 -1.27,-1.12 -1.13,-1.27 -1.13,-1.27 L -1.13,-1.27 Z"></path></g><g transform="translate(732 762.0625) rotate(0 10.5 2.5)" stroke="none"><path fill="#d9480f" d="M 0.51,-2.05 Q 0.51,-2.05 3.93,-1.08 7.36,-0.12 10.83,0.89 14.31,1.92 17.48,2.47 20.65,3.03 20.94,3.12 21.23,3.22 21.47,3.41 21.71,3.59 21.88,3.84 22.06,4.10 22.14,4.39 22.22,4.68 22.20,4.99 22.19,5.29 22.07,5.58 21.96,5.86 21.76,6.09 21.56,6.33 21.30,6.48 21.04,6.64 20.74,6.71 20.45,6.77 20.14,6.74 19.84,6.71 19.56,6.58 19.28,6.45 19.06,6.24 18.84,6.03 18.70,5.76 18.55,5.49 18.50,5.19 18.46,4.89 18.51,4.59 18.55,4.29 18.70,4.02 18.84,3.75 19.06,3.54 19.28,3.33 19.56,3.20 19.84,3.07 20.14,3.04 20.45,3.00 20.74,3.07 21.04,3.14 21.30,3.29 21.56,3.45 21.76,3.68 21.96,3.92 22.07,4.20 22.19,4.48 22.20,4.79 22.22,5.09 22.14,5.39 22.06,5.68 21.88,5.93 21.71,6.19 21.47,6.37 21.23,6.56 20.94,6.65 20.65,6.75 20.34,6.75 20.04,6.75 20.04,6.75 20.04,6.75 16.72,6.02 13.40,5.29 9.91,4.43 6.43,3.57 2.96,2.81 -0.51,2.05 -0.75,1.96 -0.99,1.87 -1.20,1.72 -1.41,1.58 -1.57,1.38 -1.74,1.19 -1.86,0.97 -1.98,0.74 -2.04,0.49 -2.10,0.24 -2.10,-0.00 -2.10,-0.26 -2.04,-0.51 -1.97,-0.75 -1.85,-0.98 -1.73,-1.20 -1.56,-1.40 -1.39,-1.59 -1.18,-1.73 -0.97,-1.87 -0.73,-1.96 -0.50,-2.05 -0.24,-2.08 0.00,-2.11 0.26,-2.08 0.51,-2.05 0.51,-2.05 L 0.51,-2.05 Z"></path></g><g transform="translate(769 750.0625) rotate(0 -3.5 17)" stroke="none"><path fill="#d9480f" d="M 1.96,0.28 Q 1.96,0.28 1.30,4.29 0.63,8.30 -0.54,13.51 -1.72,18.72 -2.53,22.61 -3.33,26.50 -4.43,30.10 -5.53,33.70 -5.70,33.90 -5.87,34.10 -6.09,34.23 -6.31,34.37 -6.57,34.43 -6.82,34.49 -7.08,34.46 -7.34,34.44 -7.58,34.33 -7.82,34.22 -8.01,34.05 -8.20,33.87 -8.33,33.64 -8.45,33.41 -8.50,33.15 -8.54,32.89 -8.50,32.64 -8.46,32.38 -8.34,32.15 -8.22,31.91 -8.03,31.73 -7.85,31.55 -7.61,31.44 -7.37,31.33 -7.11,31.30 -6.86,31.26 -6.60,31.32 -6.34,31.37 -6.12,31.50 -5.89,31.64 -5.72,31.83 -5.55,32.03 -5.45,32.27 -5.35,32.51 -5.34,32.77 -5.32,33.04 -5.39,33.29 -5.45,33.54 -5.60,33.76 -5.74,33.98 -5.95,34.14 -6.15,34.30 -6.40,34.38 -6.65,34.47 -6.91,34.47 -7.17,34.47 -7.42,34.39 -7.67,34.31 -7.88,34.16 -8.09,34.00 -8.24,33.78 -8.38,33.57 -8.46,33.32 -8.53,33.07 -8.52,32.81 -8.51,32.55 -8.41,32.30 -8.32,32.06 -8.32,32.06 -8.32,32.06 -7.37,28.98 -6.42,25.90 -5.71,21.96 -4.99,18.02 -3.96,12.90 -2.93,7.79 -2.45,3.75 -1.96,-0.28 -1.90,-0.51 -1.84,-0.74 -1.72,-0.95 -1.61,-1.16 -1.44,-1.33 -1.28,-1.51 -1.08,-1.64 -0.88,-1.77 -0.65,-1.85 -0.43,-1.93 -0.19,-1.96 0.04,-1.98 0.27,-1.95 0.51,-1.91 0.73,-1.82 0.95,-1.73 1.15,-1.59 1.34,-1.45 1.50,-1.27 1.65,-1.09 1.76,-0.87 1.87,-0.66 1.92,-0.43 1.97,-0.19 1.97,0.04 1.96,0.28 1.96,0.28 L 1.96,0.28 Z"></path></g><g transform="translate(771 747.0625) rotate(0 6.5 7.5)" stroke="none"><path fill="#d9480f" d="M 0.83,-2.22 Q 0.83,-2.22 3.08,-1.23 5.33,-0.24 7.14,0.46 8.94,1.16 10.17,1.72 11.41,2.29 12.59,3.57 13.76,4.85 13.71,6.43 13.65,8.00 12.47,9.71 11.30,11.41 10.66,12.50 10.02,13.59 7.90,15.19 5.78,16.80 5.41,16.94 5.04,17.09 4.64,17.11 4.24,17.13 3.86,17.02 3.47,16.92 3.15,16.69 2.82,16.47 2.58,16.15 2.34,15.83 2.21,15.45 2.08,15.08 2.08,14.68 2.09,14.28 2.21,13.90 2.34,13.53 2.58,13.21 2.82,12.89 3.15,12.67 3.48,12.45 3.87,12.34 4.25,12.24 4.65,12.26 5.05,12.28 5.42,12.43 5.79,12.58 6.09,12.84 6.39,13.10 6.60,13.44 6.80,13.78 6.88,14.17 6.97,14.56 6.93,14.95 6.88,15.35 6.71,15.71 6.55,16.07 6.27,16.36 6.00,16.65 5.64,16.83 5.29,17.02 4.90,17.08 4.51,17.15 4.11,17.08 3.72,17.01 3.37,16.83 3.02,16.64 2.75,16.35 2.47,16.06 2.31,15.70 2.14,15.34 2.10,14.94 2.06,14.55 2.14,14.16 2.23,13.77 2.44,13.43 2.64,13.09 2.95,12.83 3.25,12.57 3.25,12.57 3.25,12.57 4.64,11.81 6.04,11.04 6.80,9.85 7.56,8.67 8.49,7.35 9.42,6.03 8.51,5.46 7.61,4.90 5.73,4.29 3.86,3.69 1.51,2.96 -0.83,2.22 -1.09,2.09 -1.34,1.96 -1.56,1.77 -1.77,1.58 -1.93,1.34 -2.10,1.11 -2.20,0.84 -2.30,0.57 -2.34,0.29 -2.38,0.00 -2.34,-0.27 -2.31,-0.56 -2.21,-0.82 -2.11,-1.09 -1.94,-1.33 -1.78,-1.57 -1.57,-1.76 -1.35,-1.95 -1.10,-2.08 -0.85,-2.22 -0.57,-2.29 -0.29,-2.36 -0.00,-2.36 0.27,-2.36 0.55,-2.29 0.83,-2.22 0.83,-2.22 L 0.83,-2.22 Z"></path></g></svg>