<svg version="1.1" xmlns="http://www.w3.org/2000/svg" viewBox="0 0 10020 881.0625" width="10020" height="881.0625">
  <!-- svg-source:excalidraw -->
  
  <defs>
    <style>
      @font-face {
        font-family: "Virgil";
        src: url("https://excalidraw.com/Virgil.woff2");
      }
      @font-face {
        font-family: "Cascadia";
        src: url("https://excalidraw.com/Cascadia.woff2");
      }
    </style>
  </defs>
  <rect x="0" y="0" width="10020" height="881.0625" fill="#fff0"></rect><g stroke-linecap="round" transform="translate(10 10) rotate(0 5000 0.5)"><path d="M-0.52 -0.26 C3022.65 -30.2, 6044.59 -29.2, 9999.32 0.22 M0.38 -0.31 C3948.03 -0.44, 7895.41 0.2, 9999.95 0.08 M10000.08 -0.06 C10000.09 0.27, 10000.05 0.48, 10000.09 0.92 M9999.97 0.01 C9999.95 0.33, 9999.98 0.72, 10000 0.99 M10000.22 1.51 C7095.77 35.76, 4193.15 34.95, -0.25 0.75 M10000.01 1.13 C7827.97 2.74, 5656.23 3.35, -0.33 0.84 M-0.04 1.01 C0 0.63, -0.06 0.15, 0.05 -0.03 M-0.04 0.95 C-0.04 0.73, -0.03 0.59, -0.05 -0.02" stroke="transparent" stroke-width="1" fill="none"></path></g><g transform="translate(722 577.0625) rotate(0 -12.5 10)" stroke="none"><path fill="#1864ab" d="M -0.56,1.54 Q -0.56,1.54 -3.69,0.35 -6.83,-0.83 -9.68,-1.02 -12.53,-1.22 -15.30,-0.51 -18.08,0.20 -20.25,2.37 -22.42,4.54 -23.66,6.28 -24.90,8.02 -25.37,10.01 -25.84,12.00 -25.52,14.39 -25.19,16.78 -23.75,18.48 -22.31,20.18 -20.97,20.80 -19.62,21.42 -16.97,21.44 -14.33,21.45 -10.89,20.93 -7.46,20.41 -3.30,19.56 0.86,18.71 1.12,18.71 1.39,18.70 1.64,18.79 1.89,18.87 2.10,19.02 2.32,19.18 2.47,19.40 2.62,19.62 2.69,19.87 2.77,20.13 2.76,20.39 2.74,20.65 2.65,20.90 2.55,21.15 2.38,21.35 2.22,21.55 1.99,21.69 1.77,21.83 1.51,21.89 1.25,21.95 0.99,21.93 0.72,21.90 0.48,21.79 0.24,21.68 0.05,21.51 -0.14,21.33 -0.26,21.09 -0.39,20.86 -0.44,20.60 -0.48,20.34 -0.44,20.08 -0.40,19.82 -0.28,19.58 -0.16,19.35 0.02,19.16 0.21,18.98 0.45,18.86 0.69,18.75 0.95,18.72 1.21,18.69 1.47,18.74 1.73,18.79 1.96,18.93 2.19,19.06 2.36,19.26 2.53,19.46 2.64,19.71 2.74,19.95 2.75,20.22 2.77,20.48 2.70,20.73 2.63,20.99 2.49,21.21 2.34,21.43 2.13,21.59 1.93,21.76 1.68,21.84 1.43,21.93 1.43,21.93 1.43,21.93 -2.80,22.56 -7.04,23.19 -10.71,23.75 -14.39,24.32 -17.65,24.19 -20.90,24.06 -22.63,22.98 -24.35,21.90 -26.07,19.60 -27.79,17.31 -28.14,14.36 -28.49,11.40 -27.83,8.94 -27.18,6.48 -25.77,4.50 -24.37,2.52 -21.66,0.01 -18.96,-2.49 -15.67,-3.34 -12.38,-4.18 -9.10,-3.97 -5.81,-3.76 -2.62,-2.65 0.56,-1.54 0.73,-1.45 0.91,-1.36 1.06,-1.23 1.21,-1.10 1.32,-0.94 1.44,-0.78 1.51,-0.59 1.58,-0.41 1.61,-0.21 1.64,-0.02 1.62,0.17 1.60,0.37 1.53,0.55 1.46,0.74 1.35,0.90 1.24,1.07 1.09,1.20 0.95,1.33 0.77,1.43 0.60,1.52 0.41,1.57 0.22,1.62 0.02,1.63 -0.17,1.63 -0.36,1.58 -0.56,1.54 -0.56,1.54 L -0.56,1.54 Z"></path></g><g transform="translate(690 665.0625) rotate(0 13 -7)" stroke="none"><path fill="#1864ab" d="M -2.13,0.42 Q -2.13,0.42 -2.44,-1.01 -2.75,-2.46 -2.57,-4.54 -2.38,-6.62 -1.65,-8.51 -0.92,-10.41 -0.34,-11.54 0.22,-12.68 1.24,-14.15 2.25,-15.62 2.46,-15.84 2.67,-16.05 2.92,-16.21 3.17,-16.37 3.46,-16.47 3.74,-16.56 4.04,-16.59 4.34,-16.61 4.63,-16.56 4.93,-16.52 5.21,-16.40 5.48,-16.28 5.72,-16.10 5.96,-15.92 6.15,-15.69 6.34,-15.46 6.47,-15.19 6.60,-14.92 6.66,-14.62 6.72,-14.33 6.70,-14.03 6.69,-13.73 6.61,-13.44 6.53,-13.16 6.38,-12.90 6.23,-12.64 6.76,-11.58 7.29,-10.53 7.51,-8.68 7.73,-6.83 8.29,-5.53 8.85,-4.23 9.84,-3.34 10.82,-2.46 12.37,-2.61 13.91,-2.76 15.36,-3.30 16.81,-3.84 18.78,-5.34 20.74,-6.83 22.78,-8.73 24.82,-10.62 25.08,-10.78 25.34,-10.94 25.64,-11.00 25.94,-11.07 26.24,-11.04 26.55,-11.01 26.82,-10.88 27.10,-10.76 27.33,-10.55 27.55,-10.34 27.70,-10.07 27.84,-9.80 27.89,-9.50 27.95,-9.20 27.90,-8.89 27.85,-8.59 27.71,-8.32 27.57,-8.05 27.35,-7.84 27.13,-7.62 26.85,-7.49 26.57,-7.36 26.27,-7.33 25.97,-7.29 25.67,-7.36 25.37,-7.42 25.10,-7.58 24.84,-7.73 24.64,-7.96 24.44,-8.20 24.32,-8.48 24.21,-8.76 24.19,-9.07 24.17,-9.37 24.25,-9.67 24.33,-9.96 24.50,-10.22 24.67,-10.47 24.91,-10.66 25.15,-10.85 25.44,-10.95 25.73,-11.05 26.04,-11.05 26.35,-11.05 26.64,-10.96 26.93,-10.86 27.17,-10.68 27.42,-10.49 27.59,-10.24 27.76,-9.99 27.85,-9.70 27.93,-9.40 27.92,-9.10 27.90,-8.79 27.79,-8.50 27.68,-8.22 27.49,-7.98 27.29,-7.75 27.29,-7.75 27.29,-7.75 25.06,-5.96 22.82,-4.16 20.44,-2.28 18.06,-0.40 16.05,0.24 14.03,0.89 11.48,0.82 8.93,0.75 7.05,-0.87 5.17,-2.49 4.40,-4.39 3.63,-6.28 3.42,-7.91 3.21,-9.53 2.73,-12.57 2.25,-15.62 2.46,-15.84 2.67,-16.05 2.92,-16.21 3.17,-16.37 3.46,-16.47 3.74,-16.56 4.04,-16.59 4.34,-16.61 4.63,-16.56 4.93,-16.52 5.21,-16.40 5.48,-16.28 5.72,-16.10 5.96,-15.92 6.15,-15.69 6.34,-15.46 6.47,-15.19 6.60,-14.92 6.66,-14.62 6.72,-14.33 6.70,-14.03 6.69,-13.73 6.61,-13.44 6.53,-13.16 6.38,-12.90 6.23,-12.64 5.67,-12.09 5.11,-11.53 4.06,-10.18 3.01,-8.82 2.45,-7.49 1.90,-6.17 1.75,-4.72 1.60,-3.28 1.87,-1.85 2.13,-0.42 2.15,-0.16 2.17,0.09 2.13,0.35 2.09,0.61 1.98,0.85 1.88,1.09 1.72,1.30 1.56,1.51 1.36,1.68 1.15,1.84 0.91,1.95 0.68,2.07 0.42,2.12 0.16,2.17 -0.09,2.16 -0.35,2.14 -0.61,2.07 -0.86,2.00 -1.08,1.86 -1.31,1.73 -1.50,1.55 -1.69,1.37 -1.83,1.14 -1.97,0.92 -2.05,0.67 -2.13,0.42 -2.13,0.42 L -2.13,0.42 Z"></path></g><g transform="translate(758 650.0625) rotate(0 -13 10.5)" stroke="none"><path fill="#1864ab" d="M -0.41,1.67 Q -0.41,1.67 -2.70,1.04 -4.99,0.41 -6.47,0.25 -7.96,0.08 -10.10,0.20 -12.24,0.31 -14.93,2.24 -17.63,4.16 -19.65,6.61 -21.66,9.05 -22.48,11.37 -23.29,13.70 -23.31,15.06 -23.33,16.42 -22.36,17.55 -21.39,18.69 -19.78,19.45 -18.18,20.21 -15.65,20.19 -13.12,20.18 -12.85,20.24 -12.57,20.30 -12.33,20.45 -12.09,20.60 -11.91,20.81 -11.72,21.03 -11.62,21.29 -11.52,21.56 -11.50,21.84 -11.49,22.12 -11.57,22.39 -11.65,22.66 -11.81,22.90 -11.97,23.13 -12.19,23.30 -12.42,23.47 -12.69,23.56 -12.95,23.65 -13.24,23.65 -13.52,23.64 -13.79,23.55 -14.05,23.46 -14.28,23.29 -14.50,23.12 -14.66,22.88 -14.82,22.65 -14.89,22.37 -14.97,22.10 -14.95,21.82 -14.93,21.54 -14.83,21.27 -14.72,21.01 -14.53,20.80 -14.35,20.58 -14.11,20.44 -13.86,20.29 -13.59,20.23 -13.31,20.18 -13.03,20.21 -12.75,20.24 -12.49,20.36 -12.24,20.48 -12.03,20.68 -11.83,20.87 -11.70,21.12 -11.57,21.37 -11.52,21.65 -11.48,21.93 -11.53,22.21 -11.57,22.49 -11.71,22.74 -11.84,22.99 -12.05,23.18 -12.26,23.37 -12.51,23.49 -12.77,23.61 -13.05,23.64 -13.33,23.67 -13.33,23.67 -13.33,23.67 -16.39,23.32 -19.45,22.96 -21.66,21.82 -23.87,20.67 -25.12,18.67 -26.37,16.67 -26.18,14.71 -26.00,12.76 -24.99,9.99 -23.98,7.22 -21.69,4.43 -19.41,1.64 -16.06,-0.60 -12.70,-2.85 -10.07,-3.11 -7.44,-3.36 -5.82,-3.04 -4.20,-2.71 -1.89,-2.19 0.41,-1.67 0.61,-1.59 0.80,-1.52 0.97,-1.40 1.14,-1.28 1.28,-1.13 1.42,-0.97 1.51,-0.79 1.61,-0.60 1.66,-0.40 1.71,-0.20 1.71,0.00 1.71,0.21 1.66,0.41 1.61,0.61 1.51,0.80 1.41,0.98 1.27,1.14 1.13,1.29 0.96,1.41 0.79,1.53 0.60,1.60 0.40,1.67 0.20,1.70 -0.00,1.72 -0.21,1.69 -0.41,1.67 -0.41,1.67 L -0.41,1.67 Z"></path></g><g transform="translate(805 569.0625) rotate(0 -5.5 67)" stroke="none"><path fill="#000" d="M 1.56,0 Q 1.56,0 1.52,3.16 1.49,6.32 1.46,9.68 1.44,13.03 1.42,20.50 1.40,27.96 1.10,37.77 0.80,47.57 0.38,55.48 -0.03,63.39 -1.36,73.70 -2.70,84.01 -4.13,93.55 -5.56,103.10 -6.75,110.32 -7.93,117.54 -7.86,121.92 -7.78,126.31 -6.81,129.25 -5.85,132.19 -5.82,132.45 -5.80,132.70 -5.85,132.95 -5.91,133.20 -6.04,133.42 -6.17,133.64 -6.37,133.80 -6.56,133.97 -6.80,134.06 -7.04,134.16 -7.29,134.17 -7.55,134.18 -7.80,134.12 -8.04,134.05 -8.25,133.90 -8.47,133.76 -8.62,133.55 -8.78,133.35 -8.86,133.11 -8.94,132.86 -8.94,132.61 -8.94,132.35 -8.85,132.11 -8.77,131.87 -8.62,131.66 -8.46,131.46 -8.25,131.32 -8.04,131.17 -7.79,131.11 -7.54,131.04 -7.29,131.05 -7.03,131.07 -6.79,131.16 -6.56,131.26 -6.36,131.42 -6.17,131.59 -6.04,131.81 -5.90,132.03 -5.85,132.28 -5.80,132.53 -5.82,132.78 -5.85,133.04 -5.96,133.27 -6.07,133.50 -6.24,133.69 -6.42,133.87 -6.65,133.99 -6.87,134.11 -7.13,134.15 -7.38,134.19 -7.63,134.15 -7.88,134.11 -8.11,133.99 -8.34,133.87 -8.51,133.68 -8.69,133.50 -8.79,133.26 -8.90,133.03 -8.90,133.03 -8.90,133.03 -9.67,129.70 -10.43,126.37 -10.50,121.74 -10.56,117.12 -9.39,109.91 -8.21,102.70 -6.79,93.18 -5.38,83.66 -4.06,73.46 -2.75,63.25 -2.35,55.37 -1.95,47.49 -1.68,37.73 -1.40,27.96 -1.42,20.50 -1.44,13.03 -1.46,9.68 -1.49,6.32 -1.52,3.16 -1.56,0 -1.53,-0.18 -1.51,-0.37 -1.45,-0.54 -1.38,-0.72 -1.27,-0.88 -1.16,-1.03 -1.02,-1.16 -0.88,-1.28 -0.72,-1.37 -0.55,-1.46 -0.37,-1.50 -0.18,-1.55 0.00,-1.55 0.18,-1.55 0.37,-1.50 0.55,-1.46 0.72,-1.37 0.88,-1.28 1.02,-1.16 1.16,-1.03 1.27,-0.88 1.38,-0.72 1.45,-0.54 1.51,-0.37 1.53,-0.18 1.56,0.00 1.56,0.00 L 1.56,0 Z"></path></g><g transform="translate(798 568.0625) rotate(0 81.5 9)" stroke="none"><path fill="#000" d="M 0,-1.57 Q 0,-1.57 2.01,-1.56 4.02,-1.55 8.14,-0.94 12.27,-0.32 15.98,0.23 19.70,0.78 26.72,1.60 33.74,2.41 43.07,3.63 52.40,4.85 63.24,5.94 74.08,7.03 82.14,7.79 90.20,8.54 100.23,9.44 110.27,10.34 119.72,11.30 129.17,12.26 136.94,13.24 144.70,14.23 150.01,14.94 155.32,15.64 157.58,15.94 159.83,16.24 160.04,16.31 160.24,16.37 160.42,16.49 160.59,16.62 160.72,16.79 160.84,16.96 160.91,17.17 160.97,17.37 160.96,17.58 160.96,17.80 160.89,18.00 160.81,18.20 160.68,18.37 160.55,18.53 160.37,18.65 160.19,18.76 159.98,18.82 159.77,18.87 159.56,18.85 159.35,18.84 159.15,18.75 158.95,18.67 158.79,18.53 158.63,18.38 158.53,18.20 158.42,18.01 158.38,17.80 158.34,17.59 158.37,17.38 158.40,17.17 158.49,16.98 158.59,16.79 158.74,16.63 158.89,16.48 159.08,16.39 159.27,16.29 159.48,16.26 159.69,16.23 159.90,16.27 160.11,16.31 160.30,16.42 160.49,16.52 160.63,16.68 160.77,16.84 160.86,17.03 160.94,17.23 160.96,17.44 160.98,17.66 160.93,17.86 160.88,18.07 160.76,18.25 160.65,18.43 160.48,18.57 160.31,18.70 160.11,18.77 159.91,18.85 159.70,18.85 159.49,18.86 159.49,18.86 159.49,18.86 157.23,18.56 154.98,18.27 149.67,17.56 144.37,16.86 136.64,15.89 128.90,14.91 119.47,13.96 110.03,13.01 99.99,12.12 89.95,11.23 81.88,10.49 73.80,9.74 62.92,8.67 52.04,7.59 42.73,6.40 33.42,5.21 26.36,4.42 19.29,3.64 15.57,3.13 11.84,2.62 7.93,2.09 4.02,1.55 2.01,1.56 0,1.57 -0.18,1.54 -0.37,1.52 -0.55,1.45 -0.73,1.39 -0.88,1.28 -1.04,1.17 -1.16,1.03 -1.29,0.89 -1.38,0.72 -1.46,0.55 -1.51,0.37 -1.56,0.18 -1.56,-0.00 -1.56,-0.18 -1.51,-0.37 -1.46,-0.55 -1.38,-0.72 -1.29,-0.89 -1.16,-1.03 -1.04,-1.17 -0.88,-1.28 -0.73,-1.39 -0.55,-1.45 -0.37,-1.52 -0.18,-1.54 0.00,-1.57 0.00,-1.57 L 0,-1.57 Z"></path></g><g transform="translate(862 533.0625) rotate(0 -14 10)" stroke="none"><path fill="#1864ab" d="M -0.47,1.64 Q -0.47,1.64 -2.47,1.02 -4.47,0.41 -5.98,-0.07 -7.48,-0.55 -9.32,-0.77 -11.16,-0.99 -13.40,-1.13 -15.65,-1.27 -17.65,-1.07 -19.65,-0.87 -21.48,-0.00 -23.30,0.86 -24.20,2.00 -25.09,3.15 -25.76,4.88 -26.44,6.62 -26.73,8.44 -27.02,10.27 -26.63,12.57 -26.25,14.86 -24.80,16.51 -23.35,18.16 -21.17,19.12 -18.99,20.08 -17.22,20.48 -15.45,20.89 -12.82,20.80 -10.20,20.71 -7.93,20.41 -5.66,20.10 -4.53,19.60 -3.40,19.09 -1.50,18.72 0.39,18.34 0.67,18.35 0.94,18.37 1.20,18.47 1.46,18.56 1.67,18.74 1.89,18.92 2.03,19.16 2.18,19.39 2.24,19.66 2.30,19.93 2.28,20.21 2.25,20.48 2.13,20.74 2.02,20.99 1.83,21.19 1.64,21.40 1.40,21.53 1.16,21.66 0.88,21.71 0.61,21.76 0.34,21.72 0.06,21.67 -0.17,21.55 -0.42,21.42 -0.61,21.22 -0.81,21.02 -0.93,20.77 -1.05,20.52 -1.08,20.24 -1.11,19.97 -1.05,19.70 -1.00,19.43 -0.86,19.19 -0.72,18.95 -0.51,18.77 -0.30,18.58 -0.04,18.48 0.21,18.37 0.48,18.36 0.76,18.34 1.03,18.41 1.30,18.48 1.53,18.63 1.76,18.79 1.93,19.01 2.10,19.22 2.19,19.49 2.28,19.75 2.28,20.03 2.29,20.30 2.20,20.57 2.11,20.83 1.95,21.05 1.78,21.28 1.56,21.43 1.33,21.59 1.06,21.67 0.79,21.75 0.80,21.75 0.80,21.75 -0.79,21.95 -2.39,22.15 -3.83,22.50 -5.27,22.84 -7.69,23.19 -10.11,23.53 -13.12,23.62 -16.13,23.70 -18.13,23.15 -20.14,22.60 -22.79,21.32 -25.43,20.05 -27.23,17.79 -29.03,15.53 -29.51,12.68 -29.99,9.83 -29.62,7.68 -29.25,5.52 -28.36,3.30 -27.47,1.08 -26.04,-0.31 -24.61,-1.72 -22.33,-2.78 -20.04,-3.85 -17.78,-4.14 -15.52,-4.43 -13.15,-4.38 -10.79,-4.33 -8.53,-4.10 -6.28,-3.87 -4.93,-3.29 -3.57,-2.71 -1.55,-2.17 0.47,-1.64 0.66,-1.56 0.85,-1.48 1.01,-1.36 1.18,-1.24 1.31,-1.08 1.44,-0.92 1.53,-0.73 1.62,-0.54 1.66,-0.34 1.70,-0.14 1.70,0.06 1.69,0.26 1.63,0.46 1.57,0.66 1.47,0.84 1.37,1.02 1.23,1.17 1.08,1.32 0.91,1.43 0.74,1.54 0.54,1.61 0.34,1.67 0.14,1.69 -0.06,1.71 -0.26,1.68 -0.47,1.64 -0.47,1.64 L -0.47,1.64 Z"></path></g><g transform="translate(902 549.0625) rotate(0 17.5 -4)" stroke="none"><path fill="#1864ab" d="M -1.35,-1.89 Q -1.35,-1.89 0.73,-3.22 2.82,-4.55 4.61,-5.67 6.39,-6.79 8.10,-7.66 9.81,-8.52 11.28,-8.99 12.76,-9.46 14.78,-8.74 16.79,-8.02 17.39,-6.54 18.00,-5.05 19.29,-4.12 20.58,-3.18 22.81,-2.92 25.05,-2.67 26.74,-3.01 28.43,-3.35 30.98,-4.11 33.53,-4.87 33.89,-4.96 34.26,-5.05 34.63,-5.02 35.00,-4.98 35.34,-4.83 35.68,-4.68 35.95,-4.43 36.23,-4.18 36.41,-3.86 36.59,-3.53 36.66,-3.17 36.73,-2.80 36.67,-2.44 36.62,-2.07 36.45,-1.73 36.29,-1.40 36.02,-1.14 35.76,-0.88 35.42,-0.72 35.09,-0.55 34.72,-0.51 34.35,-0.46 33.99,-0.53 33.62,-0.60 33.30,-0.79 32.98,-0.97 32.73,-1.25 32.48,-1.53 32.34,-1.87 32.19,-2.21 32.17,-2.59 32.14,-2.96 32.23,-3.32 32.32,-3.68 32.52,-3.99 32.73,-4.30 33.02,-4.53 33.31,-4.76 33.66,-4.89 34.01,-5.02 34.38,-5.02 34.75,-5.03 35.11,-4.92 35.46,-4.81 35.76,-4.59 36.06,-4.37 36.28,-4.07 36.49,-3.76 36.60,-3.41 36.71,-3.05 36.70,-2.68 36.68,-2.31 36.55,-1.96 36.42,-1.61 36.19,-1.32 35.95,-1.03 35.64,-0.84 35.32,-0.64 35.32,-0.64 35.32,-0.64 32.42,0.12 29.51,0.89 27.10,1.59 24.70,2.28 23.07,2.14 21.45,1.99 19.74,1.53 18.03,1.07 16.52,0.01 15.02,-1.05 14.31,-3.09 13.61,-5.13 12.54,-5.13 11.48,-5.13 10.00,-4.41 8.52,-3.69 6.87,-2.44 5.22,-1.19 3.28,0.34 1.35,1.89 1.10,2.02 0.85,2.16 0.58,2.23 0.31,2.30 0.03,2.30 -0.24,2.31 -0.51,2.25 -0.78,2.18 -1.04,2.06 -1.29,1.93 -1.50,1.75 -1.71,1.57 -1.87,1.34 -2.04,1.11 -2.14,0.85 -2.24,0.59 -2.28,0.31 -2.32,0.03 -2.29,-0.24 -2.26,-0.52 -2.17,-0.78 -2.07,-1.04 -1.92,-1.28 -1.76,-1.51 -1.55,-1.70 -1.35,-1.89 -1.35,-1.89 L -1.35,-1.89 Z"></path></g><g transform="translate(983 534.0625) rotate(0 -15 11)" stroke="none"><path fill="#1864ab" d="M -0.37,1.51 Q -0.37,1.51 -2.65,0.90 -4.93,0.30 -8.55,0.62 -12.17,0.94 -15.95,2.18 -19.73,3.42 -21.82,4.74 -23.91,6.06 -25.24,7.81 -26.57,9.56 -26.30,11.44 -26.03,13.32 -24.07,15.42 -22.11,17.53 -19.38,18.99 -16.65,20.46 -14.68,21.09 -12.71,21.72 -10.81,21.59 -8.91,21.45 -8.67,21.49 -8.42,21.53 -8.20,21.65 -7.98,21.77 -7.81,21.95 -7.64,22.13 -7.54,22.36 -7.43,22.58 -7.40,22.83 -7.38,23.08 -7.43,23.32 -7.49,23.57 -7.61,23.78 -7.74,23.99 -7.93,24.15 -8.12,24.32 -8.36,24.41 -8.59,24.50 -8.84,24.51 -9.09,24.53 -9.33,24.46 -9.57,24.39 -9.77,24.25 -9.98,24.11 -10.13,23.91 -10.28,23.71 -10.36,23.48 -10.44,23.24 -10.44,22.99 -10.44,22.74 -10.36,22.51 -10.28,22.27 -10.13,22.07 -9.97,21.87 -9.77,21.73 -9.56,21.59 -9.32,21.53 -9.08,21.46 -8.83,21.48 -8.58,21.49 -8.35,21.58 -8.12,21.67 -7.93,21.84 -7.74,22.00 -7.61,22.21 -7.48,22.43 -7.43,22.67 -7.38,22.91 -7.40,23.16 -7.43,23.41 -7.54,23.63 -7.64,23.86 -7.81,24.04 -7.99,24.22 -8.21,24.34 -8.43,24.45 -8.67,24.49 -8.92,24.53 -8.92,24.53 -8.92,24.53 -11.20,24.39 -13.49,24.25 -15.71,23.52 -17.93,22.80 -21.01,21.06 -24.09,19.32 -26.34,16.59 -28.59,13.86 -28.74,11.13 -28.89,8.41 -27.16,6.08 -25.43,3.76 -23.03,2.26 -20.62,0.75 -16.53,-0.58 -12.43,-1.92 -8.35,-2.26 -4.26,-2.60 -1.94,-2.05 0.37,-1.51 0.55,-1.44 0.73,-1.38 0.88,-1.27 1.03,-1.16 1.16,-1.02 1.28,-0.88 1.37,-0.71 1.46,-0.54 1.50,-0.36 1.55,-0.18 1.55,0.00 1.55,0.19 1.50,0.37 1.45,0.55 1.37,0.72 1.28,0.89 1.15,1.03 1.03,1.17 0.87,1.27 0.72,1.38 0.54,1.45 0.36,1.51 0.18,1.54 -0.00,1.56 -0.19,1.53 -0.37,1.51 -0.37,1.51 L -0.37,1.51 Z"></path></g><g transform="translate(854 595.0625) rotate(0 -12 8)" stroke="none"><path fill="#000" d="M 1.69,1.20 Q 1.69,1.20 0.17,3.16 -1.34,5.11 -2.58,6.78 -3.81,8.45 -4.58,9.57 -5.35,10.70 -6.79,11.69 -8.23,12.69 -10.53,13.06 -12.83,13.44 -15.06,13.23 -17.28,13.03 -19.31,11.98 -21.33,10.93 -22.53,10.19 -23.73,9.45 -24.52,7.94 -25.32,6.42 -25.62,5.14 -25.91,3.85 -24.46,1.87 -23.01,-0.09 -21.62,0.10 -20.23,0.29 -17.90,2.16 -15.58,4.03 -13.90,5.68 -12.23,7.32 -10.91,8.56 -9.59,9.80 -8.84,10.72 -8.09,11.63 -6.71,12.70 -5.34,13.77 -5.03,13.98 -4.72,14.19 -4.50,14.48 -4.28,14.78 -4.16,15.13 -4.04,15.49 -4.05,15.86 -4.05,16.23 -4.17,16.58 -4.29,16.93 -4.51,17.23 -4.74,17.52 -5.05,17.73 -5.36,17.94 -5.72,18.03 -6.07,18.13 -6.45,18.11 -6.82,18.09 -7.16,17.95 -7.50,17.81 -7.79,17.57 -8.07,17.32 -8.26,17.01 -8.45,16.69 -8.53,16.32 -8.61,15.96 -8.56,15.59 -8.52,15.22 -8.36,14.89 -8.21,14.55 -7.95,14.28 -7.69,14.01 -7.36,13.84 -7.03,13.67 -6.67,13.61 -6.30,13.55 -5.93,13.61 -5.57,13.67 -5.24,13.85 -4.91,14.03 -4.66,14.30 -4.40,14.57 -4.25,14.91 -4.10,15.24 -4.06,15.61 -4.02,15.98 -4.10,16.34 -4.18,16.71 -4.38,17.02 -4.57,17.34 -4.85,17.58 -5.14,17.82 -5.48,17.96 -5.83,18.09 -6.20,18.11 -6.57,18.13 -6.93,18.03 -7.29,17.93 -7.29,17.93 -7.29,17.93 -8.88,16.71 -10.48,15.49 -11.36,14.03 -12.23,12.58 -13.51,11.37 -14.78,10.17 -16.50,8.78 -18.22,7.38 -19.82,6.15 -21.43,4.93 -22.51,4.60 -23.60,4.28 -22.50,4.63 -21.40,4.97 -20.51,6.39 -19.62,7.81 -18.24,8.62 -16.86,9.42 -15.13,9.54 -13.40,9.65 -10.85,8.97 -8.30,8.29 -7.49,7.38 -6.68,6.46 -5.54,4.70 -4.40,2.93 -3.04,0.86 -1.69,-1.20 -1.52,-1.39 -1.35,-1.57 -1.14,-1.71 -0.93,-1.85 -0.70,-1.94 -0.46,-2.02 -0.21,-2.05 0.03,-2.07 0.28,-2.04 0.53,-2.01 0.76,-1.91 0.99,-1.82 1.19,-1.67 1.40,-1.53 1.56,-1.34 1.73,-1.15 1.84,-0.92 1.95,-0.70 2.01,-0.46 2.06,-0.21 2.06,0.03 2.05,0.28 1.99,0.52 1.93,0.76 1.81,0.98 1.69,1.20 1.69,1.20 L 1.69,1.20 Z"></path></g><g transform="translate(901 608.0625) rotate(0 7.5 3)" stroke="none"><path fill="#000" d="M -0.74,-1.99 Q -0.74,-1.99 1.58,-2.75 3.92,-3.52 6.44,-4.12 8.96,-4.72 10.18,-5.32 11.39,-5.92 12.16,-5.94 12.93,-5.96 13.17,-6.03 13.41,-6.10 13.65,-6.11 13.90,-6.13 14.15,-6.08 14.39,-6.03 14.62,-5.92 14.84,-5.82 15.04,-5.66 15.23,-5.50 15.38,-5.30 15.53,-5.10 15.63,-4.88 15.73,-4.65 15.77,-4.40 15.81,-4.16 15.79,-3.91 15.77,-3.66 15.69,-3.42 15.62,-3.19 15.48,-2.97 15.35,-2.76 15.17,-2.59 14.99,-2.42 14.78,-2.29 14.56,-2.17 14.50,-0.61 14.44,0.93 13.88,3.07 13.32,5.21 13.21,6.38 13.10,7.55 13.31,8.67 13.51,9.80 13.61,10.09 13.71,10.38 13.71,10.69 13.72,11.00 13.62,11.29 13.53,11.58 13.34,11.83 13.16,12.07 12.90,12.25 12.65,12.42 12.36,12.51 12.06,12.59 11.75,12.58 11.45,12.57 11.16,12.45 10.87,12.34 10.64,12.15 10.40,11.95 10.24,11.69 10.08,11.42 10.01,11.12 9.94,10.82 9.97,10.52 10.00,10.21 10.13,9.93 10.26,9.65 10.47,9.43 10.68,9.20 10.95,9.06 11.22,8.91 11.52,8.86 11.82,8.80 12.13,8.85 12.43,8.90 12.70,9.04 12.98,9.18 13.19,9.40 13.40,9.63 13.53,9.90 13.67,10.18 13.70,10.49 13.74,10.79 13.67,11.09 13.61,11.39 13.45,11.66 13.30,11.92 13.06,12.13 12.83,12.33 12.55,12.44 12.26,12.56 11.96,12.58 11.65,12.60 11.35,12.52 11.05,12.44 10.80,12.27 10.54,12.10 10.35,11.85 10.17,11.61 10.17,11.61 10.17,11.61 9.84,9.26 9.52,6.91 9.84,5.69 10.16,4.47 10.60,2.33 11.04,0.20 11.98,-2.88 12.93,-5.96 13.17,-6.03 13.41,-6.10 13.65,-6.11 13.90,-6.13 14.15,-6.08 14.39,-6.03 14.62,-5.92 14.84,-5.82 15.04,-5.66 15.23,-5.50 15.38,-5.30 15.53,-5.10 15.63,-4.88 15.73,-4.65 15.77,-4.40 15.81,-4.16 15.79,-3.91 15.77,-3.66 15.69,-3.42 15.62,-3.19 15.48,-2.97 15.35,-2.76 15.17,-2.59 14.99,-2.42 14.78,-2.29 14.56,-2.17 13.64,-2.28 12.71,-2.40 11.30,-1.87 9.89,-1.34 7.58,-0.63 5.27,0.07 3.01,1.03 0.74,1.99 0.49,2.05 0.24,2.12 -0.00,2.11 -0.26,2.11 -0.51,2.05 -0.76,1.99 -0.99,1.87 -1.21,1.75 -1.41,1.58 -1.60,1.40 -1.74,1.19 -1.89,0.98 -1.98,0.74 -2.07,0.50 -2.10,0.24 -2.13,-0.00 -2.10,-0.26 -2.07,-0.51 -1.97,-0.75 -1.88,-0.99 -1.73,-1.21 -1.59,-1.42 -1.39,-1.59 -1.20,-1.76 -0.97,-1.88 -0.74,-1.99 -0.74,-1.99 L -0.74,-1.99 Z"></path></g><g transform="translate(938 608.0625) rotate(0 7 1.5)" stroke="none"><path fill="#000" d="M 0.74,-1.97 Q 0.74,-1.97 3.00,-1.01 5.26,-0.05 7.20,0.34 9.15,0.74 11.21,0.87 13.27,0.99 13.56,1.07 13.86,1.16 14.12,1.33 14.38,1.50 14.57,1.75 14.75,1.99 14.85,2.29 14.95,2.58 14.96,2.89 14.96,3.20 14.86,3.49 14.76,3.79 14.57,4.04 14.39,4.28 14.13,4.46 13.88,4.63 13.58,4.72 13.28,4.80 12.97,4.78 12.66,4.77 12.37,4.65 12.08,4.54 11.85,4.34 11.61,4.14 11.45,3.88 11.29,3.61 11.22,3.31 11.15,3.01 11.19,2.70 11.22,2.39 11.35,2.11 11.48,1.83 11.69,1.60 11.90,1.38 12.18,1.23 12.45,1.08 12.75,1.03 13.06,0.98 13.37,1.03 13.67,1.08 13.95,1.23 14.22,1.37 14.43,1.59 14.65,1.82 14.78,2.10 14.91,2.38 14.94,2.69 14.98,2.99 14.91,3.30 14.85,3.60 14.69,3.87 14.53,4.13 14.29,4.33 14.06,4.53 13.77,4.65 13.48,4.77 13.17,4.78 12.86,4.80 12.86,4.80 12.87,4.80 10.71,4.48 8.55,4.17 6.24,3.83 3.93,3.50 1.59,2.73 -0.74,1.97 -0.96,1.85 -1.19,1.74 -1.38,1.57 -1.57,1.40 -1.71,1.19 -1.86,0.98 -1.95,0.74 -2.04,0.51 -2.07,0.26 -2.10,0.00 -2.07,-0.24 -2.04,-0.49 -1.96,-0.73 -1.87,-0.97 -1.72,-1.18 -1.58,-1.39 -1.39,-1.56 -1.20,-1.73 -0.97,-1.85 -0.75,-1.96 -0.50,-2.03 -0.26,-2.09 -0.00,-2.09 0.24,-2.09 0.49,-2.03 0.74,-1.97 0.74,-1.97 L 0.74,-1.97 Z"></path></g><g transform="translate(978 607.0625) rotate(0 -12.5 11.5)" stroke="none"><path fill="#000" d="M 0,1.91 Q 0,1.91 -1.69,1.91 -3.38,1.91 -4.81,3.12 -6.23,4.33 -6.79,6.22 -7.34,8.11 -7.88,10.21 -8.41,12.30 -9.60,14.81 -10.80,17.32 -12.27,19.06 -13.74,20.81 -15.67,22.16 -17.60,23.52 -19.55,23.94 -21.50,24.37 -23.24,23.86 -24.99,23.36 -26.01,21.92 -27.03,20.48 -26.53,18.75 -26.03,17.01 -24.29,16.19 -22.56,15.36 -20.64,15.19 -18.72,15.01 -17.38,14.90 -16.04,14.79 -13.71,14.89 -11.39,14.99 -8.97,15.07 -6.56,15.16 -3.60,14.66 -0.63,14.16 -0.30,14.17 0.02,14.18 0.32,14.30 0.63,14.41 0.89,14.62 1.15,14.82 1.32,15.10 1.50,15.38 1.58,15.70 1.66,16.02 1.63,16.34 1.60,16.67 1.47,16.97 1.34,17.28 1.12,17.52 0.90,17.77 0.62,17.93 0.33,18.09 0.01,18.15 -0.31,18.21 -0.63,18.17 -0.96,18.12 -1.25,17.97 -1.55,17.83 -1.78,17.60 -2.01,17.36 -2.16,17.07 -2.30,16.77 -2.35,16.45 -2.39,16.12 -2.33,15.80 -2.27,15.47 -2.10,15.19 -1.94,14.90 -1.70,14.68 -1.45,14.46 -1.15,14.33 -0.85,14.21 -0.52,14.18 -0.19,14.15 0.12,14.23 0.44,14.31 0.71,14.49 0.99,14.67 1.20,14.92 1.40,15.18 1.51,15.49 1.63,15.80 1.64,16.13 1.64,16.46 1.55,16.77 1.45,17.09 1.26,17.35 1.07,17.62 0.80,17.81 0.53,18.00 0.22,18.10 -0.09,18.19 -0.09,18.19 -0.09,18.19 -3.31,18.53 -6.54,18.87 -8.94,18.98 -11.33,19.09 -13.56,19.25 -15.79,19.41 -17.04,19.44 -18.30,19.46 -20.05,20.19 -21.80,20.92 -20.58,20.86 -19.36,20.81 -17.88,19.68 -16.40,18.56 -15.27,17.18 -14.13,15.79 -13.26,13.65 -12.38,11.51 -12.11,9.41 -11.84,7.32 -11.39,5.36 -10.95,3.40 -10.11,2.32 -9.26,1.23 -8.09,0.27 -6.92,-0.68 -5.21,-1.30 -3.51,-1.91 -1.75,-1.91 0,-1.91 0.22,-1.88 0.45,-1.85 0.67,-1.77 0.88,-1.69 1.07,-1.56 1.26,-1.43 1.42,-1.25 1.57,-1.08 1.67,-0.88 1.78,-0.67 1.84,-0.45 1.89,-0.23 1.89,0.00 1.89,0.23 1.84,0.45 1.78,0.67 1.67,0.88 1.57,1.08 1.42,1.25 1.26,1.43 1.07,1.56 0.88,1.69 0.67,1.77 0.45,1.85 0.22,1.88 -0.00,1.91 -0.00,1.91 L 0,1.91 Z"></path></g><g transform="translate(833 663.0625) rotate(0 0 16)" stroke="none"><path fill="#000" d="M 2.13,0 Q 2.13,0 2.02,2.30 1.91,4.60 1.54,7.39 1.16,10.19 0.99,13.00 0.81,15.82 0.79,17.60 0.76,19.39 0.74,21.28 0.72,23.18 1.03,24.70 1.33,26.23 2.11,28.68 2.89,31.14 2.92,31.47 2.94,31.80 2.86,32.12 2.78,32.44 2.60,32.72 2.42,33.00 2.16,33.20 1.90,33.41 1.59,33.52 1.28,33.63 0.95,33.64 0.62,33.65 0.30,33.55 -0.00,33.45 -0.27,33.26 -0.54,33.06 -0.73,32.79 -0.92,32.52 -1.02,32.21 -1.11,31.89 -1.10,31.56 -1.09,31.23 -0.97,30.92 -0.86,30.61 -0.65,30.35 -0.44,30.10 -0.16,29.92 0.11,29.74 0.43,29.66 0.75,29.59 1.08,29.61 1.41,29.64 1.71,29.78 2.01,29.91 2.26,30.13 2.50,30.35 2.67,30.64 2.83,30.93 2.89,31.25 2.95,31.58 2.90,31.91 2.86,32.23 2.71,32.53 2.56,32.83 2.32,33.06 2.09,33.29 1.79,33.44 1.49,33.58 1.17,33.62 0.84,33.67 0.51,33.60 0.19,33.54 -0.09,33.37 -0.37,33.21 -0.59,32.96 -0.81,32.72 -0.94,32.41 -1.07,32.11 -1.07,32.11 -1.07,32.11 -1.61,29.46 -2.15,26.81 -2.40,24.98 -2.65,23.15 -2.63,21.22 -2.61,19.29 -2.53,17.48 -2.45,15.68 -2.38,12.75 -2.31,9.81 -2.11,7.20 -1.91,4.59 -2.02,2.29 -2.13,0 -2.10,-0.25 -2.07,-0.51 -1.97,-0.75 -1.88,-0.99 -1.74,-1.20 -1.59,-1.41 -1.40,-1.58 -1.21,-1.75 -0.98,-1.87 -0.75,-1.99 -0.50,-2.05 -0.25,-2.11 0.00,-2.11 0.25,-2.11 0.50,-2.05 0.75,-1.99 0.98,-1.87 1.21,-1.75 1.40,-1.58 1.59,-1.41 1.74,-1.20 1.88,-0.99 1.97,-0.75 2.07,-0.51 2.10,-0.25 2.13,0.00 2.13,0.00 L 2.13,0 Z"></path></g><g transform="translate(841 668.0625) rotate(0 9.5 7)" stroke="none"><path fill="#000" d="M -1.39,-1.95 Q -1.39,-1.95 0.69,-3.27 2.79,-4.59 4.61,-5.73 6.44,-6.86 8.08,-7.28 9.73,-7.70 10.99,-7.86 12.25,-8.02 14.07,-7.43 15.89,-6.84 17.11,-5.86 18.32,-4.89 19.15,-4.01 19.97,-3.12 20.18,-1.46 20.40,0.20 19.61,1.50 18.81,2.80 17.95,3.71 17.10,4.62 15.57,5.50 14.04,6.37 12.41,7.46 10.79,8.55 12.34,8.11 13.89,7.68 15.24,9.41 16.59,11.13 16.45,12.75 16.32,14.36 14.65,16.33 12.97,18.31 12.11,19.31 11.24,20.32 8.88,21.82 6.52,23.32 6.09,23.43 5.66,23.54 5.22,23.50 4.77,23.47 4.37,23.29 3.96,23.12 3.63,22.83 3.30,22.53 3.08,22.15 2.86,21.76 2.77,21.33 2.69,20.89 2.75,20.45 2.80,20.02 3.00,19.62 3.19,19.22 3.51,18.91 3.82,18.59 4.21,18.39 4.61,18.19 5.05,18.13 5.49,18.07 5.92,18.15 6.36,18.24 6.74,18.45 7.13,18.67 7.43,19.00 7.72,19.33 7.90,19.73 8.08,20.14 8.12,20.58 8.15,21.02 8.05,21.45 7.94,21.88 7.71,22.25 7.47,22.63 7.12,22.91 6.78,23.19 6.36,23.34 5.95,23.50 5.51,23.51 5.06,23.52 4.64,23.39 4.22,23.27 3.86,23.01 3.50,22.75 3.24,22.39 2.98,22.03 2.84,21.61 2.71,21.19 2.72,20.75 2.73,20.30 2.88,19.89 3.04,19.47 3.31,19.12 3.59,18.78 3.96,18.54 4.33,18.30 4.33,18.30 4.33,18.30 5.77,17.56 7.20,16.81 8.00,15.89 8.79,14.97 10.18,14.11 11.56,13.26 10.04,12.71 8.52,12.16 7.06,11.22 5.60,10.28 5.41,9.21 5.22,8.15 5.77,6.84 6.32,5.53 7.97,4.23 9.62,2.94 11.47,1.90 13.32,0.86 14.23,-0.30 15.13,-1.47 13.76,-2.58 12.40,-3.69 10.44,-3.66 8.48,-3.63 6.86,-2.39 5.25,-1.15 3.32,0.40 1.39,1.95 1.14,2.09 0.88,2.23 0.60,2.30 0.32,2.37 0.03,2.38 -0.25,2.38 -0.53,2.32 -0.81,2.25 -1.07,2.12 -1.33,1.99 -1.55,1.80 -1.77,1.62 -1.93,1.38 -2.10,1.14 -2.21,0.88 -2.32,0.61 -2.36,0.32 -2.40,0.03 -2.37,-0.24 -2.34,-0.53 -2.24,-0.80 -2.14,-1.08 -1.98,-1.32 -1.82,-1.56 -1.60,-1.75 -1.39,-1.95 -1.39,-1.95 L -1.39,-1.95 Z"></path></g><g transform="translate(916 686.0625) rotate(0 8 -2)" stroke="none"><path fill="#000" d="M -1.33,-1.77 Q -1.33,-1.77 -0.19,-2.65 0.94,-3.53 2.89,-5.10 4.84,-6.68 6.15,-7.77 7.46,-8.86 8.54,-10.11 9.63,-11.35 10.81,-12.39 12.00,-13.43 14.11,-14.09 16.22,-14.75 16.80,-11.37 17.37,-8.00 17.20,-5.42 17.03,-2.84 16.62,-0.47 16.21,1.88 16.14,3.38 16.06,4.88 16.79,6.65 17.51,8.42 17.65,8.73 17.80,9.04 17.84,9.39 17.88,9.73 17.81,10.07 17.74,10.41 17.56,10.71 17.39,11.00 17.12,11.23 16.86,11.46 16.54,11.59 16.22,11.72 15.87,11.74 15.53,11.76 15.19,11.67 14.86,11.58 14.57,11.39 14.28,11.20 14.07,10.92 13.86,10.65 13.75,10.32 13.63,9.99 13.63,9.65 13.63,9.30 13.74,8.97 13.85,8.64 14.05,8.36 14.26,8.09 14.55,7.89 14.83,7.69 15.16,7.60 15.50,7.50 15.84,7.52 16.19,7.54 16.51,7.66 16.83,7.79 17.10,8.01 17.37,8.23 17.55,8.53 17.73,8.82 17.80,9.16 17.88,9.50 17.85,9.84 17.81,10.19 17.67,10.50 17.52,10.82 17.29,11.07 17.05,11.33 16.75,11.49 16.44,11.65 16.10,11.71 15.76,11.77 15.42,11.72 15.07,11.66 14.77,11.50 14.46,11.34 14.22,11.09 13.98,10.84 13.98,10.84 13.98,10.85 13.15,7.70 12.32,4.56 12.52,2.98 12.71,1.40 12.93,-0.77 13.16,-2.94 13.11,-5.62 13.07,-8.31 13.95,-9.14 14.84,-9.97 13.89,-9.26 12.94,-8.55 11.71,-7.03 10.48,-5.50 9.05,-4.15 7.62,-2.79 6.50,-2.00 5.38,-1.21 4.52,-0.56 3.65,0.08 2.49,0.93 1.33,1.77 1.09,1.90 0.86,2.04 0.61,2.11 0.35,2.19 0.08,2.20 -0.18,2.21 -0.44,2.15 -0.70,2.10 -0.94,1.98 -1.18,1.87 -1.39,1.70 -1.60,1.53 -1.76,1.32 -1.92,1.10 -2.02,0.86 -2.13,0.61 -2.17,0.35 -2.21,0.08 -2.19,-0.17 -2.17,-0.44 -2.08,-0.69 -2.00,-0.95 -1.86,-1.17 -1.71,-1.40 -1.52,-1.59 -1.33,-1.77 -1.33,-1.77 L -1.33,-1.77 Z"></path></g><g transform="translate(943 684.0625) rotate(0 9 0.5)" stroke="none"><path fill="#000" d="M 0.32,-2.26 Q 0.32,-2.26 2.32,-1.87 4.31,-1.48 5.96,-1.36 7.60,-1.24 9.44,-1.15 11.27,-1.06 12.62,-1.09 13.96,-1.12 15.58,-1.59 17.20,-2.07 17.55,-2.07 17.90,-2.08 18.24,-1.97 18.57,-1.86 18.86,-1.65 19.14,-1.44 19.34,-1.15 19.55,-0.87 19.65,-0.53 19.74,-0.19 19.73,0.15 19.72,0.51 19.59,0.83 19.47,1.16 19.24,1.44 19.02,1.71 18.72,1.90 18.42,2.08 18.08,2.16 17.73,2.24 17.38,2.21 17.03,2.18 16.71,2.03 16.39,1.89 16.13,1.65 15.87,1.41 15.70,1.11 15.53,0.80 15.46,0.45 15.40,0.10 15.45,-0.24 15.51,-0.59 15.67,-0.90 15.83,-1.21 16.08,-1.46 16.33,-1.71 16.65,-1.86 16.97,-2.01 17.32,-2.06 17.67,-2.10 18.01,-2.03 18.36,-1.96 18.66,-1.78 18.97,-1.60 19.20,-1.34 19.43,-1.07 19.57,-0.75 19.70,-0.42 19.73,-0.07 19.75,0.27 19.66,0.61 19.57,0.95 19.38,1.25 19.19,1.54 18.91,1.76 18.63,1.98 18.30,2.10 17.97,2.21 17.97,2.21 17.97,2.21 15.97,2.63 13.97,3.05 12.56,2.98 11.16,2.91 9.23,2.89 7.31,2.88 5.52,2.76 3.73,2.63 1.70,2.45 -0.32,2.26 -0.59,2.19 -0.85,2.12 -1.09,1.99 -1.34,1.85 -1.54,1.66 -1.74,1.48 -1.89,1.25 -2.05,1.02 -2.14,0.76 -2.23,0.50 -2.26,0.22 -2.29,-0.04 -2.25,-0.32 -2.21,-0.59 -2.10,-0.85 -2.00,-1.10 -1.84,-1.33 -1.68,-1.55 -1.47,-1.73 -1.26,-1.91 -1.01,-2.03 -0.76,-2.15 -0.49,-2.21 -0.22,-2.27 0.04,-2.27 0.32,-2.26 0.32,-2.26 L 0.32,-2.26 Z"></path></g><g transform="translate(976 670.0625) rotate(0 -4 14.5)" stroke="none"><path fill="#000" d="M 2.00,0.33 Q 2.00,0.33 1.33,3.76 0.66,7.20 -0.23,11.27 -1.12,15.34 -1.81,17.95 -2.51,20.55 -3.10,22.80 -3.70,25.04 -5.10,27.42 -6.50,29.80 -6.71,29.96 -6.92,30.12 -7.17,30.20 -7.43,30.28 -7.69,30.28 -7.96,30.28 -8.21,30.19 -8.46,30.10 -8.66,29.94 -8.87,29.78 -9.02,29.56 -9.17,29.34 -9.24,29.08 -9.30,28.82 -9.29,28.56 -9.27,28.30 -9.17,28.05 -9.07,27.81 -8.90,27.60 -8.72,27.40 -8.49,27.27 -8.27,27.14 -8.01,27.08 -7.75,27.03 -7.48,27.06 -7.22,27.09 -6.98,27.20 -6.74,27.32 -6.55,27.50 -6.36,27.69 -6.24,27.92 -6.12,28.16 -6.08,28.42 -6.04,28.68 -6.08,28.94 -6.13,29.20 -6.25,29.43 -6.38,29.67 -6.58,29.85 -6.77,30.03 -7.01,30.14 -7.25,30.24 -7.52,30.27 -7.78,30.30 -8.04,30.24 -8.30,30.18 -8.52,30.04 -8.75,29.90 -8.92,29.70 -9.09,29.49 -9.18,29.25 -9.28,29.00 -9.29,28.73 -9.30,28.47 -9.23,28.22 -9.15,27.96 -9.00,27.74 -8.85,27.53 -8.85,27.53 -8.85,27.53 -7.75,25.91 -6.64,24.30 -6.12,22.05 -5.60,19.79 -5.03,17.23 -4.45,14.67 -3.70,10.63 -2.96,6.59 -2.48,3.13 -2.00,-0.33 -1.93,-0.56 -1.86,-0.80 -1.74,-1.01 -1.61,-1.22 -1.44,-1.40 -1.27,-1.57 -1.07,-1.70 -0.86,-1.83 -0.63,-1.91 -0.39,-1.99 -0.15,-2.01 0.09,-2.02 0.33,-1.98 0.57,-1.94 0.79,-1.85 1.02,-1.75 1.21,-1.60 1.41,-1.45 1.56,-1.26 1.72,-1.07 1.82,-0.85 1.92,-0.63 1.97,-0.39 2.02,-0.15 2.01,0.08 2.00,0.33 2.00,0.33 L 2.00,0.33 Z"></path></g><g transform="translate(979 671.0625) rotate(0 2.5 14.5)" stroke="none"><path fill="#000" d="M 1.24,-2.17 Q 1.24,-2.17 3.18,-0.88 5.12,0.40 6.47,1.60 7.81,2.80 8.71,3.66 9.62,4.52 9.93,5.56 10.24,6.60 9.87,7.66 9.50,8.73 8.56,9.92 7.63,11.12 6.37,12.08 5.12,13.03 5.12,13.11 5.13,13.19 4.92,13.48 4.71,13.76 4.44,13.99 4.17,14.22 3.85,14.38 3.53,14.54 3.18,14.61 2.84,14.69 2.48,14.68 2.13,14.67 1.78,14.58 1.44,14.49 1.13,14.31 0.82,14.14 0.56,13.90 0.30,13.66 0.11,13.36 -0.08,13.06 -0.20,12.73 -0.31,12.39 -0.35,12.04 -0.38,11.69 -0.33,11.34 -0.28,10.99 -0.15,10.66 -0.01,10.33 2.09,9.83 4.20,9.33 5.63,10.60 7.05,11.86 7.64,12.79 8.23,13.73 8.72,15.07 9.21,16.42 9.15,18.34 9.09,20.27 8.66,21.92 8.24,23.57 7.34,25.13 6.44,26.70 5.75,27.64 5.06,28.59 3.53,29.57 1.99,30.54 -0.55,31.15 -3.10,31.76 -3.56,31.75 -4.03,31.75 -4.46,31.59 -4.90,31.44 -5.27,31.16 -5.63,30.87 -5.89,30.49 -6.15,30.10 -6.27,29.65 -6.39,29.21 -6.36,28.74 -6.33,28.28 -6.15,27.85 -5.97,27.42 -5.67,27.07 -5.37,26.72 -4.97,26.49 -4.57,26.25 -4.11,26.16 -3.66,26.06 -3.20,26.12 -2.74,26.17 -2.32,26.37 -1.90,26.57 -1.57,26.89 -1.24,27.21 -1.02,27.63 -0.81,28.04 -0.74,28.50 -0.67,28.95 -0.75,29.41 -0.83,29.87 -1.05,30.27 -1.27,30.68 -1.61,31.00 -1.95,31.31 -2.37,31.50 -2.80,31.69 -3.26,31.74 -3.72,31.78 -4.17,31.68 -4.62,31.57 -5.02,31.33 -5.41,31.09 -5.71,30.73 -6.00,30.38 -6.17,29.94 -6.34,29.51 -6.36,29.05 -6.38,28.59 -6.25,28.14 -6.12,27.69 -5.86,27.31 -5.59,26.93 -5.22,26.66 -4.85,26.38 -4.41,26.24 -3.97,26.09 -3.97,26.09 -3.97,26.09 -1.64,25.58 0.68,25.06 1.71,23.63 2.74,22.19 2.98,20.98 3.23,19.77 3.04,18.15 2.85,16.52 2.13,15.49 1.41,14.45 3.27,13.82 5.13,13.19 4.92,13.48 4.71,13.76 4.44,13.99 4.17,14.22 3.85,14.38 3.53,14.54 3.18,14.61 2.84,14.69 2.48,14.68 2.13,14.67 1.78,14.58 1.44,14.49 1.13,14.31 0.82,14.14 0.56,13.90 0.30,13.66 0.11,13.36 -0.08,13.06 -0.20,12.73 -0.31,12.39 -0.35,12.04 -0.38,11.69 -0.33,11.34 -0.28,10.99 -0.15,10.66 -0.01,10.33 0.52,10.05 1.07,9.77 1.94,9.03 2.80,8.29 3.80,7.16 4.80,6.04 3.86,5.12 2.92,4.19 0.84,3.18 -1.24,2.17 -1.48,1.99 -1.72,1.81 -1.91,1.58 -2.11,1.34 -2.24,1.07 -2.37,0.80 -2.43,0.50 -2.49,0.21 -2.48,-0.08 -2.47,-0.39 -2.39,-0.68 -2.30,-0.97 -2.15,-1.23 -2.00,-1.49 -1.80,-1.71 -1.59,-1.93 -1.33,-2.09 -1.08,-2.25 -0.79,-2.35 -0.51,-2.45 -0.21,-2.47 0.08,-2.50 0.38,-2.45 0.68,-2.40 0.96,-2.29 1.24,-2.17 1.24,-2.17 L 1.24,-2.17 Z"></path></g><g transform="translate(714 763.0625) rotate(0 -11 27)" stroke="none"><path fill="#1864ab" d="M -0.26,1.57 Q -0.26,1.57 -1.99,1.32 -3.72,1.08 -5.88,0.61 -8.04,0.15 -10.14,0.52 -12.24,0.88 -15.66,2.41 -19.08,3.94 -21.62,5.95 -24.16,7.96 -26.92,11.34 -29.68,14.71 -31.68,19.19 -33.67,23.68 -34.51,28.37 -35.36,33.06 -35.15,37.27 -34.95,41.48 -34.34,44.03 -33.72,46.57 -31.60,48.60 -29.47,50.63 -26.74,51.76 -24.00,52.89 -20.16,52.24 -16.33,51.60 -13.29,50.23 -10.26,48.87 -6.13,46.03 -2.00,43.20 1.73,39.72 5.46,36.25 8.16,32.83 10.85,29.40 11.93,26.08 13.01,22.76 13.49,20.49 13.97,18.22 13.60,15.71 13.23,13.20 12.79,10.62 12.35,8.05 12.12,6.04 11.90,4.03 11.29,2.16 10.69,0.28 10.66,0.03 10.64,-0.22 10.70,-0.47 10.76,-0.72 10.89,-0.94 11.03,-1.16 11.23,-1.32 11.43,-1.48 11.67,-1.58 11.91,-1.67 12.17,-1.68 12.42,-1.69 12.67,-1.61 12.92,-1.54 13.13,-1.39 13.34,-1.25 13.49,-1.04 13.64,-0.83 13.72,-0.59 13.80,-0.34 13.79,-0.08 13.79,0.16 13.70,0.41 13.62,0.65 13.46,0.85 13.30,1.05 13.09,1.19 12.87,1.33 12.62,1.40 12.37,1.46 12.12,1.45 11.86,1.43 11.62,1.33 11.38,1.23 11.19,1.06 11.00,0.89 10.87,0.67 10.74,0.45 10.69,0.19 10.64,-0.05 10.67,-0.30 10.70,-0.56 10.81,-0.79 10.92,-1.02 11.10,-1.21 11.28,-1.39 11.51,-1.51 11.74,-1.62 12.00,-1.66 12.25,-1.70 12.50,-1.65 12.76,-1.61 12.98,-1.48 13.21,-1.36 13.38,-1.17 13.56,-0.98 13.66,-0.74 13.76,-0.51 13.76,-0.51 13.76,-0.51 14.21,1.62 14.65,3.77 14.80,5.69 14.94,7.61 15.39,10.23 15.83,12.85 16.19,15.78 16.54,18.72 16.02,21.16 15.50,23.60 14.22,27.29 12.95,30.98 10.10,34.58 7.26,38.18 3.37,41.77 -0.51,45.37 -4.85,48.33 -9.19,51.28 -12.55,52.74 -15.92,54.20 -20.37,54.78 -24.82,55.35 -28.06,53.95 -31.29,52.55 -33.76,49.97 -36.22,47.39 -36.92,44.50 -37.63,41.61 -37.82,37.10 -38.02,32.59 -37.10,27.59 -36.17,22.58 -34.01,17.77 -31.84,12.97 -28.88,9.36 -25.92,5.76 -23.11,3.53 -20.29,1.30 -16.53,-0.38 -12.77,-2.07 -10.15,-2.51 -7.53,-2.94 -5.35,-2.58 -3.17,-2.23 -1.45,-1.90 0.26,-1.57 0.44,-1.51 0.62,-1.46 0.79,-1.36 0.96,-1.26 1.09,-1.13 1.23,-1.00 1.33,-0.83 1.44,-0.67 1.50,-0.49 1.56,-0.31 1.57,-0.12 1.59,0.07 1.55,0.25 1.52,0.44 1.45,0.62 1.37,0.80 1.25,0.95 1.14,1.10 0.99,1.22 0.84,1.34 0.67,1.43 0.49,1.51 0.30,1.54 0.12,1.58 -0.07,1.57 -0.26,1.57 -0.26,1.57 L -0.26,1.57 Z"></path></g><g transform="translate(714 781.0625) rotate(0 -4.5 6.5)" stroke="none"><path fill="#1864ab" d="M -1.21,2.02 Q -1.21,2.02 -2.57,1.15 -3.94,0.28 -4.85,0.87 -5.77,1.46 -6.18,4.29 -6.58,7.13 -6.61,8.27 -6.63,9.41 -6.37,10.48 -6.10,11.56 -5.51,12.54 -4.91,13.52 -4.52,13.08 -4.12,12.63 -3.71,12.60 -3.29,12.56 -2.89,12.66 -2.49,12.76 -2.13,12.98 -1.78,13.20 -1.52,13.52 -1.26,13.84 -1.11,14.23 -0.97,14.62 -0.95,15.04 -0.94,15.45 -1.06,15.85 -1.18,16.25 -1.42,16.58 -1.66,16.92 -2.00,17.17 -2.33,17.41 -2.73,17.54 -3.12,17.66 -3.54,17.65 -3.95,17.64 -4.34,17.50 -4.73,17.36 -5.06,17.10 -5.38,16.84 -5.61,16.50 -5.84,16.15 -5.94,15.75 -6.04,15.34 -6.01,14.93 -5.98,14.52 -5.82,14.13 -5.65,13.75 -5.38,13.44 -5.10,13.13 -4.74,12.92 -4.38,12.72 -3.98,12.64 -3.57,12.56 -3.16,12.61 -2.75,12.66 -2.37,12.85 -2.00,13.03 -1.71,13.32 -1.41,13.61 -1.22,13.98 -1.04,14.35 -0.98,14.76 -0.92,15.17 -1.00,15.58 -1.07,15.99 -1.27,16.35 -1.48,16.72 -1.78,16.99 -2.09,17.27 -2.47,17.44 -2.85,17.61 -2.85,17.61 -2.85,17.61 -5.64,17.31 -8.42,17.02 -9.11,16.08 -9.79,15.14 -10.21,13.77 -10.63,12.41 -10.87,10.77 -11.11,9.13 -10.97,7.93 -10.83,6.73 -10.72,4.41 -10.60,2.09 -9.82,0.08 -9.03,-1.92 -7.26,-3.03 -5.49,-4.14 -3.64,-3.93 -1.80,-3.73 -0.29,-2.87 1.21,-2.02 1.43,-1.84 1.66,-1.67 1.83,-1.44 2.01,-1.22 2.13,-0.96 2.24,-0.70 2.30,-0.42 2.35,-0.15 2.33,0.13 2.32,0.41 2.23,0.68 2.15,0.96 2.00,1.20 1.86,1.44 1.66,1.65 1.46,1.85 1.21,1.99 0.97,2.14 0.70,2.23 0.43,2.31 0.14,2.33 -0.13,2.35 -0.41,2.30 -0.69,2.25 -0.95,2.13 -1.21,2.02 -1.21,2.02 L -1.21,2.02 Z"></path></g><g transform="translate(701 750.0625) rotate(0 -20.5 0)" stroke="none"><path fill="#000" d="M -2.03,0.58 Q -2.03,0.58 -2.51,-1.45 -2.99,-3.49 -3.71,-5.75 -4.44,-8.02 -4.86,-9.64 -5.27,-11.26 -6.16,-12.49 -7.04,-13.72 -7.84,-14.96 -8.64,-16.19 -10.03,-17.66 -11.42,-19.13 -12.66,-19.93 -13.91,-20.73 -15.36,-21.04 -16.82,-21.36 -18.05,-21.47 -19.28,-21.58 -20.41,-21.34 -21.54,-21.11 -23.08,-20.56 -24.63,-20.01 -26.33,-18.81 -28.03,-17.61 -29.31,-16.06 -30.58,-14.52 -32.31,-11.86 -34.05,-9.21 -35.35,-6.43 -36.65,-3.64 -37.49,-0.80 -38.32,2.03 -38.68,4.34 -39.05,6.65 -39.11,8.21 -39.18,9.78 -39.00,11.74 -38.81,13.69 -38.16,15.26 -37.51,16.83 -36.67,18.34 -35.82,19.84 -34.87,21.11 -33.91,22.38 -33.79,22.65 -33.67,22.91 -33.64,23.20 -33.61,23.49 -33.67,23.77 -33.74,24.06 -33.89,24.31 -34.04,24.55 -34.26,24.74 -34.49,24.93 -34.76,25.03 -35.03,25.14 -35.32,25.16 -35.61,25.17 -35.89,25.09 -36.17,25.01 -36.41,24.85 -36.65,24.68 -36.82,24.45 -37.00,24.22 -37.09,23.94 -37.18,23.67 -37.18,23.38 -37.18,23.09 -37.08,22.81 -36.99,22.53 -36.81,22.30 -36.63,22.07 -36.39,21.91 -36.15,21.75 -35.87,21.67 -35.59,21.60 -35.30,21.61 -35.01,21.63 -34.74,21.74 -34.47,21.85 -34.25,22.04 -34.03,22.23 -33.88,22.48 -33.73,22.73 -33.67,23.01 -33.61,23.30 -33.64,23.58 -33.68,23.87 -33.80,24.14 -33.92,24.40 -34.12,24.61 -34.32,24.82 -34.58,24.95 -34.84,25.09 -35.13,25.14 -35.41,25.18 -35.70,25.13 -35.99,25.08 -36.24,24.95 -36.50,24.81 -36.70,24.60 -36.90,24.39 -36.90,24.39 -36.90,24.39 -37.80,22.88 -38.71,21.38 -39.58,19.67 -40.46,17.95 -41.14,15.99 -41.83,14.04 -42.10,11.76 -42.36,9.49 -42.12,7.86 -41.88,6.23 -41.53,3.72 -41.17,1.22 -40.31,-1.84 -39.46,-4.91 -38.13,-7.93 -36.81,-10.94 -35.07,-13.81 -33.33,-16.67 -31.84,-18.65 -30.35,-20.62 -28.26,-22.28 -26.17,-23.95 -24.19,-24.73 -22.22,-25.51 -20.49,-25.71 -18.76,-25.90 -17.32,-25.66 -15.89,-25.42 -13.77,-24.91 -11.65,-24.41 -9.89,-23.28 -8.12,-22.15 -7.26,-21.11 -6.40,-20.07 -5.82,-19.13 -5.23,-18.19 -4.60,-16.98 -3.96,-15.77 -2.82,-13.96 -1.69,-12.15 -1.41,-10.67 -1.13,-9.19 -0.22,-6.87 0.69,-4.55 1.36,-2.56 2.03,-0.58 2.07,-0.32 2.11,-0.07 2.08,0.17 2.06,0.43 1.98,0.67 1.90,0.91 1.76,1.12 1.63,1.34 1.44,1.51 1.26,1.69 1.04,1.81 0.82,1.94 0.57,2.01 0.33,2.08 0.07,2.09 -0.17,2.10 -0.42,2.05 -0.67,2.00 -0.90,1.89 -1.13,1.78 -1.33,1.61 -1.52,1.45 -1.68,1.25 -1.83,1.04 -1.93,0.81 -2.03,0.58 -2.03,0.58 L -2.03,0.58 Z"></path></g><g transform="translate(652 771.0625) rotate(0 8.5 6)" stroke="none"><path fill="#000" d="M 2.20,-0.94 Q 2.20,-0.94 2.93,1.12 3.67,3.19 4.26,5.31 4.85,7.44 5.22,8.62 5.59,9.81 6.40,10.76 7.21,11.71 8.02,9.95 8.82,8.19 9.69,6.69 10.57,5.19 11.23,3.56 11.89,1.94 12.46,0.52 13.03,-0.88 14.08,-2.69 15.12,-4.49 15.44,-4.71 15.76,-4.92 16.13,-5.02 16.50,-5.13 16.88,-5.10 17.27,-5.08 17.62,-4.94 17.98,-4.80 18.27,-4.55 18.57,-4.30 18.76,-3.97 18.96,-3.64 19.04,-3.26 19.12,-2.89 19.08,-2.51 19.04,-2.12 18.88,-1.78 18.71,-1.43 18.45,-1.15 18.18,-0.87 17.84,-0.69 17.50,-0.51 17.12,-0.45 16.74,-0.39 16.37,-0.45 15.99,-0.52 15.65,-0.70 15.31,-0.88 15.05,-1.16 14.78,-1.44 14.62,-1.79 14.46,-2.14 14.42,-2.52 14.38,-2.90 14.46,-3.28 14.55,-3.65 14.75,-3.98 14.95,-4.31 15.24,-4.56 15.53,-4.80 15.89,-4.94 16.25,-5.09 16.63,-5.11 17.01,-5.13 17.38,-5.02 17.75,-4.92 18.07,-4.70 18.39,-4.48 18.62,-4.18 18.85,-3.87 18.97,-3.51 19.10,-3.14 19.09,-2.76 19.09,-2.37 18.97,-2.01 18.85,-1.65 18.61,-1.34 18.38,-1.04 18.38,-1.04 18.38,-1.04 17.84,-0.08 17.31,0.87 16.76,2.16 16.21,3.45 15.59,5.47 14.98,7.49 14.19,9.16 13.41,10.84 12.75,11.94 12.10,13.04 10.92,14.48 9.74,15.93 7.97,16.40 6.21,16.87 4.91,16.07 3.61,15.28 3.02,14.08 2.44,12.89 2.01,11.85 1.58,10.81 1.40,9.72 1.21,8.62 0.49,6.74 -0.22,4.85 -1.21,2.90 -2.20,0.94 -2.28,0.66 -2.36,0.39 -2.38,0.10 -2.39,-0.18 -2.33,-0.47 -2.27,-0.75 -2.15,-1.01 -2.03,-1.27 -1.84,-1.50 -1.66,-1.72 -1.43,-1.90 -1.20,-2.07 -0.93,-2.19 -0.67,-2.30 -0.38,-2.35 -0.10,-2.39 0.18,-2.37 0.47,-2.35 0.75,-2.26 1.02,-2.17 1.27,-2.01 1.51,-1.86 1.71,-1.65 1.91,-1.44 2.06,-1.19 2.20,-0.94 2.20,-0.94 L 2.20,-0.94 Z"></path></g><g transform="translate(678 699.0625) rotate(0 -14.5 8.5)" stroke="none"><path fill="#000" d="M 1.18,1.57 Q 1.18,1.57 0.06,2.47 -1.05,3.37 -2.62,4.98 -4.19,6.58 -5.74,8.66 -7.30,10.74 -9.57,12.65 -11.85,14.56 -14.07,15.68 -16.28,16.80 -17.82,17.38 -19.37,17.96 -21.59,18.14 -23.81,18.33 -25.32,18.49 -26.83,18.65 -27.41,18.49 -27.98,18.33 -28.21,18.31 -28.45,18.30 -28.67,18.22 -28.90,18.15 -29.10,18.03 -29.30,17.91 -29.47,17.74 -29.64,17.57 -29.76,17.37 -29.88,17.17 -29.95,16.94 -30.02,16.71 -30.03,16.48 -30.04,16.24 -30.00,16.01 -29.96,15.78 -29.86,15.56 -29.76,15.35 -29.61,15.16 -29.47,14.98 -29.28,14.83 -29.09,14.69 -28.88,14.59 -28.66,14.49 -28.43,14.45 -28.20,14.41 -27.62,13.49 -27.04,12.57 -25.59,11.77 -24.13,10.96 -22.27,11.20 -20.41,11.44 -19.14,11.53 -17.87,11.61 -16.03,12.01 -14.18,12.40 -12.41,12.58 -10.64,12.77 -8.73,12.88 -6.81,12.99 -4.98,13.41 -3.14,13.82 -2.84,13.96 -2.54,14.10 -2.30,14.33 -2.06,14.56 -1.91,14.85 -1.75,15.15 -1.70,15.48 -1.65,15.80 -1.70,16.13 -1.76,16.46 -1.91,16.75 -2.07,17.04 -2.31,17.27 -2.55,17.50 -2.85,17.64 -3.16,17.78 -3.49,17.81 -3.82,17.85 -4.14,17.77 -4.46,17.70 -4.75,17.53 -5.03,17.36 -5.25,17.10 -5.46,16.85 -5.58,16.54 -5.70,16.23 -5.72,15.90 -5.74,15.57 -5.65,15.25 -5.56,14.93 -5.37,14.66 -5.18,14.38 -4.92,14.18 -4.65,13.98 -4.34,13.88 -4.02,13.77 -3.69,13.77 -3.36,13.77 -3.04,13.88 -2.73,13.99 -2.47,14.19 -2.20,14.39 -2.02,14.67 -1.83,14.94 -1.74,15.26 -1.66,15.58 -1.68,15.91 -1.70,16.25 -1.82,16.55 -1.94,16.86 -2.16,17.11 -2.37,17.37 -2.66,17.54 -2.94,17.71 -3.27,17.78 -3.59,17.85 -3.92,17.81 -4.25,17.77 -4.25,17.77 -4.25,17.77 -5.61,17.29 -6.96,16.81 -8.96,16.80 -10.96,16.78 -12.98,16.67 -15.00,16.55 -16.66,16.25 -18.32,15.94 -19.90,15.73 -21.48,15.52 -22.95,15.33 -24.42,15.13 -26.20,16.73 -27.98,18.33 -28.21,18.31 -28.45,18.30 -28.67,18.22 -28.90,18.15 -29.10,18.03 -29.30,17.91 -29.47,17.74 -29.64,17.57 -29.76,17.37 -29.88,17.17 -29.95,16.94 -30.02,16.71 -30.03,16.48 -30.04,16.24 -30.00,16.01 -29.96,15.78 -29.86,15.56 -29.76,15.35 -29.61,15.16 -29.47,14.98 -29.28,14.83 -29.09,14.69 -28.88,14.59 -28.66,14.49 -28.43,14.45 -28.20,14.41 -27.54,14.76 -26.88,15.10 -25.50,15.10 -24.11,15.09 -22.23,14.90 -20.36,14.71 -19.01,14.40 -17.67,14.08 -15.80,13.09 -13.93,12.11 -12.01,10.42 -10.08,8.73 -8.52,6.40 -6.96,4.07 -5.25,2.07 -3.54,0.07 -2.36,-0.75 -1.18,-1.57 -0.97,-1.69 -0.77,-1.81 -0.54,-1.88 -0.31,-1.94 -0.07,-1.95 0.16,-1.96 0.39,-1.92 0.62,-1.87 0.84,-1.76 1.05,-1.66 1.24,-1.51 1.42,-1.36 1.56,-1.17 1.71,-0.98 1.80,-0.76 1.89,-0.54 1.93,-0.31 1.97,-0.07 1.95,0.15 1.93,0.39 1.85,0.62 1.78,0.84 1.65,1.04 1.52,1.25 1.35,1.41 1.18,1.57 1.18,1.57 L 1.18,1.57 Z"></path></g><g transform="translate(748 774.0625) rotate(0 45 -12.5)" stroke="none"><path fill="#000" d="M -1.50,-0.64 Q -1.50,-0.64 -0.60,-2.64 0.30,-4.63 0.91,-5.91 1.52,-7.19 3.12,-8.72 4.71,-10.25 7.21,-11.74 9.71,-13.24 12.48,-14.70 15.25,-16.16 18.21,-17.37 21.17,-18.57 23.60,-19.37 26.03,-20.17 29.38,-21.08 32.73,-21.99 37.05,-22.95 41.37,-23.91 45.82,-24.61 50.27,-25.30 53.33,-25.60 56.40,-25.89 60.02,-26.02 63.65,-26.14 67.31,-25.61 70.96,-25.08 74.58,-23.97 78.19,-22.86 80.94,-21.50 83.68,-20.13 85.19,-19.33 86.69,-18.53 87.81,-17.54 88.93,-16.55 89.76,-15.53 90.59,-14.50 90.56,-11.01 90.54,-7.53 90.25,-7.35 89.95,-7.17 89.62,-7.10 89.29,-7.02 88.95,-7.06 88.60,-7.10 88.29,-7.24 87.98,-7.38 87.73,-7.61 87.48,-7.85 87.32,-8.15 87.16,-8.45 87.10,-8.79 87.04,-9.13 87.10,-9.47 87.15,-9.81 87.31,-10.11 87.47,-10.41 87.72,-10.65 87.97,-10.89 88.28,-11.03 88.59,-11.18 88.93,-11.21 89.27,-11.25 89.60,-11.18 89.94,-11.11 90.23,-10.93 90.53,-10.76 90.75,-10.50 90.97,-10.24 91.10,-9.92 91.23,-9.60 91.25,-9.26 91.27,-8.92 91.18,-8.59 91.09,-8.26 90.90,-7.97 90.71,-7.69 90.43,-7.48 90.16,-7.27 89.84,-7.16 89.51,-7.05 89.17,-7.05 88.83,-7.05 88.50,-7.16 88.18,-7.26 87.90,-7.47 87.63,-7.68 87.44,-7.96 87.24,-8.24 87.15,-8.57 87.06,-8.90 87.07,-9.24 87.09,-9.58 87.22,-9.90 87.34,-10.22 87.56,-10.48 87.78,-10.75 87.78,-10.75 87.78,-10.75 87.72,-11.00 87.66,-11.26 87.05,-12.73 86.44,-14.20 85.78,-15.09 85.12,-15.97 83.81,-16.87 82.49,-17.77 79.95,-19.05 77.41,-20.33 73.99,-21.39 70.57,-22.45 67.16,-22.96 63.74,-23.47 60.20,-23.35 56.66,-23.22 53.67,-22.92 50.69,-22.63 46.33,-21.93 41.97,-21.23 37.72,-20.27 33.47,-19.30 30.21,-18.38 26.94,-17.46 24.62,-16.67 22.30,-15.87 19.50,-14.67 16.71,-13.48 14.05,-11.99 11.39,-10.51 9.22,-9.13 7.05,-7.75 5.79,-6.59 4.53,-5.42 3.84,-4.41 3.14,-3.41 2.32,-1.38 1.50,0.64 1.40,0.81 1.30,0.98 1.17,1.12 1.03,1.27 0.86,1.37 0.69,1.48 0.51,1.54 0.32,1.60 0.12,1.62 -0.06,1.63 -0.26,1.60 -0.45,1.57 -0.64,1.49 -0.82,1.41 -0.97,1.29 -1.13,1.17 -1.26,1.02 -1.38,0.87 -1.47,0.69 -1.55,0.51 -1.59,0.32 -1.63,0.12 -1.62,-0.06 -1.61,-0.26 -1.56,-0.45 -1.50,-0.64 -1.50,-0.64 L -1.50,-0.64 Z"></path></g><g transform="translate(868 765.0625) rotate(0 -1 29)" stroke="none"><path fill="#1864ab" d="M 0,1.71 Q 0,1.71 -2.01,1.68 -4.02,1.66 -5.91,1.92 -7.80,2.17 -9.43,2.60 -11.07,3.04 -12.23,3.53 -13.39,4.03 -14.53,5.16 -15.66,6.30 -17.34,8.70 -19.03,11.11 -20.90,14.95 -22.78,18.80 -24.46,23.01 -26.13,27.22 -27.14,30.14 -28.15,33.07 -28.56,35.64 -28.97,38.22 -28.87,40.37 -28.78,42.51 -27.92,44.72 -27.07,46.93 -25.91,48.35 -24.75,49.76 -22.90,51.20 -21.06,52.63 -18.58,54.10 -16.11,55.58 -13.48,56.15 -10.86,56.73 -8.09,56.70 -5.32,56.68 -3.31,56.40 -1.30,56.11 1.73,54.88 4.77,53.65 7.71,51.47 10.65,49.28 13.02,46.68 15.38,44.08 16.98,42.10 18.57,40.13 20.39,37.59 22.20,35.04 23.52,32.58 24.83,30.12 25.67,28.22 26.51,26.33 26.74,25.02 26.96,23.71 26.09,21.75 25.22,19.80 24.41,18.07 23.60,16.35 22.91,14.70 22.22,13.06 21.62,11.50 21.01,9.94 19.74,8.38 18.47,6.83 17.02,5.91 15.56,4.98 13.74,4.23 11.91,3.47 11.54,3.34 11.16,3.21 10.85,2.96 10.54,2.72 10.32,2.39 10.10,2.06 10.00,1.67 9.90,1.29 9.92,0.89 9.95,0.50 10.10,0.13 10.25,-0.23 10.51,-0.52 10.77,-0.82 11.12,-1.02 11.46,-1.22 11.85,-1.30 12.24,-1.39 12.63,-1.34 13.03,-1.29 13.38,-1.12 13.74,-0.95 14.03,-0.67 14.31,-0.39 14.49,-0.04 14.67,0.30 14.73,0.69 14.79,1.09 14.72,1.48 14.65,1.87 14.46,2.22 14.27,2.57 13.98,2.83 13.69,3.10 13.33,3.27 12.97,3.43 12.57,3.47 12.18,3.50 11.79,3.41 11.40,3.32 11.07,3.11 10.73,2.91 10.47,2.60 10.22,2.29 10.08,1.92 9.94,1.55 9.92,1.16 9.90,0.76 10.01,0.38 10.13,0.00 10.35,-0.32 10.58,-0.64 10.90,-0.88 11.22,-1.12 11.60,-1.24 11.97,-1.36 12.37,-1.36 12.77,-1.35 12.77,-1.35 12.77,-1.35 15.27,-0.30 17.77,0.74 19.82,2.39 21.88,4.04 22.74,5.20 23.59,6.36 24.12,7.49 24.64,8.61 25.16,10.13 25.68,11.65 26.28,13.20 26.89,14.75 27.76,16.48 28.63,18.21 29.28,19.86 29.93,21.50 29.94,22.96 29.95,24.42 29.43,25.91 28.92,27.39 28.04,29.38 27.15,31.36 25.75,33.96 24.35,36.57 22.49,39.18 20.62,41.79 18.98,43.82 17.33,45.86 14.78,48.63 12.23,51.41 9.00,53.76 5.77,56.11 2.43,57.42 -0.91,58.74 -3.11,59.05 -5.31,59.35 -8.38,59.35 -11.45,59.35 -14.45,58.64 -17.45,57.93 -20.10,56.36 -22.75,54.80 -24.84,53.15 -26.93,51.49 -28.27,49.71 -29.61,47.92 -30.57,45.30 -31.53,42.68 -31.65,40.24 -31.76,37.79 -31.33,34.97 -30.90,32.15 -29.91,29.14 -28.93,26.13 -27.27,21.79 -25.61,17.45 -23.70,13.34 -21.78,9.24 -19.96,6.48 -18.14,3.71 -16.44,2.15 -14.74,0.60 -13.30,0.17 -11.85,-0.25 -10.06,-0.63 -8.26,-1.02 -6.14,-1.34 -4.02,-1.66 -2.01,-1.68 0,-1.71 0.20,-1.69 0.41,-1.66 0.60,-1.59 0.79,-1.51 0.96,-1.40 1.13,-1.28 1.27,-1.12 1.41,-0.97 1.50,-0.79 1.60,-0.60 1.65,-0.40 1.70,-0.20 1.70,0.00 1.70,0.20 1.65,0.40 1.60,0.60 1.50,0.79 1.41,0.97 1.27,1.12 1.13,1.28 0.96,1.40 0.79,1.51 0.60,1.59 0.41,1.66 0.20,1.69 -0.00,1.71 -0.00,1.71 L 0,1.71 Z"></path></g><g transform="translate(851 787.0625) rotate(0 6 -0.5)" stroke="none"><path fill="#1864ab" d="M -0.51,-2.57 Q -0.51,-2.57 0.92,-2.84 2.36,-3.11 3.54,-3.24 4.71,-3.37 5.76,-3.03 6.82,-2.69 9.26,-2.83 11.69,-2.96 12.16,-2.88 12.64,-2.80 13.06,-2.57 13.48,-2.35 13.81,-2.00 14.14,-1.65 14.34,-1.22 14.54,-0.78 14.59,-0.30 14.64,0.16 14.53,0.63 14.43,1.10 14.18,1.51 13.93,1.92 13.57,2.23 13.20,2.54 12.76,2.71 12.31,2.89 11.83,2.91 11.35,2.94 10.89,2.81 10.43,2.68 10.03,2.41 9.64,2.14 9.35,1.76 9.06,1.37 8.91,0.92 8.76,0.46 8.76,-0.00 8.76,-0.48 8.91,-0.94 9.07,-1.39 9.36,-1.77 9.65,-2.15 10.05,-2.42 10.45,-2.69 10.91,-2.81 11.37,-2.94 11.85,-2.91 12.33,-2.89 12.77,-2.71 13.22,-2.53 13.58,-2.22 13.94,-1.91 14.19,-1.50 14.44,-1.08 14.54,-0.62 14.64,-0.15 14.59,0.32 14.53,0.80 14.33,1.23 14.13,1.66 13.80,2.01 13.47,2.36 13.04,2.58 12.62,2.80 12.15,2.88 11.67,2.96 11.67,2.96 11.67,2.96 9.92,2.93 8.16,2.89 6.94,2.74 5.72,2.59 4.55,2.27 3.38,1.96 1.94,2.26 0.51,2.57 0.19,2.59 -0.11,2.62 -0.42,2.57 -0.74,2.51 -1.03,2.39 -1.32,2.26 -1.57,2.07 -1.82,1.88 -2.02,1.64 -2.22,1.39 -2.35,1.10 -2.49,0.82 -2.55,0.51 -2.61,0.20 -2.60,-0.11 -2.59,-0.43 -2.50,-0.73 -2.41,-1.03 -2.25,-1.31 -2.09,-1.58 -1.87,-1.81 -1.65,-2.04 -1.38,-2.20 -1.11,-2.37 -0.81,-2.47 -0.51,-2.57 -0.51,-2.57 L -0.51,-2.57 Z"></path></g><g transform="translate(878 783.0625) rotate(0 -2.5 6.5)" stroke="none"><path fill="#1864ab" d="M 1.53,2.04 Q 1.53,2.04 0.38,2.89 -0.76,3.74 -1.38,5.07 -2.00,6.39 -1.85,7.72 -1.70,9.04 -0.92,9.66 -0.15,10.29 0.20,10.56 0.56,10.84 0.81,11.21 1.07,11.58 1.19,12.02 1.30,12.45 1.28,12.90 1.25,13.36 1.08,13.77 0.92,14.19 0.62,14.54 0.33,14.88 -0.05,15.11 -0.43,15.34 -0.88,15.44 -1.32,15.53 -1.77,15.48 -2.21,15.43 -2.62,15.24 -3.03,15.05 -3.36,14.74 -3.68,14.43 -3.89,14.03 -4.10,13.63 -4.18,13.18 -4.25,12.74 -4.17,12.29 -4.10,11.85 -3.89,11.45 -3.67,11.05 -3.35,10.74 -3.02,10.43 -2.61,10.25 -2.20,10.06 -1.75,10.01 -1.30,9.96 -0.86,10.06 -0.42,10.16 -0.03,10.39 0.34,10.63 0.63,10.97 0.93,11.32 1.09,11.74 1.26,12.16 1.28,12.61 1.30,13.06 1.18,13.49 1.06,13.93 0.80,14.30 0.55,14.67 0.19,14.94 -0.16,15.22 -0.59,15.36 -1.02,15.50 -1.47,15.50 -1.92,15.50 -2.35,15.35 -2.77,15.21 -2.77,15.21 -2.77,15.21 -4.87,12.85 -6.96,10.49 -7.19,9.19 -7.42,7.89 -7.22,6.30 -7.02,4.72 -6.44,3.37 -5.87,2.01 -4.85,0.86 -3.83,-0.29 -2.68,-1.17 -1.53,-2.04 -1.26,-2.20 -1.00,-2.35 -0.70,-2.44 -0.40,-2.52 -0.09,-2.53 0.20,-2.55 0.51,-2.48 0.81,-2.42 1.09,-2.29 1.37,-2.16 1.60,-1.96 1.84,-1.77 2.03,-1.52 2.21,-1.27 2.33,-0.99 2.46,-0.70 2.50,-0.40 2.55,-0.10 2.53,0.20 2.50,0.51 2.41,0.80 2.31,1.09 2.14,1.36 1.98,1.62 1.75,1.83 1.53,2.04 1.53,2.04 L 1.53,2.04 Z"></path></g><g transform="translate(839 752.0625) rotate(0 0.00004999999998744897 0.00005000000000165983)" stroke="none"><path fill="#000" d="M 1.57,-1.57 Q 1.57,-1.57 1.77,-1.27 1.98,-0.98 2.09,-0.64 2.20,-0.29 2.19,0.05 2.18,0.41 2.05,0.75 1.93,1.09 1.70,1.37 1.48,1.65 1.18,1.84 0.87,2.04 0.52,2.12 0.18,2.21 -0.17,2.18 -0.53,2.15 -0.86,2.01 -1.19,1.87 -1.46,1.63 -1.73,1.39 -1.90,1.07 -2.08,0.76 -2.15,0.41 -2.21,0.05 -2.17,-0.29 -2.12,-0.65 -1.96,-0.97 -1.80,-1.29 -1.54,-1.54 -1.29,-1.80 -0.97,-1.96 -0.65,-2.12 -0.29,-2.17 0.06,-2.21 0.41,-2.15 0.76,-2.08 1.07,-1.90 1.39,-1.73 1.63,-1.46 1.87,-1.19 2.01,-0.86 2.15,-0.53 2.18,-0.17 2.21,0.18 2.12,0.52 2.03,0.87 1.84,1.18 1.65,1.48 1.37,1.70 1.09,1.93 0.75,2.05 0.41,2.18 0.05,2.19 -0.30,2.20 -0.64,2.09 -0.98,1.98 -1.27,1.77 -1.57,1.56 -1.57,1.57 -1.57,1.57 -1.73,1.35 -1.90,1.14 -2.01,0.90 -2.12,0.66 -2.16,0.39 -2.21,0.13 -2.20,-0.13 -2.18,-0.40 -2.10,-0.65 -2.02,-0.91 -1.88,-1.14 -1.74,-1.36 -1.55,-1.55 -1.36,-1.74 -1.14,-1.88 -0.91,-2.02 -0.65,-2.10 -0.40,-2.18 -0.13,-2.20 0.13,-2.21 0.39,-2.16 0.66,-2.12 0.90,-2.01 1.14,-1.90 1.35,-1.73 1.57,-1.57 1.57,-1.57 L 1.57,-1.57 Z"></path></g><g transform="translate(841 741.0625) rotate(0 -5.5 16.5)" stroke="none"><path fill="#000" d="M 1.58,-1.31 Q 1.58,-1.31 2.94,0.47 4.31,2.27 5.10,3.75 5.88,5.23 6.47,7.05 7.05,8.88 7.58,10.46 8.12,12.04 8.36,14.05 8.60,16.06 8.72,17.77 8.84,19.48 8.62,21.03 8.41,22.59 7.27,24.36 6.13,26.14 4.30,27.49 2.48,28.85 0.45,29.71 -1.57,30.56 -3.05,31.00 -4.52,31.45 -6.25,31.87 -7.97,32.29 -9.86,32.71 -11.75,33.14 -14.37,33.98 -16.98,34.83 -17.31,34.85 -17.63,34.87 -17.95,34.79 -18.26,34.71 -18.54,34.53 -18.81,34.35 -19.01,34.09 -19.21,33.84 -19.32,33.53 -19.43,33.22 -19.44,32.90 -19.44,32.57 -19.34,32.26 -19.24,31.95 -19.05,31.69 -18.86,31.42 -18.59,31.24 -18.32,31.05 -18.01,30.96 -17.70,30.86 -17.37,30.88 -17.05,30.89 -16.74,31.01 -16.44,31.12 -16.18,31.33 -15.93,31.53 -15.76,31.81 -15.59,32.09 -15.51,32.41 -15.44,32.72 -15.47,33.05 -15.50,33.37 -15.63,33.67 -15.76,33.97 -15.98,34.21 -16.20,34.45 -16.49,34.61 -16.77,34.76 -17.09,34.82 -17.41,34.88 -17.74,34.83 -18.06,34.79 -18.35,34.64 -18.64,34.49 -18.87,34.26 -19.10,34.02 -19.24,33.73 -19.38,33.44 -19.42,33.11 -19.46,32.79 -19.40,32.47 -19.33,32.15 -19.17,31.87 -19.00,31.59 -18.76,31.37 -18.51,31.15 -18.21,31.03 -17.91,30.90 -17.91,30.90 -17.91,30.90 -15.29,30.18 -12.67,29.46 -10.80,28.95 -8.93,28.43 -7.21,28.00 -5.49,27.56 -4.27,27.33 -3.06,27.11 -1.46,26.39 0.13,25.67 1.43,24.69 2.72,23.71 3.80,21.69 4.87,19.67 4.80,18.10 4.73,16.53 4.53,14.90 4.34,13.26 3.83,11.67 3.32,10.07 2.81,8.48 2.30,6.90 1.87,5.76 1.43,4.62 -0.07,2.97 -1.58,1.31 -1.71,1.11 -1.85,0.90 -1.93,0.66 -2.01,0.43 -2.03,0.18 -2.06,-0.06 -2.02,-0.30 -1.98,-0.55 -1.89,-0.78 -1.79,-1.01 -1.64,-1.21 -1.50,-1.41 -1.31,-1.57 -1.11,-1.73 -0.89,-1.84 -0.67,-1.94 -0.42,-2.00 -0.18,-2.05 0.06,-2.04 0.31,-2.03 0.54,-1.97 0.78,-1.90 1.00,-1.78 1.22,-1.66 1.40,-1.49 1.58,-1.31 1.58,-1.31 L 1.58,-1.31 Z"></path></g><g transform="translate(763 725.0625) rotate(0 7 -2.5)" stroke="none"><path fill="#000" d="M -1.48,-1.67 Q -1.48,-1.67 1.18,-3.88 3.85,-6.08 5.94,-7.62 8.03,-9.15 9.77,-9.73 11.52,-10.32 13.20,-9.43 14.88,-8.53 15.03,-6.84 15.19,-5.15 14.84,-3.22 14.49,-1.29 14.35,1.60 14.22,4.50 14.14,4.85 14.06,5.20 13.88,5.50 13.70,5.80 13.43,6.03 13.16,6.26 12.83,6.39 12.50,6.52 12.14,6.54 11.79,6.56 11.45,6.46 11.11,6.37 10.81,6.17 10.52,5.97 10.31,5.69 10.09,5.40 9.98,5.07 9.87,4.73 9.87,4.38 9.87,4.02 9.98,3.69 10.10,3.35 10.31,3.07 10.53,2.79 10.82,2.59 11.11,2.39 11.45,2.30 11.80,2.20 12.15,2.22 12.50,2.24 12.83,2.38 13.16,2.51 13.43,2.74 13.70,2.97 13.88,3.27 14.07,3.57 14.14,3.92 14.22,4.27 14.18,4.62 14.14,4.97 13.99,5.29 13.84,5.61 13.60,5.87 13.35,6.13 13.04,6.29 12.72,6.46 12.38,6.51 12.03,6.57 11.68,6.51 11.33,6.46 11.01,6.29 10.70,6.12 10.46,5.87 10.21,5.61 10.07,5.29 9.92,4.96 9.88,4.61 9.84,4.26 9.84,4.26 9.84,4.26 10.12,1.14 10.39,-1.98 11.35,-4.28 12.31,-6.57 11.24,-6.41 10.16,-6.25 8.33,-4.68 6.49,-3.11 3.99,-0.71 1.48,1.67 1.26,1.82 1.04,1.97 0.79,2.07 0.53,2.16 0.27,2.20 0.00,2.23 -0.26,2.20 -0.53,2.17 -0.78,2.07 -1.03,1.98 -1.25,1.82 -1.47,1.67 -1.65,1.47 -1.83,1.27 -1.96,1.03 -2.08,0.79 -2.15,0.53 -2.21,0.27 -2.21,0.00 -2.21,-0.26 -2.15,-0.52 -2.09,-0.78 -1.96,-1.02 -1.84,-1.26 -1.66,-1.46 -1.48,-1.67 -1.48,-1.67 L -1.48,-1.67 Z"></path></g><g transform="translate(786 724.0625) rotate(0 7.5 0.5)" stroke="none"><path fill="#000" d="M 0.39,-2.36 Q 0.39,-2.36 2.11,-2.02 3.82,-1.69 6.28,-1.57 8.73,-1.44 9.96,-1.45 11.19,-1.46 12.76,-1.50 14.32,-1.53 14.72,-1.46 15.13,-1.39 15.49,-1.19 15.85,-1.00 16.13,-0.70 16.40,-0.40 16.57,-0.03 16.74,0.33 16.78,0.74 16.82,1.15 16.73,1.55 16.64,1.94 16.43,2.29 16.21,2.64 15.90,2.90 15.58,3.17 15.20,3.31 14.82,3.46 14.41,3.48 14.01,3.50 13.61,3.39 13.22,3.27 12.88,3.04 12.55,2.81 12.30,2.48 12.06,2.15 11.93,1.77 11.80,1.38 11.81,0.97 11.81,0.56 11.94,0.17 12.08,-0.20 12.33,-0.53 12.58,-0.85 12.92,-1.08 13.26,-1.30 13.65,-1.41 14.05,-1.52 14.46,-1.49 14.87,-1.46 15.24,-1.31 15.62,-1.16 15.93,-0.89 16.24,-0.62 16.45,-0.27 16.66,0.07 16.74,0.47 16.83,0.87 16.78,1.28 16.73,1.69 16.55,2.06 16.38,2.43 16.10,2.72 15.81,3.01 15.45,3.20 15.09,3.39 14.68,3.45 14.28,3.52 14.28,3.52 14.28,3.52 12.69,3.46 11.11,3.40 9.84,3.34 8.58,3.29 6.89,3.25 5.20,3.21 4.13,3.02 3.07,2.84 1.33,2.60 -0.39,2.36 -0.67,2.28 -0.94,2.19 -1.19,2.05 -1.44,1.90 -1.65,1.70 -1.86,1.50 -2.01,1.26 -2.16,1.01 -2.25,0.74 -2.34,0.46 -2.36,0.18 -2.39,-0.10 -2.34,-0.39 -2.29,-0.67 -2.18,-0.94 -2.06,-1.20 -1.89,-1.43 -1.71,-1.66 -1.49,-1.84 -1.27,-2.02 -1.01,-2.15 -0.74,-2.27 -0.46,-2.33 -0.18,-2.38 0.10,-2.37 0.39,-2.36 0.39,-2.36 L 0.39,-2.36 Z"></path></g><g transform="translate(819 715.0625) rotate(0 2.5 7.5)" stroke="none"><path fill="#000" d="M 2.14,-1.07 Q 2.14,-1.07 2.94,0.80 3.74,2.67 3.62,4.80 3.50,6.93 3.11,8.38 2.73,9.84 1.51,11.55 0.30,13.26 -0.87,14.35 -2.04,15.45 -3.36,16.07 -4.68,16.69 -6.05,16.93 -7.42,17.18 -7.69,17.02 -7.96,16.87 -8.27,16.88 -8.58,16.89 -8.89,16.83 -9.19,16.77 -9.47,16.63 -9.75,16.50 -9.99,16.30 -10.23,16.10 -10.42,15.85 -10.61,15.60 -10.73,15.32 -10.85,15.03 -10.90,14.72 -10.95,14.41 -10.92,14.10 -10.89,13.79 -10.79,13.50 -10.69,13.20 -10.53,12.94 -10.36,12.68 -10.13,12.46 -9.91,12.25 -9.64,12.10 -9.37,11.94 -9.07,11.85 -8.77,11.77 -7.57,9.81 -6.37,7.86 -4.95,7.15 -3.52,6.45 -1.92,6.74 -0.32,7.03 1.37,8.24 3.07,9.45 4.61,10.15 6.15,10.84 9.43,11.15 12.72,11.47 13.08,11.57 13.45,11.68 13.76,11.90 14.07,12.12 14.30,12.42 14.53,12.73 14.64,13.09 14.76,13.45 14.75,13.84 14.75,14.22 14.62,14.58 14.49,14.93 14.26,15.23 14.02,15.53 13.71,15.74 13.39,15.95 13.02,16.05 12.65,16.15 12.27,16.12 11.89,16.09 11.54,15.95 11.19,15.80 10.90,15.55 10.61,15.30 10.42,14.97 10.23,14.64 10.15,14.27 10.08,13.90 10.12,13.52 10.17,13.14 10.34,12.80 10.50,12.45 10.77,12.18 11.03,11.91 11.37,11.73 11.71,11.56 12.09,11.50 12.46,11.45 12.84,11.52 13.21,11.58 13.55,11.77 13.88,11.95 14.14,12.23 14.40,12.51 14.55,12.86 14.71,13.21 14.74,13.58 14.78,13.96 14.69,14.33 14.60,14.71 14.40,15.03 14.20,15.35 13.91,15.59 13.61,15.84 13.26,15.97 12.90,16.11 12.52,16.12 12.14,16.14 12.14,16.14 12.14,16.14 8.33,15.58 4.52,15.01 2.45,14.26 0.39,13.51 -1.31,12.45 -3.02,11.40 -3.93,12.23 -4.84,13.06 -6.40,14.97 -7.96,16.87 -8.27,16.88 -8.58,16.89 -8.89,16.83 -9.19,16.77 -9.47,16.63 -9.75,16.50 -9.99,16.30 -10.23,16.10 -10.42,15.85 -10.61,15.60 -10.73,15.32 -10.85,15.03 -10.90,14.72 -10.95,14.41 -10.92,14.10 -10.89,13.79 -10.79,13.50 -10.69,13.20 -10.53,12.94 -10.36,12.68 -10.13,12.46 -9.91,12.25 -9.64,12.10 -9.37,11.94 -9.07,11.85 -8.77,11.77 -8.19,12.06 -7.61,12.34 -6.29,12.14 -4.97,11.94 -4.12,11.27 -3.27,10.61 -2.44,9.53 -1.61,8.44 -1.25,7.39 -0.88,6.34 -0.59,5.28 -0.29,4.22 -1.21,2.64 -2.14,1.07 -2.23,0.79 -2.33,0.52 -2.36,0.24 -2.39,-0.04 -2.35,-0.33 -2.31,-0.61 -2.20,-0.88 -2.09,-1.15 -1.92,-1.38 -1.76,-1.62 -1.54,-1.80 -1.32,-1.99 -1.06,-2.12 -0.80,-2.25 -0.52,-2.31 -0.24,-2.38 0.04,-2.37 0.33,-2.37 0.61,-2.29 0.89,-2.22 1.14,-2.08 1.39,-1.94 1.61,-1.74 1.82,-1.55 1.98,-1.31 2.14,-1.07 2.14,-1.07 L 2.14,-1.07 Z"></path></g><g transform="translate(902 759.0625) rotate(0 14 11)" stroke="none"><path fill="#000" d="M -0.84,-1.69 Q -0.84,-1.69 2.06,-3.06 4.97,-4.43 7.22,-5.04 9.46,-5.65 12.23,-5.90 15.00,-6.14 17.76,-5.64 20.52,-5.13 22.68,-3.96 24.84,-2.79 25.95,-1.67 27.06,-0.55 27.86,0.56 28.66,1.68 28.83,3.44 28.99,5.20 27.66,7.83 26.32,10.46 24.27,13.23 22.21,16.00 20.45,18.02 18.69,20.05 16.73,21.81 14.77,23.57 12.70,25.66 10.62,27.74 10.40,27.89 10.18,28.05 9.92,28.12 9.66,28.20 9.39,28.18 9.12,28.17 8.87,28.07 8.62,27.98 8.41,27.80 8.20,27.63 8.06,27.40 7.92,27.17 7.86,26.91 7.80,26.65 7.83,26.38 7.86,26.11 7.97,25.87 8.08,25.62 8.26,25.42 8.45,25.23 8.68,25.10 8.92,24.97 9.18,24.92 9.45,24.88 9.72,24.92 9.98,24.96 10.22,25.09 10.46,25.21 10.65,25.40 10.83,25.60 10.95,25.84 11.06,26.08 11.10,26.35 11.13,26.62 11.07,26.88 11.02,27.15 10.88,27.38 10.74,27.61 10.54,27.79 10.33,27.96 10.08,28.06 9.84,28.17 9.57,28.18 9.30,28.20 9.04,28.13 8.78,28.06 8.55,27.91 8.33,27.76 8.16,27.55 8.00,27.33 7.91,27.08 7.82,26.83 7.82,26.56 7.82,26.29 7.90,26.03 7.99,25.78 8.15,25.56 8.31,25.34 8.31,25.34 8.31,25.34 10.52,23.35 12.73,21.35 14.50,19.68 16.27,18.01 17.88,16.02 19.48,14.04 21.29,11.42 23.09,8.81 24.07,6.89 25.04,4.97 24.76,3.24 24.48,1.52 23.94,0.59 23.40,-0.33 21.67,-1.28 19.94,-2.24 17.61,-2.66 15.27,-3.08 12.82,-2.80 10.37,-2.53 8.44,-1.92 6.52,-1.31 3.68,0.19 0.84,1.69 0.63,1.77 0.41,1.85 0.19,1.87 -0.03,1.89 -0.26,1.86 -0.49,1.83 -0.70,1.74 -0.91,1.66 -1.10,1.53 -1.28,1.39 -1.43,1.22 -1.58,1.04 -1.68,0.84 -1.78,0.63 -1.83,0.41 -1.88,0.19 -1.88,-0.03 -1.88,-0.26 -1.82,-0.48 -1.76,-0.70 -1.65,-0.90 -1.54,-1.10 -1.38,-1.27 -1.23,-1.44 -1.04,-1.57 -0.84,-1.69 -0.84,-1.69 L -0.84,-1.69 Z"></path></g><g transform="translate(914 773.0625) rotate(0 -7.5 13)" stroke="none"><path fill="#000" d="M 2.06,0.82 Q 2.06,0.82 1.48,2.28 0.90,3.74 0.25,4.68 -0.40,5.61 -1.25,6.73 -2.09,7.84 -3.35,9.53 -4.60,11.23 -6.25,12.96 -7.90,14.69 -9.19,16.24 -10.48,17.78 -11.40,19.54 -12.32,21.30 -11.91,22.47 -11.51,23.63 -10.34,23.33 -9.18,23.02 -7.61,23.01 -6.04,23.00 -3.61,22.07 -1.17,21.14 -0.68,21.10 -0.19,21.06 0.28,21.18 0.76,21.29 1.18,21.56 1.60,21.82 1.91,22.21 2.22,22.59 2.39,23.06 2.56,23.52 2.58,24.01 2.59,24.51 2.45,24.98 2.30,25.45 2.02,25.86 1.73,26.26 1.33,26.55 0.93,26.84 0.46,26.98 -0.01,27.13 -0.50,27.12 -0.99,27.11 -1.46,26.94 -1.92,26.77 -2.31,26.46 -2.70,26.15 -2.96,25.73 -3.23,25.32 -3.35,24.84 -3.47,24.36 -3.43,23.87 -3.39,23.38 -3.20,22.92 -3.01,22.47 -2.68,22.10 -2.35,21.73 -1.92,21.48 -1.49,21.24 -1.00,21.14 -0.52,21.05 -0.03,21.12 0.45,21.18 0.89,21.40 1.34,21.62 1.69,21.97 2.04,22.31 2.26,22.76 2.48,23.20 2.55,23.69 2.62,24.18 2.52,24.66 2.43,25.15 2.19,25.58 1.95,26.01 1.58,26.34 1.21,26.67 0.76,26.87 0.31,27.07 0.31,27.07 0.31,27.07 -1.51,27.67 -3.34,28.28 -5.40,28.59 -7.46,28.91 -9.48,28.80 -11.49,28.69 -12.71,28.40 -13.92,28.12 -14.81,27.40 -15.70,26.68 -16.24,25.02 -16.78,23.36 -16.89,21.94 -17.01,20.51 -16.10,18.99 -15.19,17.48 -14.53,16.38 -13.86,15.29 -12.68,13.50 -11.51,11.72 -9.35,8.97 -7.20,6.22 -5.98,5.12 -4.76,4.01 -3.98,3.01 -3.20,2.00 -2.63,0.58 -2.06,-0.82 -1.94,-1.06 -1.81,-1.29 -1.62,-1.49 -1.44,-1.69 -1.22,-1.84 -1.00,-1.99 -0.74,-2.08 -0.49,-2.17 -0.22,-2.20 0.04,-2.22 0.30,-2.19 0.57,-2.15 0.82,-2.05 1.07,-1.95 1.28,-1.79 1.50,-1.64 1.68,-1.43 1.85,-1.23 1.97,-0.99 2.09,-0.75 2.15,-0.49 2.21,-0.22 2.21,0.04 2.20,0.30 2.13,0.56 2.06,0.82 2.06,0.82 L 2.06,0.82 Z"></path></g><g transform="translate(949 754.0625) rotate(0 7 6)" stroke="none"><path fill="#000" d="M -0.77,-1.73 Q -0.77,-1.73 1.84,-2.81 4.46,-3.89 6.39,-4.87 8.32,-5.85 9.54,-6.44 10.77,-7.04 12.27,-6.86 13.77,-6.67 14.61,-5.71 15.46,-4.74 15.30,-1.98 15.15,0.76 14.41,3.86 13.67,6.96 13.35,9.01 13.03,11.06 12.92,14.24 12.82,17.43 12.76,17.71 12.70,17.99 12.55,18.24 12.40,18.49 12.18,18.68 11.96,18.87 11.69,18.98 11.42,19.09 11.13,19.11 10.84,19.13 10.56,19.05 10.28,18.97 10.04,18.81 9.80,18.65 9.63,18.42 9.45,18.19 9.35,17.92 9.26,17.64 9.26,17.35 9.26,17.06 9.35,16.79 9.44,16.51 9.61,16.28 9.78,16.05 10.02,15.89 10.26,15.72 10.54,15.64 10.82,15.56 11.11,15.58 11.40,15.59 11.67,15.70 11.94,15.80 12.16,15.99 12.38,16.17 12.53,16.42 12.69,16.67 12.75,16.95 12.81,17.23 12.78,17.52 12.76,17.81 12.64,18.07 12.52,18.34 12.32,18.55 12.12,18.76 11.86,18.90 11.61,19.04 11.32,19.09 11.04,19.13 10.75,19.09 10.47,19.04 10.21,18.91 9.95,18.78 9.75,18.57 9.55,18.36 9.43,18.10 9.30,17.83 9.27,17.55 9.24,17.26 9.24,17.26 9.24,17.26 9.50,13.95 9.76,10.64 9.99,8.43 10.21,6.22 10.75,3.36 11.29,0.50 11.60,-1.55 11.91,-3.62 10.89,-3.30 9.87,-2.99 7.87,-1.85 5.88,-0.70 3.32,0.51 0.77,1.73 0.55,1.80 0.33,1.87 0.10,1.88 -0.12,1.89 -0.34,1.85 -0.57,1.81 -0.78,1.71 -0.99,1.62 -1.17,1.48 -1.35,1.33 -1.49,1.15 -1.63,0.97 -1.72,0.76 -1.81,0.55 -1.85,0.33 -1.90,0.10 -1.88,-0.12 -1.87,-0.35 -1.80,-0.57 -1.73,-0.78 -1.61,-0.98 -1.49,-1.18 -1.32,-1.34 -1.16,-1.50 -0.96,-1.62 -0.77,-1.73 -0.77,-1.73 L -0.77,-1.73 Z"></path></g><g transform="translate(979 762.0625) rotate(0 5.5 2)" stroke="none"><path fill="#000" d="M 0.86,-2.01 Q 0.86,-2.01 2.83,-1.04 4.79,-0.07 6.47,0.57 8.14,1.23 9.52,1.53 10.90,1.84 11.20,1.98 11.50,2.11 11.74,2.34 11.99,2.57 12.14,2.86 12.30,3.16 12.36,3.48 12.41,3.81 12.36,4.14 12.31,4.47 12.15,4.76 12.00,5.06 11.76,5.29 11.52,5.52 11.21,5.66 10.91,5.80 10.58,5.84 10.25,5.87 9.93,5.80 9.60,5.73 9.32,5.56 9.03,5.39 8.81,5.14 8.60,4.89 8.47,4.58 8.35,4.27 8.33,3.94 8.31,3.61 8.40,3.29 8.49,2.96 8.67,2.69 8.86,2.41 9.12,2.21 9.39,2.01 9.70,1.90 10.02,1.79 10.35,1.79 10.68,1.79 11.00,1.90 11.31,2.00 11.58,2.20 11.84,2.40 12.03,2.68 12.22,2.95 12.31,3.27 12.40,3.59 12.38,3.92 12.36,4.25 12.24,4.56 12.12,4.87 11.91,5.13 11.69,5.38 11.41,5.55 11.12,5.73 10.80,5.80 10.47,5.87 10.14,5.84 9.81,5.80 9.81,5.80 9.81,5.80 8.29,5.32 6.77,4.83 5.01,4.18 3.25,3.52 1.19,2.77 -0.86,2.01 -1.09,1.88 -1.32,1.75 -1.51,1.56 -1.70,1.38 -1.84,1.16 -1.98,0.93 -2.06,0.68 -2.15,0.43 -2.17,0.17 -2.19,-0.09 -2.15,-0.35 -2.10,-0.61 -2.00,-0.85 -1.89,-1.10 -1.73,-1.31 -1.58,-1.52 -1.37,-1.69 -1.16,-1.85 -0.93,-1.97 -0.69,-2.08 -0.43,-2.13 -0.17,-2.18 0.09,-2.17 0.35,-2.16 0.61,-2.09 0.86,-2.01 0.86,-2.01 L 0.86,-2.01 Z"></path></g><g transform="translate(1013 749.0625) rotate(0 -7.5 17)" stroke="none"><path fill="#000" d="M 1.98,0.56 Q 1.98,0.56 1.32,2.55 0.66,4.54 -0.26,6.61 -1.18,8.69 -2.73,12.39 -4.28,16.09 -5.52,19.36 -6.76,22.63 -7.59,24.88 -8.42,27.13 -8.99,28.52 -9.57,29.90 -10.09,30.87 -10.62,31.84 -11.79,33.29 -12.96,34.75 -13.22,34.96 -13.47,35.17 -13.78,35.28 -14.08,35.40 -14.41,35.41 -14.74,35.42 -15.05,35.33 -15.37,35.24 -15.63,35.05 -15.90,34.86 -16.10,34.60 -16.29,34.33 -16.39,34.02 -16.49,33.71 -16.48,33.38 -16.48,33.05 -16.37,32.75 -16.26,32.44 -16.06,32.18 -15.85,31.92 -15.58,31.74 -15.30,31.56 -14.99,31.48 -14.67,31.40 -14.34,31.42 -14.02,31.45 -13.72,31.57 -13.41,31.70 -13.17,31.91 -12.92,32.13 -12.76,32.41 -12.59,32.70 -12.53,33.02 -12.46,33.34 -12.50,33.66 -12.54,33.99 -12.69,34.28 -12.83,34.58 -13.06,34.81 -13.29,35.05 -13.58,35.19 -13.87,35.34 -14.20,35.39 -14.52,35.44 -14.84,35.38 -15.16,35.32 -15.45,35.16 -15.74,35.01 -15.96,34.76 -16.18,34.52 -16.31,34.22 -16.44,33.92 -16.47,33.60 -16.50,33.27 -16.43,32.95 -16.35,32.63 -16.18,32.36 -16.01,32.08 -16.01,32.08 -16.01,32.08 -14.28,30.24 -12.56,28.39 -11.88,27.27 -11.20,26.15 -10.42,23.86 -9.64,21.58 -8.46,18.23 -7.28,14.88 -5.83,11.13 -4.39,7.38 -3.67,5.44 -2.96,3.50 -2.47,1.46 -1.98,-0.56 -1.89,-0.79 -1.79,-1.02 -1.64,-1.22 -1.49,-1.42 -1.30,-1.58 -1.11,-1.74 -0.88,-1.85 -0.66,-1.95 -0.41,-2.00 -0.17,-2.05 0.07,-2.05 0.32,-2.04 0.56,-1.97 0.80,-1.90 1.01,-1.78 1.23,-1.65 1.41,-1.48 1.59,-1.31 1.72,-1.10 1.86,-0.89 1.94,-0.65 2.02,-0.42 2.04,-0.17 2.06,0.07 2.02,0.32 1.98,0.56 1.98,0.56 L 1.98,0.56 Z"></path></g><g transform="translate(1019 750.0625) rotate(0 2.5 16)" stroke="none"><path fill="#000" d="M 1.64,-1.92 Q 1.64,-1.92 3.55,-0.07 5.47,1.77 6.48,2.90 7.49,4.03 8.07,5.07 8.65,6.11 8.65,7.64 8.64,9.16 7.85,10.60 7.05,12.04 5.98,13.03 4.91,14.01 3.54,14.99 2.17,15.98 2.98,17.06 3.80,18.13 3.77,19.84 3.75,21.55 3.46,24.14 3.16,26.74 2.04,29.54 0.92,32.35 0.70,32.77 0.48,33.18 0.14,33.50 -0.18,33.82 -0.61,34.02 -1.03,34.22 -1.49,34.27 -1.96,34.32 -2.41,34.22 -2.87,34.12 -3.27,33.88 -3.67,33.64 -3.97,33.29 -4.28,32.93 -4.45,32.50 -4.63,32.07 -4.65,31.60 -4.68,31.14 -4.56,30.69 -4.43,30.24 -4.17,29.85 -3.91,29.46 -3.54,29.18 -3.17,28.89 -2.73,28.74 -2.29,28.59 -1.82,28.59 -1.35,28.59 -0.91,28.74 -0.47,28.89 -0.09,29.17 0.27,29.45 0.53,29.83 0.80,30.22 0.92,30.67 1.05,31.12 1.02,31.59 1.00,32.05 0.83,32.49 0.66,32.92 0.36,33.28 0.05,33.63 -0.33,33.87 -0.73,34.12 -1.19,34.22 -1.65,34.32 -2.11,34.27 -2.57,34.22 -3.00,34.03 -3.42,33.83 -3.76,33.51 -4.10,33.19 -4.32,32.78 -4.54,32.37 -4.62,31.91 -4.70,31.45 -4.62,30.99 -4.55,30.53 -4.55,30.53 -4.55,30.53 -3.44,28.01 -2.34,25.49 -2.11,23.59 -1.88,21.70 -1.95,19.63 -2.02,17.56 -2.32,16.35 -2.63,15.14 -2.36,14.06 -2.09,12.98 -0.95,12.04 0.18,11.10 1.49,10.12 2.81,9.14 3.39,8.04 3.97,6.95 3.27,6.03 2.57,5.12 0.46,3.52 -1.64,1.92 -1.85,1.69 -2.05,1.47 -2.20,1.20 -2.35,0.93 -2.42,0.64 -2.50,0.34 -2.51,0.04 -2.51,-0.26 -2.44,-0.56 -2.37,-0.85 -2.24,-1.13 -2.10,-1.40 -1.90,-1.63 -1.70,-1.86 -1.46,-2.04 -1.21,-2.22 -0.92,-2.33 -0.64,-2.44 -0.34,-2.48 -0.04,-2.52 0.26,-2.49 0.56,-2.46 0.85,-2.36 1.13,-2.25 1.39,-2.08 1.64,-1.92 1.64,-1.92 L 1.64,-1.92 Z"></path></g><g transform="translate(834 811.0625) rotate(0 -45 5)" stroke="none"><path fill="#000" d="M 1.58,1.26 Q 1.58,1.26 0.41,2.68 -0.75,4.11 -1.50,5.08 -2.24,6.05 -3.35,7.43 -4.47,8.81 -5.70,9.77 -6.93,10.73 -8.61,11.84 -10.30,12.96 -12.01,13.84 -13.72,14.71 -15.58,15.56 -17.44,16.41 -20.14,17.07 -22.84,17.73 -26.07,17.98 -29.30,18.23 -32.60,18.59 -35.90,18.95 -38.50,19.09 -41.11,19.24 -44.82,19.29 -48.53,19.34 -52.46,19.06 -56.38,18.78 -59.84,18.07 -63.29,17.36 -65.37,16.76 -67.44,16.17 -69.93,14.37 -72.43,12.57 -74.68,9.71 -76.92,6.86 -78.69,4.54 -80.45,2.22 -82.06,0.09 -83.67,-2.04 -84.91,-3.09 -86.14,-4.15 -88.05,-5.09 -89.95,-6.02 -90.17,-6.20 -90.38,-6.37 -90.53,-6.60 -90.67,-6.83 -90.74,-7.10 -90.80,-7.36 -90.78,-7.64 -90.76,-7.91 -90.65,-8.16 -90.54,-8.41 -90.36,-8.61 -90.17,-8.82 -89.94,-8.95 -89.70,-9.09 -89.43,-9.14 -89.16,-9.19 -88.89,-9.15 -88.62,-9.11 -88.37,-8.99 -88.13,-8.87 -87.93,-8.67 -87.74,-8.48 -87.62,-8.23 -87.50,-7.99 -87.46,-7.72 -87.43,-7.45 -87.48,-7.18 -87.53,-6.91 -87.67,-6.67 -87.80,-6.43 -88.00,-6.25 -88.21,-6.07 -88.46,-5.96 -88.71,-5.85 -88.99,-5.83 -89.26,-5.81 -89.52,-5.88 -89.79,-5.94 -90.02,-6.09 -90.25,-6.24 -90.42,-6.45 -90.59,-6.67 -90.69,-6.92 -90.78,-7.18 -90.79,-7.45 -90.79,-7.73 -90.71,-7.99 -90.63,-8.25 -90.47,-8.47 -90.31,-8.70 -90.09,-8.85 -89.86,-9.01 -89.60,-9.09 -89.34,-9.17 -89.07,-9.16 -88.79,-9.16 -88.54,-9.06 -88.28,-8.97 -88.28,-8.97 -88.28,-8.97 -86.20,-7.64 -84.12,-6.31 -82.84,-4.98 -81.55,-3.65 -79.94,-1.52 -78.32,0.59 -76.56,2.90 -74.79,5.20 -72.79,7.80 -70.79,10.39 -68.71,11.96 -66.62,13.53 -64.68,14.09 -62.74,14.65 -59.47,15.31 -56.19,15.96 -52.39,16.20 -48.59,16.44 -44.95,16.34 -41.31,16.24 -38.80,16.03 -36.28,15.83 -32.95,15.37 -29.61,14.91 -26.69,14.58 -23.78,14.26 -21.49,13.57 -19.21,12.87 -17.45,11.89 -15.69,10.91 -14.30,10.18 -12.92,9.45 -11.37,8.15 -9.82,6.85 -8.86,6.17 -7.90,5.49 -6.67,4.39 -5.45,3.28 -4.65,2.46 -3.84,1.63 -2.71,0.18 -1.58,-1.26 -1.41,-1.43 -1.23,-1.61 -1.02,-1.73 -0.81,-1.85 -0.58,-1.93 -0.34,-2.00 -0.10,-2.01 0.14,-2.02 0.38,-1.97 0.62,-1.93 0.84,-1.82 1.06,-1.72 1.25,-1.57 1.45,-1.42 1.59,-1.22 1.74,-1.03 1.84,-0.80 1.94,-0.58 1.98,-0.34 2.02,-0.10 2.01,0.14 1.99,0.38 1.91,0.61 1.84,0.85 1.71,1.06 1.58,1.26 1.58,1.26 L 1.58,1.26 Z"></path></g><g transform="translate(760 795.0625) rotate(0 -11.5 13)" stroke="none"><path fill="#000" d="M -1.41,1.89 Q -1.41,1.89 -2.57,1.03 -3.72,0.18 -4.70,-0.37 -5.68,-0.94 -7.48,-1.11 -9.29,-1.28 -10.71,-1.11 -12.14,-0.93 -13.25,-0.57 -14.37,-0.21 -15.58,0.60 -16.79,1.43 -17.65,2.70 -18.52,3.98 -19.20,5.55 -19.88,7.12 -20.19,8.78 -20.50,10.45 -19.53,12.49 -18.55,14.54 -17.25,15.95 -15.94,17.36 -14.31,18.55 -12.68,19.73 -11.54,20.51 -10.39,21.29 -9.01,22.56 -7.63,23.82 -6.20,25.94 -4.76,28.05 -4.64,28.36 -4.51,28.67 -4.49,29.00 -4.47,29.34 -4.56,29.66 -4.64,29.98 -4.83,30.26 -5.01,30.54 -5.28,30.74 -5.54,30.95 -5.86,31.06 -6.17,31.17 -6.51,31.17 -6.84,31.17 -7.16,31.07 -7.48,30.97 -7.75,30.77 -8.01,30.57 -8.20,30.29 -8.39,30.02 -8.49,29.69 -8.58,29.37 -8.56,29.04 -8.55,28.70 -8.43,28.39 -8.31,28.08 -8.09,27.82 -7.88,27.57 -7.59,27.39 -7.31,27.22 -6.98,27.14 -6.66,27.07 -6.32,27.10 -5.99,27.13 -5.69,27.27 -5.38,27.41 -5.14,27.64 -4.89,27.87 -4.73,28.16 -4.57,28.45 -4.52,28.78 -4.46,29.11 -4.51,29.44 -4.56,29.77 -4.72,30.07 -4.87,30.37 -5.11,30.60 -5.35,30.83 -5.65,30.97 -5.96,31.12 -6.29,31.16 -6.62,31.20 -6.95,31.13 -7.27,31.06 -7.56,30.89 -7.85,30.72 -8.07,30.46 -8.29,30.21 -8.29,30.21 -8.29,30.21 -9.26,28.40 -10.24,26.60 -11.48,25.45 -12.72,24.30 -13.68,23.46 -14.65,22.61 -16.63,21.33 -18.62,20.05 -20.40,18.36 -22.19,16.67 -23.30,14.70 -24.41,12.74 -24.51,11.30 -24.61,9.87 -24.33,7.70 -24.04,5.53 -23.32,3.48 -22.60,1.44 -21.53,-0.37 -20.45,-2.18 -18.11,-3.56 -15.78,-4.93 -14.30,-5.34 -12.82,-5.76 -10.84,-6.06 -8.86,-6.36 -7.34,-6.19 -5.82,-6.02 -4.50,-5.57 -3.17,-5.12 -2.02,-4.37 -0.87,-3.63 0.27,-2.76 1.41,-1.89 1.62,-1.69 1.82,-1.49 1.98,-1.25 2.13,-1.01 2.22,-0.74 2.31,-0.47 2.33,-0.19 2.36,0.09 2.31,0.37 2.27,0.65 2.15,0.91 2.04,1.17 1.87,1.40 1.70,1.63 1.48,1.81 1.26,1.99 1.00,2.11 0.75,2.24 0.47,2.29 0.19,2.35 -0.09,2.34 -0.37,2.33 -0.65,2.25 -0.92,2.17 -1.17,2.03 -1.41,1.89 -1.41,1.89 L -1.41,1.89 Z"></path></g><g transform="translate(769 841.0625) rotate(0 -2 15)" stroke="none"><path fill="#000" d="M 2.16,0.39 Q 2.16,0.39 1.47,3.53 0.78,6.67 0.17,10.27 -0.43,13.87 -1.02,16.86 -1.60,19.86 -1.75,21.40 -1.90,22.94 -1.91,24.13 -1.91,25.31 -1.92,27.44 -1.93,29.57 -1.99,29.89 -2.05,30.22 -2.22,30.51 -2.38,30.80 -2.62,31.02 -2.87,31.25 -3.17,31.38 -3.48,31.51 -3.81,31.54 -4.14,31.57 -4.46,31.49 -4.79,31.41 -5.07,31.23 -5.35,31.06 -5.56,30.80 -5.77,30.54 -5.88,30.23 -6.00,29.92 -6.01,29.59 -6.02,29.25 -5.92,28.93 -5.83,28.62 -5.64,28.35 -5.44,28.08 -5.17,27.88 -4.91,27.69 -4.59,27.59 -4.27,27.49 -3.94,27.49 -3.61,27.50 -3.29,27.61 -2.98,27.73 -2.72,27.93 -2.46,28.14 -2.28,28.42 -2.10,28.70 -2.02,29.02 -1.94,29.34 -1.96,29.68 -1.99,30.01 -2.12,30.31 -2.25,30.62 -2.47,30.87 -2.69,31.12 -2.98,31.28 -3.27,31.44 -3.59,31.51 -3.92,31.57 -4.25,31.53 -4.58,31.49 -4.88,31.34 -5.17,31.19 -5.41,30.96 -5.65,30.73 -5.80,30.43 -5.94,30.13 -5.99,29.80 -6.04,29.47 -6.04,29.47 -6.04,29.47 -5.92,27.25 -5.81,25.02 -5.62,23.73 -5.44,22.45 -5.16,20.87 -4.88,19.30 -4.43,16.32 -3.98,13.35 -3.53,9.66 -3.08,5.97 -2.62,2.78 -2.16,-0.39 -2.08,-0.64 -2.01,-0.90 -1.87,-1.12 -1.73,-1.35 -1.54,-1.54 -1.36,-1.73 -1.13,-1.87 -0.90,-2.00 -0.65,-2.08 -0.40,-2.16 -0.13,-2.18 0.13,-2.19 0.39,-2.15 0.65,-2.10 0.89,-1.99 1.13,-1.88 1.34,-1.72 1.55,-1.56 1.72,-1.35 1.88,-1.14 1.99,-0.90 2.10,-0.65 2.15,-0.39 2.19,-0.13 2.18,0.12 2.16,0.39 2.16,0.39 L 2.16,0.39 Z"></path></g><g transform="translate(773 845.0625) rotate(0 6.5 5)" stroke="none"><path fill="#000" d="M -2.00,-1.50 Q -2.00,-1.50 -1.13,-2.65 -0.27,-3.79 0.66,-4.79 1.59,-5.78 2.78,-6.19 3.96,-6.59 6.66,-5.94 9.36,-5.30 10.47,-4.76 11.58,-4.23 12.55,-3.61 13.52,-2.99 14.19,-1.10 14.86,0.79 13.76,2.69 12.66,4.58 11.90,5.52 11.15,6.46 9.77,7.57 8.38,8.67 6.78,9.48 5.18,10.29 4.33,10.90 3.48,11.51 3.17,11.62 2.87,11.73 2.55,11.76 2.24,11.80 1.92,11.75 1.60,11.71 1.30,11.59 1.00,11.47 0.74,11.29 0.48,11.10 0.27,10.86 0.06,10.62 -0.07,10.33 -0.21,10.04 -0.29,9.73 -0.36,9.42 -0.35,9.10 -0.35,8.78 -0.27,8.47 -0.19,8.16 -0.03,7.88 0.11,7.60 0.32,7.36 0.54,7.12 0.81,6.94 1.07,6.77 3.70,7.31 6.33,7.86 7.52,8.42 8.70,8.98 10.29,10.47 11.88,11.97 11.70,13.31 11.51,14.66 10.69,15.44 9.86,16.22 7.28,17.01 4.69,17.81 4.22,17.79 3.76,17.78 3.32,17.61 2.88,17.44 2.53,17.15 2.17,16.85 1.92,16.45 1.67,16.06 1.57,15.60 1.46,15.15 1.50,14.69 1.55,14.22 1.74,13.80 1.93,13.37 2.24,13.03 2.56,12.68 2.97,12.46 3.38,12.24 3.84,12.15 4.29,12.07 4.76,12.14 5.22,12.21 5.63,12.42 6.05,12.64 6.37,12.97 6.70,13.30 6.90,13.72 7.10,14.14 7.16,14.61 7.21,15.07 7.12,15.53 7.03,15.98 6.79,16.38 6.56,16.79 6.21,17.09 5.85,17.40 5.42,17.58 4.99,17.76 4.53,17.79 4.06,17.82 3.61,17.70 3.16,17.58 2.77,17.33 2.38,17.07 2.10,16.71 1.81,16.34 1.65,15.90 1.50,15.46 1.49,14.99 1.49,14.53 1.63,14.08 1.77,13.64 2.05,13.26 2.32,12.89 2.71,12.62 3.09,12.36 3.54,12.22 3.98,12.09 3.98,12.09 3.98,12.09 5.58,11.65 7.18,11.21 6.77,12.35 6.37,13.49 4.92,12.50 3.48,11.51 3.17,11.62 2.87,11.73 2.55,11.76 2.24,11.80 1.92,11.75 1.60,11.71 1.30,11.59 1.01,11.47 0.74,11.29 0.48,11.10 0.27,10.86 0.06,10.62 -0.07,10.33 -0.21,10.04 -0.29,9.73 -0.36,9.42 -0.35,9.10 -0.35,8.78 -0.27,8.47 -0.19,8.16 -0.03,7.88 0.11,7.60 0.32,7.36 0.54,7.12 0.81,6.94 1.07,6.77 1.95,6.21 2.83,5.66 3.94,5.09 5.06,4.53 6.01,3.75 6.97,2.97 8.08,1.82 9.19,0.67 8.12,0.14 7.05,-0.37 5.39,-0.58 3.72,-0.80 2.86,0.35 2.00,1.50 1.79,1.72 1.58,1.93 1.33,2.10 1.07,2.26 0.78,2.35 0.50,2.45 0.20,2.47 -0.09,2.50 -0.39,2.45 -0.69,2.40 -0.97,2.28 -1.25,2.17 -1.49,1.98 -1.73,1.80 -1.92,1.57 -2.11,1.34 -2.24,1.06 -2.37,0.79 -2.43,0.49 -2.49,0.20 -2.48,-0.09 -2.47,-0.39 -2.38,-0.68 -2.30,-0.97 -2.15,-1.24 -2.00,-1.50 -2.00,-1.50 L -2.00,-1.50 Z"></path></g><g transform="translate(645 605.0625) rotate(0 21 13.5)"><text x="0" y="22" font-family="Virgil, Segoe UI Emoji" font-size="20px" fill="#1864ab" text-anchor="start" style="white-space: pre;" direction="ltr">Hoje</text></g><g transform="translate(877 505.0625) rotate(0 37 13.5)"><text x="0" y="22" font-family="Virgil, Segoe UI Emoji" font-size="20px" fill="#1864ab" text-anchor="start" style="white-space: pre;" direction="ltr">Amanhã</text></g><g transform="translate(550 720.0625) rotate(0 15 13.5)"><text x="0" y="22" font-family="Virgil, Segoe UI Emoji" font-size="20px" fill="#1864ab" text-anchor="start" style="white-space: pre;" direction="ltr">OU</text></g></svg>